<?xml version="1.0" encoding="utf-8"?>
<!-- Generator: Adobe Illustrator 16.0.0, SVG Export Plug-In . SVG Version: 6.00 Build 0)  -->
<!DOCTYPE svg PUBLIC "-//W3C//DTD SVG 1.1//EN" "http://www.w3.org/Graphics/SVG/1.1/DTD/svg11.dtd">
<svg version="1.1" id="Layer_1" xmlns="http://www.w3.org/2000/svg" xmlns:xlink="http://www.w3.org/1999/xlink" x="0px" y="0px"
	 width="320px" height="160px" viewBox="-15.5 -13 320 160" enable-background="new -15.5 -13 320 160" xml:space="preserve">
<g>
	<defs>
		<rect id="SVGID_1_" width="49" height="54"/>
	</defs>
	<clipPath id="SVGID_2_">
		<use xlink:href="#SVGID_1_"  overflow="visible"/>
	</clipPath>
	<g id="icons" clip-path="url(#SVGID_2_)">
		<path id="Vector" fill="#FFDB9F" d="M36.354,24.143H12.646v2.772h23.707V24.143z"/>
		<path id="Vector_2" fill="#FFDB9F" d="M35.123,38.154H13.882v10.777h21.241V38.154z"/>
		<g id="Group">
			<g id="Group_2">
				<g id="Group_3">
					<path id="Vector_3" fill="#767676" d="M24.502,12.935c-3.571,0-6.476-2.901-6.476-6.467S20.931,0,24.502,0
						c3.571,0,6.476,2.901,6.476,6.468S28.073,12.935,24.502,12.935z M24.502,1.617c-2.678,0-4.857,2.176-4.857,4.851
						s2.179,4.851,4.857,4.851s4.857-2.176,4.857-4.851S27.181,1.617,24.502,1.617z"/>
					<path id="Vector_4" fill="#767676" d="M36.7,27.728c-0.448,0-0.81-0.36-0.81-0.809v-4.518c0-4.103-3.34-7.438-7.447-7.438
						h-7.887c-4.107,0-7.447,3.335-7.447,7.438v4.518c0,0.448-0.361,0.809-0.81,0.809s-0.81-0.36-0.81-0.809v-4.518
						c0-4.994,4.066-9.055,9.066-9.055h7.887c5,0,9.066,4.061,9.066,9.055v4.518C37.51,27.367,37.148,27.728,36.7,27.728z"/>
				</g>
				<g id="Group_4">
					<path id="Vector_5" fill="#767676" d="M17.11,27.728c-0.449,0-0.81-0.36-0.81-0.809v-4.023c0-0.448,0.361-0.809,0.81-0.809
						s0.81,0.36,0.81,0.809v4.023C17.92,27.367,17.559,27.728,17.11,27.728z"/>
					<path id="Vector_6" fill="#767676" d="M31.895,27.728c-0.449,0-0.81-0.36-0.81-0.809v-4.023c0-0.448,0.36-0.809,0.81-0.809
						s0.81,0.36,0.81,0.809v4.023C32.704,27.367,32.344,27.728,31.895,27.728z"/>
				</g>
			</g>
			<path id="Vector_7" fill="#767676" d="M39.998,54H9.002c-0.449,0-0.81-0.36-0.81-0.809V33.641c0-0.447,0.361-0.809,0.81-0.809
				h30.996c0.449,0,0.811,0.361,0.811,0.809v19.551C40.809,53.64,40.447,54,39.998,54z M9.812,52.383h29.378V34.449H9.812V52.383z"
				/>
			<path id="Vector_8" fill="#767676" d="M43.314,41.573h-2.941c-0.449,0-0.81-0.36-0.81-0.809s0.36-0.809,0.81-0.809h2.373
				l4.293-11.929H1.961l4.293,11.929h2.1c0.448,0,0.809,0.36,0.809,0.809s-0.361,0.809-0.809,0.809H5.685
				c-0.342,0-0.647-0.213-0.763-0.536L0.046,27.497c-0.088-0.25-0.051-0.522,0.097-0.739c0.153-0.217,0.398-0.342,0.662-0.342
				h47.381c0.264,0,0.509,0.129,0.662,0.342c0.152,0.217,0.189,0.49,0.097,0.739l-4.876,13.544c-0.115,0.324-0.42,0.537-0.763,0.537
				L43.314,41.573z"/>
			<g id="Group_5">
				<path id="Vector_9" fill="#767676" d="M5.564,27.261c-0.449,0-0.81-0.36-0.81-0.808v-9.757c0-0.212,0.083-0.42,0.236-0.573
					l5.144-5.137c0.314-0.314,0.828-0.314,1.142,0c0.315,0.314,0.315,0.827,0,1.141l-4.908,4.901v9.424
					c0,0.448-0.361,0.808-0.81,0.808H5.564z"/>
				<path id="Vector_10" fill="#767676" d="M43.435,27.261c-0.448,0-0.81-0.36-0.81-0.808v-9.424l-4.908-4.901
					c-0.314-0.314-0.314-0.827,0-1.141s0.828-0.314,1.143,0l5.145,5.137c0.152,0.152,0.236,0.355,0.236,0.573v9.757
					c0,0.448-0.361,0.808-0.811,0.808H43.435z"/>
			</g>
		</g>
	</g>
</g>
<g>
	<defs>
		<rect id="SVGID_3_" x="80" y="0.5" width="49" height="52.717"/>
	</defs>
	<clipPath id="SVGID_4_">
		<use xlink:href="#SVGID_3_"  overflow="visible"/>
	</clipPath>
	<g id="icons_1_" clip-path="url(#SVGID_4_)">
		<path id="Vector_1_" fill="#767676" d="M112.286,22.851H95.148c-0.438,0-0.789-0.352-0.789-0.789s0.352-0.79,0.789-0.79h17.138
			c0.438,0,0.789,0.352,0.789,0.79S112.724,22.851,112.286,22.851z"/>
		<path id="Vector_2_1_" fill="#767676" d="M114.541,28.037H92.894c-0.437,0-0.789-0.352-0.789-0.789s0.353-0.789,0.789-0.789
			h21.647c0.438,0,0.789,0.352,0.789,0.789S114.979,28.037,114.541,28.037z"/>
		<path id="Vector_3_1_" fill="#767676" d="M114.541,33.224H92.894c-0.437,0-0.789-0.352-0.789-0.789s0.353-0.789,0.789-0.789
			h21.647c0.438,0,0.789,0.352,0.789,0.789S114.979,33.224,114.541,33.224z"/>
		<path id="Vector_4_1_" fill="#767676" d="M110.031,38.41H97.403c-0.438,0-0.789-0.352-0.789-0.789s0.352-0.789,0.789-0.789h12.628
			c0.438,0,0.789,0.352,0.789,0.789S110.469,38.41,110.031,38.41z"/>
		<path id="Vector_5_1_" fill="#767676" d="M107.687,43.597h-7.938c-0.438,0-0.789-0.353-0.789-0.79s0.352-0.789,0.789-0.789h7.938
			c0.438,0,0.789,0.352,0.789,0.789S108.124,43.597,107.687,43.597z"/>
		<path id="Vector_6_1_" fill="#767676" d="M119.295,49.464H94.757c-0.438,0-0.789-0.352-0.789-0.789s0.352-0.789,0.789-0.789
			h23.749V14.72H88.93v31.163c0,0.438-0.352,0.789-0.789,0.789s-0.789-0.352-0.789-0.789V13.931c0-0.438,0.352-0.79,0.789-0.79
			h31.154c0.438,0,0.789,0.352,0.789,0.79V48.68c0,0.438-0.352,0.789-0.789,0.789V49.464z"/>
		<g id="Group_1_">
			<g id="Group_2_1_">
				<path id="Vector_7_1_" fill="#767676" d="M113.612,14.49c-0.104,0-0.212-0.022-0.307-0.063L98.707,8.221
					c-0.293-0.122-0.482-0.41-0.482-0.726c0-0.316,0.189-0.604,0.482-0.727l14.594-6.206c0.199-0.085,0.42-0.085,0.618,0
					l14.599,6.206C128.811,6.891,129,7.179,129,7.495c0,0.315-0.189,0.604-0.482,0.726l-14.599,6.206
					C113.82,14.467,113.717,14.49,113.612,14.49z M101.029,7.495l12.583,5.349l12.583-5.349l-12.583-5.349L101.029,7.495z"/>
				<g id="Group_3_1_">
					<path id="Vector_8_1_" fill="#FFDB9F" d="M113.612,13.701l-8.93-3.793v6.485c2.499,1.078,5.583,1.713,8.93,1.713
						s6.431-0.636,8.93-1.713V9.908L113.612,13.701z"/>
					<path id="Vector_9_1_" fill="#767676" d="M113.612,18.896c-3.347,0-6.544-0.613-9.241-1.777
						c-0.288-0.126-0.478-0.411-0.478-0.726V9.908c0-0.266,0.131-0.514,0.352-0.659c0.222-0.144,0.501-0.171,0.745-0.067
						l8.617,3.662l8.619-3.662c0.243-0.104,0.523-0.077,0.744,0.067c0.221,0.145,0.352,0.393,0.352,0.659v6.485
						c0,0.315-0.189,0.6-0.479,0.726c-2.697,1.164-5.895,1.777-9.24,1.777H113.612z M105.473,15.865
						c2.398,0.952,5.199,1.452,8.14,1.452s5.737-0.5,8.141-1.452v-4.763l-7.829,3.329c-0.199,0.085-0.42,0.085-0.618,0l-7.829-3.329
						v4.763H105.473z"/>
				</g>
			</g>
			<path id="Vector_10_1_" fill="#767676" d="M125.307,16.172c-0.438,0-0.789-0.352-0.789-0.789V9.299
				c0-0.438,0.352-0.789,0.789-0.789s0.789,0.352,0.789,0.789v6.084C126.096,15.82,125.744,16.172,125.307,16.172z"/>
		</g>
		<g id="Group_4_1_">
			<path id="Vector_11" fill="#767676" d="M92.059,53.217c-0.121,0-0.238-0.027-0.352-0.082l-4.617-2.291l-4.619,2.291
				c-0.243,0.122-0.536,0.108-0.766-0.036c-0.23-0.144-0.375-0.396-0.375-0.672v-8.979c0-0.438,0.352-0.789,0.789-0.789
				s0.789,0.352,0.789,0.789v7.708l3.829-1.899c0.222-0.107,0.483-0.107,0.704,0l3.828,1.899v-7.708
				c0-0.438,0.352-0.789,0.789-0.789s0.789,0.352,0.789,0.789v8.979c0,0.275-0.139,0.528-0.373,0.672
				C92.348,53.176,92.203,53.217,92.059,53.217z"/>
			<g id="Group_5_1_">
				<g id="Group_6">
					<path id="Vector_12" fill="#FFDB9F" d="M93.398,41.152c0-3.482-2.822-6.305-6.305-6.305c-3.481,0-6.305,2.822-6.305,6.305
						c0,3.481,2.823,6.305,6.305,6.305C90.576,47.457,93.398,44.634,93.398,41.152z"/>
					<path id="Vector_13" fill="#767676" d="M87.094,48.246c-3.91,0-7.094-3.184-7.094-7.094s3.184-7.094,7.094-7.094
						s7.094,3.184,7.094,7.094S91.004,48.246,87.094,48.246z M87.094,35.637c-3.039,0-5.516,2.476-5.516,5.516
						c0,3.039,2.477,5.516,5.516,5.516c3.04,0,5.516-2.477,5.516-5.516C92.609,38.112,90.134,35.637,87.094,35.637z"/>
				</g>
				<g id="Group_7">
					<path id="Vector_14" fill="#FFDB9F" d="M90.563,41.152c0-1.917-1.552-3.469-3.469-3.469c-1.916,0-3.468,1.552-3.468,3.469
						c0,1.916,1.556,3.468,3.468,3.468S90.563,43.068,90.563,41.152z"/>
					<path id="Vector_15" fill="#767676" d="M87.094,45.414c-2.35,0-4.257-1.912-4.257-4.258c0-2.345,1.912-4.257,4.257-4.257
						c2.346,0,4.258,1.912,4.258,4.257C91.352,43.502,89.439,45.414,87.094,45.414z M87.094,38.473c-1.479,0-2.678,1.205-2.678,2.68
						s1.203,2.679,2.678,2.679s2.68-1.204,2.68-2.679S88.568,38.473,87.094,38.473z"/>
				</g>
			</g>
		</g>
	</g>
</g>
<g>
	<defs>
		<rect id="SVGID_5_" x="160" y="4" width="49" height="45.508"/>
	</defs>
	<clipPath id="SVGID_6_">
		<use xlink:href="#SVGID_5_"  overflow="visible"/>
	</clipPath>
	<g id="icons_2_" clip-path="url(#SVGID_6_)">
		<g id="Group_2_">
			<g id="Group_2_2_">
				<g id="Group_3_2_">
					<g id="Group_4_2_">
						<path id="Vector_2_" fill="#767676" d="M175.446,23.954c-3.677,0-6.665-2.989-6.665-6.665s2.988-6.666,6.665-6.666
							s6.665,2.989,6.665,6.666S179.123,23.954,175.446,23.954z M175.446,12.09c-2.867,0-5.198,2.331-5.198,5.198
							s2.331,5.198,5.198,5.198c2.868,0,5.198-2.331,5.198-5.198S178.314,12.09,175.446,12.09z"/>
						<path id="Vector_2_2_" fill="#767676" d="M162.674,45.92c-0.406,0-0.733-0.327-0.733-0.734V33.994
							c0-5.17,4.204-9.378,9.378-9.378h8.254c5.172,0,9.377,4.204,9.377,9.378V44c0,0.406-0.326,0.733-0.733,0.733
							s-0.733-0.327-0.733-0.733V33.994c0-4.36-3.551-7.911-7.91-7.911h-8.254c-4.36,0-7.91,3.546-7.91,7.911v11.191
							C163.408,45.593,163.08,45.92,162.674,45.92z"/>
					</g>
					<path id="Vector_3_2_" fill="#767676" d="M169.293,42.356c-0.406,0-0.733-0.327-0.733-0.733V34.51
						c0-0.407,0.327-0.734,0.733-0.734s0.734,0.327,0.734,0.734v7.113C170.027,42.029,169.699,42.356,169.293,42.356z"/>
					<path id="Vector_4_2_" fill="#767676" d="M175.078,49.395h-8.975c-2.298,0-4.163-1.869-4.163-4.162
						c0-0.406,0.327-0.734,0.733-0.734s0.734,0.328,0.734,0.734c0,1.488,1.211,2.695,2.695,2.695h8.971
						c1.488,0,2.695-1.211,2.695-2.695s-1.212-2.695-2.695-2.695h-5.936c-0.407,0-0.734-0.327-0.734-0.734
						c0-0.406,0.327-0.733,0.734-0.733h5.936c2.297,0,4.162,1.87,4.162,4.163s-1.869,4.162-4.162,4.162H175.078z"/>
				</g>
				<g id="Group_5_2_">
					<g id="Group_6_1_">
						<path id="Vector_5_2_" fill="#FFDB9F" d="M199.283,48.774h-19.007l6.334-17.526h19.007L199.283,48.774z"/>
						<path id="Vector_6_2_" fill="#767676" d="M199.283,49.508h-21.748c-0.239,0-0.461-0.117-0.6-0.311
							c-0.139-0.196-0.172-0.443-0.088-0.67L183.182,31c0.104-0.289,0.381-0.486,0.691-0.486h21.748c0.238,0,0.461,0.117,0.6,0.311
							c0.139,0.197,0.172,0.444,0.088,0.671l-6.334,17.526C199.869,49.311,199.593,49.508,199.283,49.508z M178.578,48.041h20.189
							l5.806-16.06h-20.188L178.578,48.041z"/>
					</g>
					<path id="Vector_7_2_" fill="#767676" d="M193.288,43.309c-0.348,0-0.683-0.072-0.993-0.215
						c-0.684-0.314-1.191-0.955-1.384-1.76c-0.185-0.755-0.088-1.589,0.261-2.352c0.569-1.236,1.693-2.037,2.858-2.037
						c0.348,0,0.683,0.07,0.993,0.213c1.371,0.633,1.874,2.478,1.123,4.113C195.576,42.508,194.453,43.309,193.288,43.309z
						 M194.03,38.408c-0.579,0-1.208,0.486-1.526,1.186c-0.209,0.457-0.271,0.969-0.168,1.393c0.051,0.213,0.197,0.599,0.574,0.775
						c0.621,0.285,1.514-0.244,1.908-1.104c0.406-0.889,0.223-1.877-0.402-2.166c-0.117-0.055-0.248-0.08-0.382-0.08L194.03,38.408z
						"/>
				</g>
			</g>
			<path id="Vector_8_2_" fill="#767676" d="M177.841,49.508h-17.107c-0.406,0-0.733-0.326-0.733-0.733
				c0-0.406,0.327-0.733,0.733-0.733h17.107c0.407,0,0.733,0.327,0.733,0.733C178.574,49.182,178.248,49.508,177.841,49.508z"/>
		</g>
	</g>
</g>
<g>
	<defs>
		<rect id="SVGID_7_" x="246" y="5.5" width="37" height="42.72"/>
	</defs>
	<clipPath id="SVGID_8_">
		<use xlink:href="#SVGID_7_"  overflow="visible"/>
	</clipPath>
	<g id="icons_3_" clip-path="url(#SVGID_8_)">
		<g id="Group_3_">
			<g id="Group_2_3_">
				<g id="Group_3_3_">
					<path id="Vector_3_" fill="#767676" d="M246.64,45.241c-0.354,0-0.64-0.285-0.64-0.64V9.089c0-1.977,1.611-3.589,3.589-3.589
						h32.771c0.354,0,0.64,0.285,0.64,0.64v35.509c0,0.354-0.285,0.64-0.64,0.64h-32.771c-1.275,0-2.31,1.038-2.31,2.31
						c0,0.354-0.285,0.64-0.64,0.64V45.241z M249.589,6.779c-1.275,0-2.31,1.038-2.31,2.31v32.765
						c0.625-0.527,1.433-0.845,2.31-0.845h32.132V6.779H249.589z"/>
					<path id="Vector_2_3_" fill="#767676" d="M282.36,48.22h-32.771c-1.981,0-3.589-1.612-3.589-3.589
						c0-1.978,1.611-3.618,3.589-3.618h32.771c0.354,0,0.64,0.285,0.64,0.64s-0.273,0.632-0.617,0.643
						c-1.254,0.041-2.233,1.053-2.233,2.307s0.979,2.291,2.233,2.335c0.344,0.011,0.617,0.292,0.617,0.64
						S282.715,48.22,282.36,48.22z M249.589,42.288c-1.275,0-2.31,1.038-2.31,2.31s1.037,2.339,2.31,2.339h30.114
						c-0.522-0.624-0.836-1.429-0.836-2.31s0.313-1.711,0.84-2.339H249.589z"/>
				</g>
				<path id="Vector_3_3_" fill="#767676" d="M275.639,45.186h-24.149c-0.354,0-0.64-0.284-0.64-0.639s0.285-0.64,0.64-0.64h24.149
					c0.355,0,0.641,0.285,0.641,0.64S275.994,45.186,275.639,45.186z"/>
			</g>
			<path id="Vector_4_3_" fill="#767676" d="M251.369,39.982c-0.354,0-0.64-0.285-0.64-0.641V6.633c0-0.354,0.285-0.64,0.64-0.64
				s0.64,0.285,0.64,0.64v32.709C252.009,39.697,251.724,39.982,251.369,39.982z"/>
		</g>
		<g id="Group_4_3_">
			<path id="Vector_5_3_" fill="#FFDB9F" d="M277.5,11.201h-21.197v7.127H277.5V11.201z"/>
			<path id="Vector_6_3_" fill="#767676" d="M277.5,18.968h-21.197c-0.354,0-0.64-0.285-0.64-0.64v-7.127
				c0-0.354,0.285-0.64,0.64-0.64H277.5c0.354,0,0.639,0.285,0.639,0.64v7.127C278.139,18.683,277.854,18.968,277.5,18.968z
				 M256.942,17.688h19.918v-5.848h-19.918V17.688z"/>
		</g>
		<path id="Vector_7_3_" fill="#767676" d="M274.576,30.114h-15.35c-0.354,0-0.64-0.285-0.64-0.64s0.285-0.64,0.64-0.64h15.35
			c0.354,0,0.64,0.285,0.64,0.64S274.931,30.114,274.576,30.114z"/>
		<path id="Vector_8_3_" fill="#767676" d="M276.586,33.77h-19.37c-0.354,0-0.64-0.285-0.64-0.641c0-0.354,0.285-0.639,0.64-0.639
			h19.37c0.354,0,0.639,0.285,0.639,0.639C277.225,33.484,276.939,33.77,276.586,33.77z"/>
		<path id="Vector_9_2_" fill="#767676" d="M274.576,37.424h-15.35c-0.354,0-0.64-0.285-0.64-0.64s0.285-0.64,0.64-0.64h15.35
			c0.354,0,0.64,0.285,0.64,0.64S274.931,37.424,274.576,37.424z"/>
	</g>
</g>
<g>
	<defs>
		<rect id="SVGID_9_" y="80" width="49" height="54"/>
	</defs>
	<clipPath id="SVGID_10_">
		<use xlink:href="#SVGID_9_"  overflow="visible"/>
	</clipPath>
	<g id="icons_7_" clip-path="url(#SVGID_10_)">
		<path id="Vector_7_" fill="#FFDB9F" d="M36.354,104.143H12.646v2.771h23.707V104.143z"/>
		<path id="Vector_2_7_" fill="#FFDB9F" d="M35.123,118.154H13.882v10.777h21.241V118.154z"/>
		<g id="Group_7_">
			<g id="Group_2_7_">
				<g id="Group_3_7_">
					<path id="Vector_3_7_" fill="#E85B27" d="M24.502,92.936c-3.571,0-6.476-2.901-6.476-6.468S20.931,80,24.502,80
						c3.571,0,6.476,2.901,6.476,6.468S28.073,92.936,24.502,92.936z M24.502,81.617c-2.678,0-4.857,2.176-4.857,4.851
						s2.179,4.851,4.857,4.851s4.857-2.176,4.857-4.851S27.181,81.617,24.502,81.617z"/>
					<path id="Vector_4_7_" fill="#E85B27" d="M36.7,107.728c-0.448,0-0.81-0.36-0.81-0.809v-4.518c0-4.103-3.34-7.438-7.447-7.438
						h-7.887c-4.107,0-7.447,3.336-7.447,7.438v4.518c0,0.448-0.361,0.809-0.81,0.809s-0.81-0.36-0.81-0.809v-4.518
						c0-4.994,4.066-9.056,9.066-9.056h7.887c5,0,9.066,4.062,9.066,9.056v4.518C37.51,107.367,37.148,107.728,36.7,107.728z"/>
				</g>
				<g id="Group_4_7_">
					<path id="Vector_5_7_" fill="#E85B27" d="M17.11,107.728c-0.449,0-0.81-0.36-0.81-0.809v-4.023c0-0.448,0.361-0.809,0.81-0.809
						s0.81,0.36,0.81,0.809v4.023C17.92,107.367,17.559,107.728,17.11,107.728z"/>
					<path id="Vector_6_7_" fill="#E85B27" d="M31.895,107.728c-0.449,0-0.81-0.36-0.81-0.809v-4.023c0-0.448,0.36-0.809,0.81-0.809
						s0.81,0.36,0.81,0.809v4.023C32.704,107.367,32.344,107.728,31.895,107.728z"/>
				</g>
			</g>
			<path id="Vector_7_7_" fill="#E85B27" d="M39.998,134H9.002c-0.449,0-0.81-0.36-0.81-0.809v-19.551
				c0-0.447,0.361-0.809,0.81-0.809h30.996c0.449,0,0.811,0.361,0.811,0.809v19.551C40.809,133.64,40.447,134,39.998,134z
				 M9.812,132.383h29.378v-17.934H9.812V132.383z"/>
			<path id="Vector_8_7_" fill="#E85B27" d="M43.314,121.573h-2.941c-0.449,0-0.81-0.36-0.81-0.809s0.36-0.809,0.81-0.809h2.373
				l4.293-11.929H1.961l4.293,11.929h2.1c0.448,0,0.809,0.36,0.809,0.809s-0.361,0.809-0.809,0.809H5.685
				c-0.342,0-0.647-0.213-0.763-0.536l-4.875-13.541c-0.088-0.249-0.051-0.521,0.097-0.738c0.153-0.217,0.398-0.342,0.662-0.342
				h47.381c0.264,0,0.509,0.129,0.662,0.342c0.152,0.217,0.189,0.489,0.097,0.738l-4.876,13.545
				c-0.115,0.324-0.42,0.537-0.763,0.537L43.314,121.573z"/>
			<g id="Group_5_5_">
				<path id="Vector_9_5_" fill="#E85B27" d="M5.564,107.261c-0.449,0-0.81-0.36-0.81-0.808v-9.758c0-0.212,0.083-0.42,0.236-0.572
					l5.144-5.137c0.314-0.314,0.828-0.314,1.142,0c0.315,0.313,0.315,0.826,0,1.141l-4.908,4.901v9.425
					c0,0.447-0.361,0.808-0.81,0.808H5.564z"/>
				<path id="Vector_10_3_" fill="#E85B27" d="M43.435,107.261c-0.448,0-0.81-0.36-0.81-0.808v-9.425l-4.908-4.901
					c-0.314-0.314-0.314-0.827,0-1.141c0.314-0.314,0.828-0.314,1.143,0l5.145,5.137c0.152,0.152,0.236,0.355,0.236,0.572v9.758
					c0,0.447-0.361,0.808-0.811,0.808H43.435z"/>
			</g>
		</g>
	</g>
</g>
<g>
	<defs>
		<rect id="SVGID_11_" x="80" y="80.5" width="49" height="52.717"/>
	</defs>
	<clipPath id="SVGID_12_">
		<use xlink:href="#SVGID_11_"  overflow="visible"/>
	</clipPath>
	<path id="Vector_6_" clip-path="url(#SVGID_12_)" fill="#E85B27" d="M112.286,102.852H95.148c-0.438,0-0.789-0.352-0.789-0.789
		s0.352-0.79,0.789-0.79h17.138c0.438,0,0.789,0.353,0.789,0.79S112.724,102.852,112.286,102.852z"/>
	<path id="Vector_2_6_" clip-path="url(#SVGID_12_)" fill="#E85B27" d="M114.541,108.037H92.894c-0.437,0-0.789-0.352-0.789-0.789
		s0.353-0.789,0.789-0.789h21.647c0.438,0,0.789,0.352,0.789,0.789S114.979,108.037,114.541,108.037z"/>
	<path id="Vector_3_6_" clip-path="url(#SVGID_12_)" fill="#E85B27" d="M114.541,113.224H92.894c-0.437,0-0.789-0.352-0.789-0.789
		s0.353-0.789,0.789-0.789h21.647c0.438,0,0.789,0.352,0.789,0.789S114.979,113.224,114.541,113.224z"/>
	<path id="Vector_4_6_" clip-path="url(#SVGID_12_)" fill="#E85B27" d="M110.031,118.41H97.403c-0.438,0-0.789-0.352-0.789-0.789
		s0.352-0.789,0.789-0.789h12.628c0.438,0,0.789,0.352,0.789,0.789S110.469,118.41,110.031,118.41z"/>
	<path id="Vector_5_6_" clip-path="url(#SVGID_12_)" fill="#E85B27" d="M107.687,123.597h-7.938c-0.438,0-0.789-0.353-0.789-0.79
		s0.352-0.789,0.789-0.789h7.938c0.438,0,0.789,0.352,0.789,0.789S108.124,123.597,107.687,123.597z"/>
	<path id="Vector_6_6_" clip-path="url(#SVGID_12_)" fill="#E85B27" d="M119.295,129.464H94.757c-0.438,0-0.789-0.352-0.789-0.789
		s0.352-0.789,0.789-0.789h23.749V94.72H88.93v31.163c0,0.438-0.352,0.789-0.789,0.789s-0.789-0.352-0.789-0.789V93.931
		c0-0.438,0.352-0.79,0.789-0.79h31.154c0.438,0,0.789,0.353,0.789,0.79v34.749c0,0.438-0.352,0.789-0.789,0.789V129.464z"/>
	<g id="Group_6_" clip-path="url(#SVGID_12_)">
		<g id="Group_2_6_">
			<path id="Vector_7_6_" fill="#E85B27" d="M113.612,94.49c-0.104,0-0.212-0.023-0.307-0.063l-14.599-6.206
				c-0.293-0.121-0.482-0.41-0.482-0.726s0.189-0.604,0.482-0.727l14.594-6.206c0.199-0.085,0.42-0.085,0.618,0l14.599,6.206
				c0.293,0.122,0.482,0.411,0.482,0.727s-0.189,0.604-0.482,0.726l-14.599,6.206C113.82,94.467,113.717,94.49,113.612,94.49z
				 M101.029,87.495l12.583,5.349l12.583-5.349l-12.583-5.349L101.029,87.495z"/>
			<g id="Group_3_6_">
				<path id="Vector_8_6_" fill="#FFDB9F" d="M113.612,93.701l-8.93-3.793v6.484c2.499,1.078,5.583,1.714,8.93,1.714
					s6.431-0.636,8.93-1.714v-6.484L113.612,93.701z"/>
				<path id="Vector_9_4_" fill="#E85B27" d="M113.612,98.896c-3.347,0-6.544-0.613-9.241-1.777
					c-0.288-0.127-0.478-0.41-0.478-0.727v-6.484c0-0.267,0.131-0.515,0.352-0.659c0.222-0.144,0.501-0.171,0.745-0.067l8.617,3.662
					l8.619-3.662c0.243-0.104,0.523-0.076,0.744,0.067c0.221,0.145,0.352,0.393,0.352,0.659v6.484c0,0.316-0.189,0.6-0.479,0.727
					c-2.697,1.164-5.895,1.777-9.24,1.777H113.612z M105.473,95.865c2.398,0.951,5.199,1.452,8.14,1.452s5.737-0.501,8.141-1.452
					v-4.763l-7.829,3.329c-0.199,0.085-0.42,0.085-0.618,0l-7.829-3.329v4.763H105.473z"/>
			</g>
		</g>
		<path id="Vector_10_2_" fill="#E85B27" d="M125.307,96.172c-0.438,0-0.789-0.352-0.789-0.789v-6.084
			c0-0.438,0.352-0.789,0.789-0.789s0.789,0.352,0.789,0.789v6.084C126.096,95.82,125.744,96.172,125.307,96.172z"/>
	</g>
	<g id="Group_4_6_" clip-path="url(#SVGID_12_)">
		<path id="Vector_11_1_" fill="#E85B27" d="M92.059,133.217c-0.121,0-0.238-0.027-0.352-0.082l-4.617-2.291l-4.619,2.291
			c-0.243,0.122-0.536,0.108-0.766-0.036c-0.23-0.144-0.375-0.396-0.375-0.672v-8.979c0-0.438,0.352-0.789,0.789-0.789
			s0.789,0.352,0.789,0.789v7.708l3.829-1.899c0.222-0.107,0.483-0.107,0.704,0l3.828,1.899v-7.708c0-0.438,0.352-0.789,0.789-0.789
			s0.789,0.352,0.789,0.789v8.979c0,0.275-0.139,0.528-0.373,0.672C92.348,133.176,92.203,133.217,92.059,133.217z"/>
		<g id="Group_5_4_">
			<g id="Group_6_3_">
				<path id="Vector_12_1_" fill="#FFDB9F" d="M93.398,121.152c0-3.482-2.822-6.305-6.305-6.305c-3.481,0-6.305,2.822-6.305,6.305
					c0,3.481,2.823,6.305,6.305,6.305C90.576,127.457,93.398,124.634,93.398,121.152z"/>
				<path id="Vector_13_1_" fill="#E85B27" d="M87.094,128.246c-3.91,0-7.094-3.184-7.094-7.094s3.184-7.094,7.094-7.094
					s7.094,3.184,7.094,7.094S91.004,128.246,87.094,128.246z M87.094,115.637c-3.039,0-5.516,2.476-5.516,5.516
					c0,3.039,2.477,5.516,5.516,5.516c3.04,0,5.516-2.477,5.516-5.516C92.609,118.112,90.134,115.637,87.094,115.637z"/>
			</g>
			<g id="Group_7_1_">
				<path id="Vector_14_1_" fill="#FFDB9F" d="M90.563,121.152c0-1.917-1.552-3.469-3.469-3.469c-1.916,0-3.468,1.552-3.468,3.469
					c0,1.916,1.556,3.468,3.468,3.468S90.563,123.068,90.563,121.152z"/>
				<path id="Vector_15_1_" fill="#E85B27" d="M87.094,125.414c-2.35,0-4.257-1.912-4.257-4.258c0-2.345,1.912-4.257,4.257-4.257
					c2.346,0,4.258,1.912,4.258,4.257C91.352,123.502,89.439,125.414,87.094,125.414z M87.094,118.473
					c-1.479,0-2.678,1.205-2.678,2.68s1.203,2.679,2.678,2.679s2.68-1.204,2.68-2.679S88.568,118.473,87.094,118.473z"/>
			</g>
		</g>
	</g>
</g>
<g>
	<defs>
		<rect id="SVGID_13_" x="160" y="84" width="49" height="45.508"/>
	</defs>
	<clipPath id="SVGID_14_">
		<use xlink:href="#SVGID_13_"  overflow="visible"/>
	</clipPath>
	<g id="icons_5_" clip-path="url(#SVGID_14_)">
		<g id="Group_5_">
			<g id="Group_2_5_">
				<g id="Group_3_5_">
					<g id="Group_4_5_">
						<path id="Vector_5_" fill="#E85B27" d="M175.446,103.953c-3.677,0-6.665-2.988-6.665-6.664c0-3.677,2.988-6.666,6.665-6.666
							s6.665,2.989,6.665,6.666C182.111,100.965,179.123,103.953,175.446,103.953z M175.446,92.09c-2.867,0-5.198,2.332-5.198,5.199
							s2.331,5.197,5.198,5.197c2.868,0,5.198-2.33,5.198-5.197S178.314,92.09,175.446,92.09z"/>
						<path id="Vector_2_5_" fill="#E85B27" d="M162.674,125.92c-0.406,0-0.733-0.327-0.733-0.734v-11.191
							c0-5.17,4.204-9.378,9.378-9.378h8.254c5.172,0,9.377,4.204,9.377,9.378V124c0,0.406-0.326,0.733-0.733,0.733
							s-0.733-0.327-0.733-0.733v-10.006c0-4.36-3.551-7.91-7.91-7.91h-8.254c-4.36,0-7.91,3.546-7.91,7.91v11.191
							C163.408,125.593,163.08,125.92,162.674,125.92z"/>
					</g>
					<path id="Vector_3_5_" fill="#E85B27" d="M169.293,122.356c-0.406,0-0.733-0.327-0.733-0.733v-7.113
						c0-0.407,0.327-0.734,0.733-0.734s0.734,0.327,0.734,0.734v7.113C170.027,122.029,169.699,122.356,169.293,122.356z"/>
					<path id="Vector_4_5_" fill="#E85B27" d="M175.078,129.395h-8.975c-2.298,0-4.163-1.869-4.163-4.162
						c0-0.406,0.327-0.734,0.733-0.734s0.734,0.328,0.734,0.734c0,1.488,1.211,2.695,2.695,2.695h8.971
						c1.488,0,2.695-1.211,2.695-2.695s-1.212-2.695-2.695-2.695h-5.936c-0.407,0-0.734-0.327-0.734-0.734
						c0-0.406,0.327-0.733,0.734-0.733h5.936c2.297,0,4.162,1.87,4.162,4.163s-1.869,4.162-4.162,4.162H175.078z"/>
				</g>
				<g id="Group_5_3_">
					<g id="Group_6_2_">
						<path id="Vector_5_5_" fill="#FFDB9F" d="M199.283,128.774h-19.007l6.334-17.526h19.007L199.283,128.774z"/>
						<path id="Vector_6_5_" fill="#E85B27" d="M199.283,129.508h-21.748c-0.239,0-0.461-0.117-0.6-0.311
							c-0.139-0.196-0.172-0.443-0.088-0.67L183.182,111c0.104-0.289,0.381-0.486,0.691-0.486h21.748c0.238,0,0.461,0.117,0.6,0.311
							c0.139,0.197,0.172,0.444,0.088,0.671l-6.334,17.526C199.869,129.311,199.593,129.508,199.283,129.508z M178.578,128.041
							h20.189l5.806-16.06h-20.188L178.578,128.041z"/>
					</g>
					<path id="Vector_7_5_" fill="#E85B27" d="M193.288,123.309c-0.348,0-0.683-0.072-0.993-0.215
						c-0.684-0.314-1.191-0.955-1.384-1.76c-0.185-0.755-0.088-1.589,0.261-2.352c0.569-1.236,1.693-2.037,2.858-2.037
						c0.348,0,0.683,0.07,0.993,0.213c1.371,0.633,1.874,2.478,1.123,4.113C195.576,122.508,194.453,123.309,193.288,123.309z
						 M194.03,118.408c-0.579,0-1.208,0.486-1.526,1.186c-0.209,0.457-0.271,0.969-0.168,1.393c0.051,0.213,0.197,0.599,0.574,0.775
						c0.621,0.285,1.514-0.244,1.908-1.104c0.406-0.889,0.223-1.877-0.402-2.166c-0.117-0.055-0.248-0.08-0.382-0.08L194.03,118.408
						z"/>
				</g>
			</g>
			<path id="Vector_8_5_" fill="#E85B27" d="M177.841,129.508h-17.107c-0.406,0-0.733-0.326-0.733-0.733
				c0-0.406,0.327-0.733,0.733-0.733h17.107c0.407,0,0.733,0.327,0.733,0.733C178.574,129.182,178.248,129.508,177.841,129.508z"/>
		</g>
	</g>
</g>
<g>
	<defs>
		<rect id="SVGID_15_" x="246" y="85.5" width="37" height="42.72"/>
	</defs>
	<clipPath id="SVGID_16_">
		<use xlink:href="#SVGID_15_"  overflow="visible"/>
	</clipPath>
	<g id="icons_4_" clip-path="url(#SVGID_16_)">
		<g id="Group_4_">
			<g id="Group_2_4_">
				<g id="Group_3_4_">
					<path id="Vector_4_" fill="#E85B27" d="M246.64,125.241c-0.354,0-0.64-0.285-0.64-0.64V89.089c0-1.978,1.611-3.589,3.589-3.589
						h32.771c0.354,0,0.64,0.285,0.64,0.64v35.509c0,0.354-0.285,0.64-0.64,0.64h-32.771c-1.275,0-2.31,1.038-2.31,2.31
						c0,0.354-0.285,0.64-0.64,0.64V125.241z M249.589,86.779c-1.275,0-2.31,1.037-2.31,2.31v32.765
						c0.625-0.527,1.433-0.845,2.31-0.845h32.132V86.779H249.589z"/>
					<path id="Vector_2_4_" fill="#E85B27" d="M282.36,128.22h-32.771c-1.981,0-3.589-1.612-3.589-3.589
						c0-1.978,1.611-3.618,3.589-3.618h32.771c0.354,0,0.64,0.285,0.64,0.64s-0.273,0.632-0.617,0.643
						c-1.254,0.041-2.233,1.053-2.233,2.307s0.979,2.291,2.233,2.335c0.344,0.011,0.617,0.292,0.617,0.64
						S282.715,128.22,282.36,128.22z M249.589,122.288c-1.275,0-2.31,1.038-2.31,2.31s1.037,2.339,2.31,2.339h30.114
						c-0.522-0.624-0.836-1.429-0.836-2.31s0.313-1.711,0.84-2.339H249.589z"/>
				</g>
				<path id="Vector_3_4_" fill="#E85B27" d="M275.639,125.186h-24.149c-0.354,0-0.64-0.284-0.64-0.639s0.285-0.64,0.64-0.64h24.149
					c0.355,0,0.641,0.285,0.641,0.64S275.994,125.186,275.639,125.186z"/>
			</g>
			<path id="Vector_4_4_" fill="#E85B27" d="M251.369,119.982c-0.354,0-0.64-0.285-0.64-0.641V86.633c0-0.354,0.285-0.64,0.64-0.64
				s0.64,0.285,0.64,0.64v32.709C252.009,119.697,251.724,119.982,251.369,119.982z"/>
		</g>
		<g id="Group_4_4_">
			<path id="Vector_5_4_" fill="#FFDB9F" d="M277.5,91.201h-21.197v7.127H277.5V91.201z"/>
			<path id="Vector_6_4_" fill="#E85B27" d="M277.5,98.968h-21.197c-0.354,0-0.64-0.285-0.64-0.64v-7.127
				c0-0.354,0.285-0.64,0.64-0.64H277.5c0.354,0,0.639,0.285,0.639,0.64v7.127C278.139,98.683,277.854,98.968,277.5,98.968z
				 M256.942,97.688h19.918v-5.848h-19.918V97.688z"/>
		</g>
		<path id="Vector_7_4_" fill="#E85B27" d="M274.576,110.114h-15.35c-0.354,0-0.64-0.285-0.64-0.64s0.285-0.64,0.64-0.64h15.35
			c0.354,0,0.64,0.285,0.64,0.64S274.931,110.114,274.576,110.114z"/>
		<path id="Vector_8_4_" fill="#E85B27" d="M276.586,113.77h-19.37c-0.354,0-0.64-0.285-0.64-0.641c0-0.354,0.285-0.639,0.64-0.639
			h19.37c0.354,0,0.639,0.285,0.639,0.639C277.225,113.484,276.939,113.77,276.586,113.77z"/>
		<path id="Vector_9_3_" fill="#E85B27" d="M274.576,117.424h-15.35c-0.354,0-0.64-0.285-0.64-0.64s0.285-0.64,0.64-0.64h15.35
			c0.354,0,0.64,0.285,0.64,0.64S274.931,117.424,274.576,117.424z"/>
	</g>
</g>
</svg>
