<svg width="33" height="34" viewBox="0 0 33 34" fill="none" xmlns="http://www.w3.org/2000/svg">
<g clip-path="url(#clip0_3174_16275)">
<path d="M19.3827 33.7992H16.4908C15.8942 33.7992 15.4082 33.3123 15.4082 32.7146V21.5017C15.4082 20.904 15.8942 20.4171 16.4908 20.4171C18.3722 20.4171 19.8975 18.8841 19.8975 17.004C19.8975 15.124 18.3674 13.591 16.4908 13.591C15.8942 13.591 15.4082 13.1041 15.4082 12.5064V1.28387C15.4082 0.686105 15.8942 0.199219 16.4908 0.199219H19.3827C19.9023 0.199219 20.3546 0.57041 20.4461 1.08622L21.0764 4.51853C22.4814 5.03916 23.8095 5.81047 24.9691 6.7746L28.2555 5.60318C28.7463 5.42964 29.2948 5.6321 29.5546 6.08524L32.4513 11.1084C32.7111 11.5615 32.6149 12.1352 32.2155 12.4774L29.5595 14.7431C29.6894 15.4904 29.7519 16.2472 29.7519 16.9944C29.7519 17.7416 29.6894 18.4984 29.5595 19.2456L32.2155 21.5162C32.6149 21.8536 32.7111 22.4321 32.4513 22.8852L29.5546 27.9084C29.2948 28.3615 28.7463 28.564 28.2555 28.3904L24.9691 27.219C23.8095 28.1831 22.4814 28.9545 21.0764 29.4751L20.4461 32.9074C20.3498 33.4232 19.9023 33.7944 19.3827 33.7944V33.7992ZM17.5735 31.6299H18.4829L19.0651 28.4627C19.1373 28.0675 19.426 27.7445 19.8061 27.624C21.3507 27.1371 22.8038 26.2983 24.0067 25.1895C24.3003 24.9147 24.7237 24.828 25.1038 24.9678L28.14 26.0476L30.1321 22.5912L27.6829 20.499C27.3798 20.2387 27.2402 19.8289 27.3268 19.4385C27.5049 18.6334 27.5963 17.8187 27.5963 17.0089C27.5963 16.199 27.5049 15.3843 27.3268 14.5792C27.2402 14.1888 27.3749 13.779 27.6829 13.5187L30.1321 11.4265L28.14 7.9653L25.1038 9.04513C24.7237 9.18011 24.3051 9.09334 24.0067 8.82338C22.8038 7.71463 21.3507 6.87583 19.8061 6.38895C19.4212 6.26843 19.1373 5.94545 19.0651 5.55015L18.4829 2.37816H17.5735V11.5326C20.1285 12.0388 22.0628 14.3045 22.0628 17.0089C22.0628 19.7133 20.1285 21.979 17.5735 22.4851V31.6347V31.6299Z" fill="white"/>
<path d="M11.4869 32.8633C10.8903 32.8633 10.4043 32.3764 10.4043 31.7787V2.21355C10.4043 1.61579 10.8903 1.12891 11.4869 1.12891C12.0836 1.12891 12.5696 1.61579 12.5696 2.21355V31.7787C12.5696 32.3764 12.0836 32.8633 11.4869 32.8633Z" fill="white"/>
<path d="M6.48303 27.5625C5.88637 27.5625 5.40039 27.0757 5.40039 26.4779V7.51824C5.40039 6.92048 5.88637 6.43359 6.48303 6.43359C7.07968 6.43359 7.56566 6.92048 7.56566 7.51824V26.4779C7.56566 27.0757 7.07968 27.5625 6.48303 27.5625Z" fill="white"/>
<path d="M1.48303 21.6543C0.886374 21.6543 0.400391 21.1674 0.400391 20.5696V13.4206C0.400391 12.8228 0.886374 12.3359 1.48303 12.3359C2.07968 12.3359 2.56566 12.8228 2.56566 13.4206V20.5696C2.56566 21.1674 2.07968 21.6543 1.48303 21.6543Z" fill="white"/>
</g>
<defs>
<clipPath id="clip0_3174_16275">
<rect width="32.2" height="33.6" fill="white" transform="translate(0.400391 0.199219)"/>
</clipPath>
</defs>
</svg>
