<svg width="48" height="42" viewBox="0 0 48 42" fill="none" xmlns="http://www.w3.org/2000/svg">
<g clip-path="url(#clip0_3055_15115)">
<path d="M32.0883 36.3809C23.6515 36.3809 16.792 29.4834 16.792 21C16.792 12.5166 23.6515 5.61914 32.0883 5.61914C40.5251 5.61914 47.3846 12.5166 47.3846 21C47.3846 29.4834 40.5251 36.3809 32.0883 36.3809ZM32.0883 8.69531C25.3375 8.69531 19.8513 14.2188 19.8513 21C19.8513 27.7812 25.3443 33.3047 32.0883 33.3047C38.8323 33.3047 44.3254 27.7812 44.3254 21C44.3254 14.2188 38.8323 8.69531 32.0883 8.69531Z" fill="white"/>
<path d="M32.088 36.3809C27.5739 36.3809 25.2148 28.6426 25.2148 21C25.2148 13.3574 27.5739 5.61914 32.088 5.61914C36.6021 5.61914 38.9611 13.3574 38.9611 21C38.9611 28.6426 36.6021 36.3809 32.088 36.3809ZM32.088 8.69531C30.7963 8.69531 28.2741 13.0361 28.2741 21C28.2741 28.9639 30.7963 33.3047 32.088 33.3047C33.3797 33.3047 35.9019 28.9639 35.9019 21C35.9019 13.0361 33.3797 8.69531 32.088 8.69531Z" fill="white"/>
<path d="M40.6542 17.8965H19.7289C18.8859 17.8965 18.1992 17.2061 18.1992 16.3584C18.1992 15.5107 18.8859 14.8203 19.7289 14.8203H40.6542C41.4972 14.8203 42.1839 15.5107 42.1839 16.3584C42.1839 17.2061 41.4972 17.8965 40.6542 17.8965Z" fill="white"/>
<path d="M44.4413 27.1797H23.516C22.673 27.1797 21.9863 26.4893 21.9863 25.6416C21.9863 24.7939 22.673 24.1035 23.516 24.1035H44.4413C45.2843 24.1035 45.971 24.7939 45.971 25.6416C45.971 26.4893 45.2843 27.1797 44.4413 27.1797Z" fill="white"/>
<path d="M13.42 16.0513H6.08454C5.24154 16.0513 4.55491 15.3609 4.55491 14.5132C4.55491 13.6656 5.24154 12.9751 6.08454 12.9751H11.8903V5.25053L2.61057 14.5816C2.01232 15.1831 1.04695 15.1831 0.448692 14.5816C-0.149564 13.98 -0.149564 13.0093 0.448692 12.4078L12.339 0.451698C12.7741 0.014198 13.4336 -0.122521 14.0046 0.116737C14.5757 0.355995 14.9496 0.916542 14.9496 1.53861V14.5132C14.9496 15.3609 14.263 16.0513 13.42 16.0513Z" fill="white"/>
<path d="M33.4072 42.001H1.52963C0.686635 42.001 0 41.3105 0 40.4629V13.4951C0 12.6475 0.686635 11.957 1.52963 11.957C2.37263 11.957 3.05927 12.6475 3.05927 13.4951V38.9248H33.4072C34.2502 38.9248 34.9368 39.6152 34.9368 40.4629C34.9368 41.3105 34.2502 42.001 33.4072 42.001Z" fill="white"/>
<path d="M33.4075 3.07617H13.4203C12.5773 3.07617 11.8906 2.38574 11.8906 1.53809C11.8906 0.69043 12.5773 0 13.4203 0H33.4075C34.2505 0 34.9371 0.69043 34.9371 1.53809C34.9371 2.38574 34.2505 3.07617 33.4075 3.07617Z" fill="white"/>
</g>
<defs>
<clipPath id="clip0_3055_15115">
<rect width="47.3846" height="42" fill="white"/>
</clipPath>
</defs>
</svg>
