<svg width="64" height="46" viewBox="0 0 64 46" fill="none" xmlns="http://www.w3.org/2000/svg">
<g clip-path="url(#clip0_3055_15103)">
<path d="M15.2789 33.1847C14.9 33.1847 14.5129 33.1356 14.134 33.0372C12.9973 32.7341 12.0419 32.0048 11.4571 30.9888C10.864 29.9728 10.7075 28.7929 11.0123 27.6621C11.317 26.5314 12.0501 25.5809 13.0715 24.9991L20.8058 20.5581C21.5966 20.1074 22.6015 20.3778 23.0545 21.1562C23.5075 21.9428 23.2357 22.9425 22.4532 23.3931L14.7188 27.8342C14.4635 27.9817 14.2741 28.2193 14.1999 28.5061C14.1258 28.7929 14.1587 29.096 14.3152 29.35C14.4635 29.604 14.7024 29.7925 14.9907 29.8662C15.2789 29.94 15.5837 29.9072 15.839 29.7515L25.4596 23.9585C26.2421 23.4915 27.247 23.7373 27.7248 24.5157C28.1943 25.2941 27.9472 26.2937 27.1647 26.769L17.5111 32.5784C16.811 32.9799 16.045 33.1847 15.2789 33.1847Z" fill="white"/>
<path d="M16.2019 39.0028C14.6698 39.0028 13.1955 38.2162 12.38 36.8151C11.161 34.7174 11.8858 32.0299 13.9944 30.8172L25.4601 23.959C26.2426 23.4919 27.2557 23.7459 27.7169 24.5162C28.1864 25.2946 27.9311 26.3024 27.1568 26.7613L15.6665 33.6277C15.1064 33.9472 14.9252 34.6273 15.2299 35.1599C15.5347 35.6925 16.2266 35.8728 16.7538 35.5696L28.2194 28.7196C29.0019 28.2525 30.015 28.5065 30.4763 29.2768C30.9458 30.0552 30.6904 31.063 29.9162 31.5219L18.4258 38.3883C17.7175 38.7898 16.9514 38.9864 16.1936 38.9864L16.2019 39.0028Z" fill="white"/>
<path d="M20.8063 42.7149C20.4274 42.7149 20.0403 42.6657 19.6614 42.5674C18.5247 42.2642 17.5692 41.535 16.9844 40.519C16.3914 39.5029 16.2349 38.323 16.5396 37.1923C16.8444 36.0615 17.5775 35.111 18.5988 34.5293L28.2194 28.7363C28.9937 28.2692 30.0068 28.515 30.4845 29.2934C30.954 30.0637 30.7069 31.0715 29.9244 31.5467L20.2709 37.3561C19.9826 37.52 19.8014 37.7576 19.719 38.0444C19.6449 38.3312 19.6778 38.6344 19.8343 38.8884C19.9826 39.1424 20.2215 39.3308 20.5098 39.4046C20.798 39.4783 21.0946 39.4456 21.3582 39.2899L30.9787 33.4969C31.7612 33.0298 32.7661 33.2756 33.2439 34.054C33.7134 34.8325 33.4663 35.8321 32.6838 36.3073L23.0302 42.1167C22.3301 42.5182 21.5641 42.7231 20.798 42.7231L20.8063 42.7149Z" fill="white"/>
<path d="M26.1602 45.9991C24.6364 45.9991 23.1456 45.2125 22.3301 43.8032C21.7371 42.7871 21.5806 41.6072 21.8853 40.4765C22.1901 39.3457 22.9232 38.3953 23.9445 37.8135L30.9788 33.5036C31.753 33.0283 32.7661 33.2659 33.2439 34.0362C33.7216 34.8064 33.4827 35.8142 32.7085 36.2894L25.6331 40.6158C25.3365 40.7878 25.1471 41.0255 25.073 41.3122C24.9988 41.599 25.0318 41.9022 25.1883 42.1562C25.493 42.6888 26.1849 42.8691 26.7121 42.5659L49.4292 29.5214C49.5033 29.4804 52.4439 27.8744 54.1571 24.5068C54.569 23.6956 55.5574 23.376 56.3728 23.7857C57.1883 24.1954 57.5095 25.1787 57.0977 25.9898C54.8985 30.3162 51.1837 32.3073 51.0272 32.3892L28.3595 45.4091C27.6676 45.8106 26.9098 45.9991 26.1602 45.9991Z" fill="white"/>
<path d="M56.7023 27.9002C56.5623 27.9002 56.414 27.8838 56.274 27.8428C55.8539 27.7281 55.4915 27.4577 55.2773 27.0808L42.8727 5.70319C42.4197 4.91659 42.6915 3.91694 43.474 3.46629L49.1244 0.22154C49.5033 0.000307148 49.9481 -0.0570495 50.3764 0.0576638C50.7965 0.172377 51.1589 0.442772 51.3731 0.819687L63.7777 22.1973C64.2308 22.9839 63.9589 23.9836 63.1764 24.4342L57.526 27.679C57.2706 27.8265 56.9906 27.9002 56.7023 27.9002ZM46.5463 5.48196L57.3036 24.0245L60.0959 22.4186L49.3386 3.87598L46.5463 5.48196Z" fill="white"/>
<path d="M7.29812 27.9002C7.00983 27.9002 6.72978 27.8265 6.47444 27.679L0.82399 24.4342C0.445096 24.213 0.173282 23.8607 0.0579664 23.4428C-0.0573489 23.0249 0.00030876 22.5742 0.222703 22.1973L12.6273 0.819687C12.8497 0.442772 13.2039 0.172377 13.624 0.0576638C14.0441 -0.0570495 14.4971 0.000307148 14.876 0.22154L20.5264 3.46629C21.3172 3.91694 21.5807 4.92478 21.1277 5.70319L8.72309 27.0808C8.5007 27.4577 8.14651 27.7281 7.72644 27.8428C7.58641 27.8838 7.44638 27.9002 7.29812 27.9002ZM3.89632 22.4186L6.6886 24.0245L17.4541 5.48196L14.6618 3.87598L3.89632 22.4186Z" fill="white"/>
<path d="M22.4867 22.8615C21.35 22.8615 20.1392 22.7222 18.8625 22.4108C17.9812 22.1978 17.4375 21.3047 17.6517 20.4279C17.8659 19.5512 18.7637 19.0104 19.645 19.2234C27.5112 21.1408 32.2226 14.4382 32.4121 14.1515C32.7992 13.5861 33.5076 13.3157 34.1747 13.4796L37.0988 14.2088C37.5436 14.2826 39.7922 14.5693 40.9783 12.9388L36.1763 10.0464C32.5686 8.43219 29.6774 8.23554 26.5227 9.39087C22.4043 10.8985 18.5578 9.23518 18.393 9.16144C17.5611 8.79272 17.1904 7.82585 17.5529 6.99828C17.9235 6.1707 18.8872 5.80198 19.7191 6.16251C19.785 6.19528 22.5608 7.34241 25.3778 6.31C29.3892 4.84331 33.1616 5.08093 37.6177 7.0966C37.6754 7.12118 37.733 7.15396 37.7907 7.18673L43.9354 10.8903C44.5696 11.2754 44.8744 12.0375 44.6602 12.7503C44.0671 14.7824 41.5796 18.3631 36.4481 17.4208C36.4152 17.4208 36.3822 17.4044 36.3493 17.3962L34.4136 16.9128C32.8239 18.7973 28.689 22.8451 22.4785 22.8451L22.4867 22.8615Z" fill="white"/>
</g>
<defs>
<clipPath id="clip0_3055_15103">
<rect width="64" height="46" fill="white"/>
</clipPath>
</defs>
</svg>
