<svg width="53" height="50" viewBox="0 0 53 50" fill="none" xmlns="http://www.w3.org/2000/svg">
<g id="icons" clip-path="url(#clip0_2924_3160)">
<g id="Group">
<path id="Vector" d="M11.7786 49.5001C5.28479 49.5001 0 44.2325 0 37.7598C0 31.2871 5.28479 26.0195 11.7786 26.0195C18.2725 26.0195 23.5648 31.2871 23.5648 37.7598C23.5648 44.2325 18.2801 49.5001 11.7786 49.5001ZM11.7786 29.4226C7.17059 29.4226 3.42181 33.1592 3.42181 37.7522C3.42181 42.3453 7.17059 46.0819 11.7786 46.0819C16.3867 46.0819 20.143 42.3453 20.143 37.7522C20.143 33.1592 16.3943 29.4226 11.7786 29.4226Z" fill="white"/>
<path id="Vector_2" d="M1.7109 39.465C0.768006 39.465 0 38.6995 0 37.7597V12.2403C0 5.76759 5.28479 0.5 11.7786 0.5C18.2725 0.5 23.5648 5.76759 23.5648 12.2403C23.5648 13.1801 22.7968 13.9456 21.8539 13.9456C20.911 13.9456 20.143 13.1801 20.143 12.2403C20.143 7.64725 16.3943 3.91067 11.7786 3.91067C7.16298 3.91067 3.42181 7.64725 3.42181 12.2403V37.7521C3.42181 38.692 2.6538 39.4575 1.7109 39.4575V39.465Z" fill="white"/>
</g>
<g id="Group_2">
<path id="Vector_3" d="M41.214 49.5001C34.7201 49.5001 29.4277 44.2325 29.4277 37.7598C29.4277 31.2871 34.7125 26.0195 41.214 26.0195C47.7154 26.0195 52.9926 31.2871 52.9926 37.7598C52.9926 44.2325 47.7078 49.5001 41.214 49.5001ZM41.214 29.4226C36.6059 29.4226 32.8495 33.1592 32.8495 37.7522C32.8495 42.3453 36.5983 46.0819 41.214 46.0819C45.8296 46.0819 49.5708 42.3453 49.5708 37.7522C49.5708 33.1592 45.822 29.4226 41.214 29.4226Z" fill="white"/>
<path id="Vector_4" d="M51.2895 39.465C50.3466 39.465 49.5786 38.6995 49.5786 37.7597V12.2403C49.5786 7.64725 45.8298 3.91067 41.2218 3.91067C36.6137 3.91067 32.8574 7.64725 32.8574 12.2403C32.8574 13.1801 32.0893 13.9456 31.1465 13.9456C30.2036 13.9456 29.4355 13.1801 29.4355 12.2403C29.4355 5.76759 34.7203 0.5 41.2218 0.5C47.7232 0.5 53.0004 5.76759 53.0004 12.2403V37.7521C53.0004 38.692 52.2324 39.4575 51.2895 39.4575V39.465Z" fill="white"/>
</g>
<path id="Vector_5" d="M30.1425 39.5552H22.8579C21.915 39.5552 21.147 38.7897 21.147 37.8499C21.147 36.91 21.915 36.1445 22.8579 36.1445H30.1425C31.0854 36.1445 31.8534 36.91 31.8534 37.8499C31.8534 38.7897 31.0854 39.5552 30.1425 39.5552Z" fill="white"/>
</g>
<defs>
<clipPath id="clip0_2924_3160">
<rect width="53" height="49" fill="white" transform="translate(0 0.5)"/>
</clipPath>
</defs>
</svg>
