<svg width="57" height="53" viewBox="0 0 57 53" fill="none" xmlns="http://www.w3.org/2000/svg">
<g id="icons" clip-path="url(#clip0_2924_3155)">
<path id="Vector" d="M13.011 52.4993H1.84003C0.825968 52.4993 0 51.6748 0 50.6625V18.2625C0 17.2503 0.825968 16.4258 1.84003 16.4258H13.011C14.0251 16.4258 14.8511 17.2503 14.8511 18.2625V50.6544C14.8511 51.6666 14.0251 52.4911 13.011 52.4911V52.4993ZM3.68006 48.8258H11.171V20.0993H3.68006V48.8176V48.8258Z" fill="white"/>
<path id="Vector_2" d="M43.997 50.5075H19.725C18.7109 50.5075 17.8849 49.683 17.8849 48.6707C17.8849 47.6585 18.7109 46.834 19.725 46.834H43.997C47.7834 46.834 48.3967 42.385 48.4212 42.1973C48.4294 42.1238 48.4458 42.0422 48.4621 41.9687L53.2298 23.7238C53.4343 22.4911 53.2626 21.5279 52.6983 20.7687C51.766 19.5115 49.9669 19.1197 49.5661 19.0381H29.4976C28.9578 19.0381 28.4426 18.8013 28.091 18.385C27.7393 17.9687 27.5921 17.4217 27.6821 16.8911L28.7452 10.785C29.0887 8.85848 29.1541 5.65032 28.2055 4.52379C28.0337 4.31154 27.8211 4.17277 27.3631 4.17277C25.8257 4.17277 24.768 5.6095 24.1901 8.48297C23.9693 9.60134 23.6831 10.9891 23.2987 12.5973C21.565 19.7483 16.0286 21.8544 13.338 21.9687C12.3321 21.9932 11.4653 21.2258 11.4244 20.2136C11.3835 19.2013 12.1604 18.3524 13.1745 18.3034C13.4116 18.2871 18.2284 17.9034 19.725 11.7401C20.093 10.2054 20.3547 8.91562 20.5836 7.77277C21.4669 3.40542 22.0475 0.515625 27.3631 0.515625C28.8515 0.515625 30.1191 1.09522 31.035 2.18909C33.4475 5.07073 32.4825 10.8013 32.368 11.4462L31.6811 15.3891H49.7052C49.7788 15.3891 49.8606 15.3891 49.9342 15.4054C50.3103 15.4544 53.6796 15.9442 55.6505 18.6054C56.8363 20.2054 57.2288 22.1646 56.8363 24.4422C56.8281 24.4911 56.82 24.5401 56.8036 24.5891L52.0441 42.8013C51.6515 45.5442 49.4925 50.5238 43.9888 50.5238L43.997 50.5075Z" fill="white"/>
</g>
<defs>
<clipPath id="clip0_2924_3155">
<rect width="57" height="52" fill="white" transform="translate(0 0.5)"/>
</clipPath>
</defs>
</svg>
