<svg width="36" height="31" viewBox="0 0 36 31" fill="none" xmlns="http://www.w3.org/2000/svg">
<g clip-path="url(#clip0_3174_16282)">
<path d="M21.0135 16.9797C16.3884 16.9797 12.6289 13.3079 12.6289 8.79064C12.6289 4.27339 16.3884 0.601562 21.0135 0.601562C25.6387 0.601562 29.3982 4.27339 29.3982 8.79064C29.3982 13.3079 25.6387 16.9797 21.0135 16.9797ZM21.0135 2.85268C17.6587 2.85268 14.9338 5.51901 14.9338 8.79064C14.9338 12.0623 17.6638 14.7286 21.0135 14.7286C24.3633 14.7286 27.0933 12.0623 27.0933 8.79064C27.0933 5.51901 24.3633 2.85268 21.0135 2.85268Z" fill="white"/>
<path d="M34.8486 30.7018H7.17978C6.54466 30.7018 6.02734 30.1965 6.02734 29.5762V25.9794C6.02734 21.4221 8.53198 17.15 12.5681 14.8389C13.1161 14.5237 13.823 14.7038 14.1456 15.2391C14.4683 15.7743 14.2839 16.4647 13.7359 16.7798C10.4066 18.6908 8.33222 22.2125 8.33222 25.9794V28.4506H33.6961V25.9794C33.6961 22.2125 31.6269 18.6908 28.2976 16.7798C27.7495 16.4647 27.5652 15.7743 27.8878 15.2391C28.2105 14.7038 28.9122 14.5237 29.4654 14.8389C33.4964 17.15 36.0061 21.4171 36.0061 25.9794V29.5762C36.0061 30.1965 35.4888 30.7018 34.8537 30.7018H34.8486Z" fill="white"/>
<path d="M10.2066 10.9777H1.45322C0.818098 10.9777 0.300781 10.4724 0.300781 9.85212C0.300781 9.23181 0.818098 8.72656 1.45322 8.72656H10.2066C10.8418 8.72656 11.3591 9.23181 11.3591 9.85212C11.3591 10.4724 10.8418 10.9777 10.2066 10.9777Z" fill="white"/>
<path d="M5.83213 15.2546C5.197 15.2546 4.67969 14.7494 4.67969 14.129V5.57478C4.67969 4.95447 5.197 4.44922 5.83213 4.44922C6.46725 4.44922 6.98457 4.95447 6.98457 5.57478V14.124C6.98457 14.7444 6.46725 15.2496 5.83213 15.2496V15.2546Z" fill="white"/>
</g>
<defs>
<clipPath id="clip0_3174_16282">
<rect width="35.7" height="30.1" fill="white" transform="translate(0.300781 0.601562)"/>
</clipPath>
</defs>
</svg>
