<svg width="40" height="38" viewBox="0 0 40 38" fill="none" xmlns="http://www.w3.org/2000/svg">
<g clip-path="url(#clip0_3174_16315)">
<path d="M35.6654 32.3981H4.63345C3.94852 32.3981 3.39062 31.8377 3.39062 31.1497V14.4163C3.39062 13.7283 3.94852 13.168 4.63345 13.168H35.6654C36.3504 13.168 36.9083 13.7283 36.9083 14.4163V31.1497C36.9083 31.8377 36.3504 32.3981 35.6654 32.3981ZM5.87628 29.9014H34.4226V15.6647H5.87628V29.9014Z" fill="white"/>
<path d="M38.1576 15.6647H2.14322C1.45828 15.6647 0.900391 15.1043 0.900391 14.4163C0.900391 13.7283 1.45828 13.168 2.14322 13.168H38.1576C38.8425 13.168 39.4004 13.7283 39.4004 14.4163C39.4004 15.1043 38.8425 15.6647 38.1576 15.6647Z" fill="white"/>
<path d="M35.6654 37.9029C34.9805 37.9029 34.4226 37.3425 34.4226 36.6545V32.399H5.87628V36.6545C5.87628 37.3425 5.31839 37.9029 4.63345 37.9029C3.94852 37.9029 3.39062 37.3425 3.39062 36.6545V31.1507C3.39062 30.4627 3.94852 29.9023 4.63345 29.9023H35.6654C36.3504 29.9023 36.9083 30.4627 36.9083 31.1507V36.6545C36.9083 37.3425 36.3504 37.9029 35.6654 37.9029Z" fill="white"/>
<path d="M24.9556 37.9029C24.2706 37.9029 23.7128 37.3425 23.7128 36.6545V32.399H16.5872V36.6545C16.5872 37.3425 16.0293 37.9029 15.3444 37.9029C14.6595 37.9029 14.1016 37.3425 14.1016 36.6545V31.1507C14.1016 30.4627 14.6595 29.9023 15.3444 29.9023H24.9556C25.6405 29.9023 26.1984 30.4627 26.1984 31.1507V36.6545C26.1984 37.3425 25.6405 37.9029 24.9556 37.9029Z" fill="white"/>
<path d="M26.922 14.5158C26.237 14.5158 25.6791 13.9555 25.6791 13.2675V3.58029C25.6791 3.03657 25.2428 2.59826 24.7015 2.59826H15.604C15.0626 2.59826 14.6263 3.03657 14.6263 3.58029C14.6263 4.26827 14.0684 4.82864 13.3835 4.82864C12.6985 4.82864 12.1406 4.26827 12.1406 3.58029C12.1406 1.66061 13.6928 0.101562 15.604 0.101562H24.7015C26.6126 0.101562 28.1648 1.66061 28.1648 3.58029V13.2675C28.1648 13.9555 27.6069 14.5158 26.922 14.5158Z" fill="white"/>
<path d="M12.6382 11.7545H2.14322C1.45828 11.7545 0.900391 11.1941 0.900391 10.5062C0.900391 9.81818 1.45828 9.25781 2.14322 9.25781H12.6382C13.3231 9.25781 13.881 9.81818 13.881 10.5062C13.881 11.1941 13.3231 11.7545 12.6382 11.7545Z" fill="white"/>
<path d="M12.6382 8.05139H2.14322C1.45828 8.05139 0.900391 7.49102 0.900391 6.80304C0.900391 6.11506 1.45828 5.55469 2.14322 5.55469H12.6382C13.3231 5.55469 13.881 6.11506 13.881 6.80304C13.881 7.49102 13.3231 8.05139 12.6382 8.05139Z" fill="white"/>
</g>
<defs>
<clipPath id="clip0_3174_16315">
<rect width="38.5" height="37.8" fill="white" transform="translate(0.900391 0.101562)"/>
</clipPath>
</defs>
</svg>
