<svg width="36" height="35" viewBox="0 0 36 35" fill="none" xmlns="http://www.w3.org/2000/svg">
<path d="M34.4688 13.7514C34.2479 13.7514 34.022 13.6856 33.8261 13.549L18.1051 2.52762L2.37895 13.549C1.8668 13.9083 1.16385 13.7817 0.807348 13.2656C0.450849 12.7494 0.576377 12.041 1.08853 11.6817L17.4573 0.204942C17.844 -0.0683141 18.3611 -0.0683141 18.7478 0.204942L35.1166 11.6767C35.6287 12.0359 35.7542 12.7444 35.3977 13.2605C35.1768 13.5793 34.8253 13.7514 34.4688 13.7514Z" fill="white"/>
<path d="M34.4738 34.9998H1.73619C1.11358 34.9998 0.606445 34.4887 0.606445 33.8612C0.606445 33.2337 1.11358 32.7227 1.73619 32.7227H34.4738C35.0964 32.7227 35.6035 33.2337 35.6035 33.8612C35.6035 34.4887 35.0964 34.9998 34.4738 34.9998Z" fill="white"/>
<path d="M5.27135 34.2807C4.64873 34.2807 4.1416 33.7696 4.1416 33.1421V16.6151C4.1416 15.9877 4.64873 15.4766 5.27135 15.4766C5.89397 15.4766 6.4011 15.9877 6.4011 16.6151V33.1421C6.4011 33.7696 5.89397 34.2807 5.27135 34.2807Z" fill="white"/>
<path d="M10.4022 34.2807C9.77959 34.2807 9.27246 33.7696 9.27246 33.1421V16.6151C9.27246 15.9877 9.77959 15.4766 10.4022 15.4766C11.0248 15.4766 11.532 15.9877 11.532 16.6151V33.1421C11.532 33.7696 11.0248 34.2807 10.4022 34.2807Z" fill="white"/>
<path d="M15.5389 34.2807C14.9163 34.2807 14.4092 33.7696 14.4092 33.1421V16.6151C14.4092 15.9877 14.9163 15.4766 15.5389 15.4766C16.1615 15.4766 16.6687 15.9877 16.6687 16.6151V33.1421C16.6687 33.7696 16.1615 34.2807 15.5389 34.2807Z" fill="white"/>
<path d="M20.6717 34.2807C20.0491 34.2807 19.542 33.7696 19.542 33.1421V16.6151C19.542 15.9877 20.0491 15.4766 20.6717 15.4766C21.2944 15.4766 21.8015 15.9877 21.8015 16.6151V33.1421C21.8015 33.7696 21.2944 34.2807 20.6717 34.2807Z" fill="white"/>
<path d="M25.8046 34.2807C25.1819 34.2807 24.6748 33.7696 24.6748 33.1421V16.6151C24.6748 15.9877 25.1819 15.4766 25.8046 15.4766C26.4272 15.4766 26.9343 15.9877 26.9343 16.6151V33.1421C26.9343 33.7696 26.4272 34.2807 25.8046 34.2807Z" fill="white"/>
<path d="M30.9354 34.2807C30.3128 34.2807 29.8057 33.7696 29.8057 33.1421V16.6151C29.8057 15.9877 30.3128 15.4766 30.9354 15.4766C31.558 15.4766 32.0652 15.9877 32.0652 16.6151V33.1421C32.0652 33.7696 31.558 34.2807 30.9354 34.2807Z" fill="white"/>
<path d="M32.9783 17.7498H3.23326C2.61065 17.7498 2.10352 17.2387 2.10352 16.6112C2.10352 15.9837 2.61065 15.4727 3.23326 15.4727H32.9783C33.6009 15.4727 34.108 15.9837 34.108 16.6112C34.108 17.2387 33.6009 17.7498 32.9783 17.7498Z" fill="white"/>
<path d="M18.1041 11.387C16.4055 11.387 15.0225 9.99325 15.0225 8.2814C15.0225 6.56955 16.4055 5.17578 18.1041 5.17578C19.8027 5.17578 21.1857 6.56955 21.1857 8.2814C21.1857 9.99325 19.8027 11.387 18.1041 11.387ZM18.1041 7.77247C17.8286 7.77247 17.6048 7.99802 17.6048 8.27561C17.6048 8.55321 17.8286 8.77876 18.1041 8.77876C18.3795 8.77876 18.6033 8.55321 18.6033 8.27561C18.6033 7.99802 18.3795 7.77247 18.1041 7.77247Z" fill="white"/>
</svg>
