<svg width="41" height="40" viewBox="0 0 41 40" fill="none" xmlns="http://www.w3.org/2000/svg">
<g clip-path="url(#clip0_3155_19696)">
<path d="M20.9095 34.5774C16.1852 34.5774 11.7479 32.2522 9.04419 28.3595C4.46913 21.7714 6.06495 12.6673 12.5975 8.0516C15.0429 6.32795 17.9073 5.41406 20.8865 5.41406C25.6108 5.41406 30.0424 7.73926 32.7518 11.6319C37.3269 18.22 35.7311 27.3242 29.1985 31.9398C26.7532 33.6635 23.8887 34.5774 20.9095 34.5774ZM20.8865 8.0169C18.4411 8.0169 16.0876 8.76883 14.0785 10.1859C8.71125 13.9745 7.40245 21.4591 11.1624 26.8672C13.3839 30.0658 17.029 31.9746 20.9095 31.9746C23.3491 31.9746 25.7027 31.2226 27.7175 29.8055C33.0848 26.017 34.3936 18.5324 30.6336 13.1242C28.4121 9.92564 24.767 8.0169 20.8865 8.0169Z" fill="white"/>
<path d="M6.85175 35.6832C4.45228 35.6832 2.67277 34.966 1.69117 33.5489C0.135539 31.3105 0.876044 27.7995 3.78066 23.6581C4.19396 23.0682 4.99761 22.9293 5.58313 23.3458C6.16864 23.7623 6.30641 24.572 5.89311 25.162C3.729 28.2449 2.95405 30.8246 3.80936 32.0566C4.66467 33.2886 7.33967 33.4332 10.9561 32.4442C19.5666 30.0843 30.7546 22.189 35.8979 14.8432C38.062 11.7603 38.837 9.18059 37.9817 7.94859C37.1263 6.71079 34.4513 6.57198 30.8349 7.56105C30.1403 7.75193 29.4343 7.34126 29.2506 6.64717C29.0611 5.95308 29.4687 5.23585 30.1576 5.05076C35.0139 3.72042 38.5442 4.21786 40.0998 6.45629C41.6555 8.69473 40.915 12.2057 38.0104 16.3471C32.5685 24.1093 20.7376 32.4615 11.6335 34.9545C9.85395 35.4461 8.24665 35.6832 6.85175 35.6832Z" fill="white"/>
<path d="M21.065 16.2511C19.2967 16.2511 17.8613 14.4071 17.8613 12.1353C17.8613 9.86353 19.2967 8.01953 21.065 8.01953C22.8333 8.01953 24.2687 9.86353 24.2687 12.1353C24.2687 14.4071 22.8333 16.2511 21.065 16.2511ZM21.065 11.3314C20.7205 11.3314 20.4449 11.6928 20.4449 12.128C20.4449 12.5631 20.7263 12.9246 21.065 12.9246C21.4037 12.9246 21.6851 12.5631 21.6851 12.128C21.6851 11.6928 21.4037 11.3314 21.065 11.3314Z" fill="white"/>
<path d="M23.1717 22.7047C23.8059 22.7047 24.32 22.0441 24.32 21.2293C24.32 20.4145 23.8059 19.7539 23.1717 19.7539C22.5375 19.7539 22.0234 20.4145 22.0234 21.2293C22.0234 22.0441 22.5375 22.7047 23.1717 22.7047Z" fill="white"/>
</g>
<defs>
<clipPath id="clip0_3155_19696">
<rect width="40" height="40" fill="white" transform="translate(0.895508)"/>
</clipPath>
</defs>
</svg>
