<svg width="47" height="50" viewBox="0 0 47 50" fill="none" xmlns="http://www.w3.org/2000/svg">
<g clip-path="url(#clip0_3055_15093)">
<path d="M1.62993 37.804C1.28946 37.804 0.956227 37.6964 0.673705 37.4955C0.253545 37.1942 0 36.7064 0 36.1899V6.26164C0 5.55862 0.456381 4.94169 1.13009 4.72649L15.7125 0.0779919C16.1762 -0.0726537 16.6833 -0.000917715 17.0962 0.257332L31.0267 9.14542L44.8702 4.72649C45.3628 4.56867 45.9061 4.65475 46.3263 4.95604C46.7465 5.25733 47 5.74514 47 6.26164V36.1827C47 37.0723 46.2683 37.7968 45.3701 37.7968C44.4718 37.7968 43.7401 37.0723 43.7401 36.1827V8.47828L31.2875 12.4525C30.8238 12.6031 30.3167 12.5385 29.9038 12.2731L15.9733 3.38502L3.25986 7.43811V33.9733L15.7125 29.9991C16.5674 29.7265 17.4874 30.1928 17.7626 31.0393C18.0379 31.8857 17.567 32.7968 16.7122 33.0694L2.12978 37.7179C1.96316 37.7681 1.79655 37.7968 1.62993 37.7968V37.804Z" fill="white"/>
<path d="M30.795 26.4856C29.8967 26.4856 29.165 25.7611 29.165 24.8715V16.2273C29.165 15.3378 29.8967 14.6133 30.795 14.6133C31.6932 14.6133 32.4249 15.3378 32.4249 16.2273V24.8715C32.4249 25.7611 31.6932 26.4856 30.795 26.4856Z" fill="white"/>
<path d="M16.212 33.1492C15.3137 33.1492 14.582 32.4247 14.582 31.5352V1.61406C14.582 0.724534 15.3137 0 16.212 0C17.1102 0 17.8419 0.724534 17.8419 1.61406V31.5352C17.8419 32.4247 17.1102 33.1492 16.212 33.1492Z" fill="white"/>
<path d="M30.6354 46.4279C24.1881 46.4279 18.9434 41.2342 18.9434 34.8497C18.9434 28.4652 24.1881 23.2715 30.6354 23.2715C37.0827 23.2715 42.3275 28.4652 42.3275 34.8497C42.3275 41.2342 37.0827 46.4279 30.6354 46.4279ZM30.6354 26.4924C25.9847 26.4924 22.2032 30.2371 22.2032 34.8425C22.2032 39.448 25.9847 43.1926 30.6354 43.1926C35.2861 43.1926 39.0676 39.448 39.0676 34.8425C39.0676 30.2371 35.2861 26.4924 30.6354 26.4924Z" fill="white"/>
<path d="M44.3052 50.0008C43.885 50.0008 43.4721 49.843 43.1534 49.5273L36.6119 43.0496C35.9744 42.4183 35.9744 41.3997 36.6119 40.7684C37.2494 40.1371 38.2781 40.1371 38.9155 40.7684L45.457 47.2461C46.0945 47.8774 46.0945 48.8961 45.457 49.5273C45.1383 49.843 44.7181 50.0008 44.3052 50.0008Z" fill="white"/>
</g>
<defs>
<clipPath id="clip0_3055_15093">
<rect width="47" height="50" fill="white"/>
</clipPath>
</defs>
</svg>
