<svg width="56" height="56" viewBox="0 0 56 56" fill="none" xmlns="http://www.w3.org/2000/svg">
<g id="icons" clip-path="url(#clip0_2924_3170)">
<g id="Group">
<path id="Vector" d="M6.75696 22.3407H1.80775C0.811478 22.3407 0 21.5401 0 20.5571C0 19.5741 0.811478 18.7734 1.80775 18.7734H6.75696C7.75323 18.7734 8.56471 19.5741 8.56471 20.5571C8.56471 21.5401 7.75323 22.3407 6.75696 22.3407Z" fill="white"/>
<path id="Vector_2" d="M54.192 22.3407H49.2428C48.2465 22.3407 47.4351 21.5401 47.4351 20.5571C47.4351 19.5741 48.2465 18.7734 49.2428 18.7734H54.192C55.1883 18.7734 55.9998 19.5741 55.9998 20.5571C55.9998 21.5401 55.1883 22.3407 54.192 22.3407Z" fill="white"/>
</g>
<g id="Group_2">
<path id="Vector_3" d="M12.9756 7.51571C12.5096 7.51571 12.0516 7.34131 11.6981 6.99251L8.20312 3.54411C7.49609 2.8465 7.49609 1.72081 8.20312 1.02321C8.91015 0.325598 10.051 0.325598 10.7581 1.02321L14.2531 4.47161C14.9601 5.16921 14.9601 6.2949 14.2531 6.99251C13.8995 7.34131 13.4335 7.51571 12.9756 7.51571Z" fill="white"/>
<path id="Vector_4" d="M46.5195 40.6134C46.0535 40.6134 45.5956 40.439 45.242 40.0902L41.7471 36.6418C41.04 35.9442 41.04 34.8185 41.7471 34.1209C42.4541 33.4233 43.595 33.4233 44.302 34.1209L47.797 37.5693C48.504 38.2669 48.504 39.3926 47.797 40.0902C47.4435 40.439 46.9775 40.6134 46.5195 40.6134Z" fill="white"/>
</g>
<g id="Group_3">
<path id="Vector_5" d="M9.4806 40.6134C9.0146 40.6134 8.55664 40.439 8.20312 40.0902C7.49609 39.3926 7.49609 38.2669 8.20312 37.5693L11.6981 34.1209C12.4051 33.4233 13.546 33.4233 14.2531 34.1209C14.9601 34.8185 14.9601 35.9442 14.2531 36.6418L10.7581 40.0902C10.4046 40.439 9.93856 40.6134 9.4806 40.6134Z" fill="white"/>
<path id="Vector_6" d="M43.0245 7.51571C42.5585 7.51571 42.1006 7.34131 41.7471 6.99251C41.04 6.2949 41.04 5.16921 41.7471 4.47161L45.242 1.02321C45.9491 0.325598 47.09 0.325598 47.797 1.02321C48.504 1.72081 48.504 2.8465 47.797 3.54411L44.302 6.99251C43.9485 7.34131 43.4825 7.51571 43.0245 7.51571Z" fill="white"/>
</g>
<path id="Vector_7" d="M35.1907 43.8544H20.801C19.8048 43.8544 18.9933 43.0537 18.9933 42.0707C18.9933 41.0877 19.8048 40.2871 20.801 40.2871H33.383V32.8354C33.383 32.2012 33.7284 31.6145 34.2828 31.2895C38.1634 29.0699 40.5738 24.9556 40.5738 20.548C40.5738 13.7066 34.9336 8.13372 27.9919 8.13372C21.0501 8.13372 15.4099 13.6987 15.4099 20.548C15.4099 24.9556 17.8203 29.0699 21.7009 31.2895C22.2553 31.6066 22.6007 32.1932 22.6007 32.8354V36.2362C22.6007 37.2192 21.7893 38.0199 20.793 38.0199C19.7967 38.0199 18.9853 37.2192 18.9853 36.2362V33.8184C14.5261 30.8614 11.7944 25.8751 11.7944 20.548C11.7944 11.7407 19.0576 4.56641 27.9919 4.56641C36.9261 4.56641 44.1893 11.7327 44.1893 20.548C44.1893 25.8672 41.4576 30.8614 36.9985 33.8184V42.0628C36.9985 43.0458 36.187 43.8465 35.1907 43.8465V43.8544Z" fill="white"/>
<path id="Vector_8" d="M34.8451 49.8486H21.1544C20.1582 49.8486 19.3467 49.0479 19.3467 48.0649C19.3467 47.0819 20.1582 46.2812 21.1544 46.2812H34.8451C35.8414 46.2812 36.6528 47.0819 36.6528 48.0649C36.6528 49.0479 35.8414 49.8486 34.8451 49.8486Z" fill="white"/>
<path id="Vector_9" d="M32.8206 55.5009H23.1793C22.1831 55.5009 21.3716 54.7002 21.3716 53.7172C21.3716 52.7343 22.1831 51.9336 23.1793 51.9336H32.8206C33.8169 51.9336 34.6284 52.7343 34.6284 53.7172C34.6284 54.7002 33.8169 55.5009 32.8206 55.5009Z" fill="white"/>
</g>
<defs>
<clipPath id="clip0_2924_3170">
<rect width="56" height="55" fill="white" transform="translate(0 0.5)"/>
</clipPath>
</defs>
</svg>
