<svg width="20" height="19" viewBox="0 0 20 19" fill="none" xmlns="http://www.w3.org/2000/svg">
<g id="icons" clip-path="url(#clip0_600_3392)">
<g id="Group">
<path id="Vector" d="M20 15.8851H13.8143V14.4964H18.5596V6.44443C18.5596 5.6617 17.8997 5.02542 17.0879 5.02542H2.91214C2.1003 5.02542 1.44036 5.6617 1.44036 6.44443V14.4964H5.95784V15.8851H0V6.44443C0 4.89665 1.3068 3.63672 2.91214 3.63672H17.0879C18.6932 3.63672 20 4.89665 20 6.44443V15.8851Z" fill="#222222"/>
<path id="Vector_2" d="M14.8122 18.9998H5.18799V9.7207H14.8122V18.9998ZM6.62834 17.6111H13.3718V11.1094H6.62834V17.6111Z" fill="#222222"/>
<path id="Vector_3" d="M14.8122 4.86047H13.3718V1.3887H6.62834V4.86047H5.18799V0H14.8122V4.86047Z" fill="#222222"/>
</g>
<path id="Vector_4" d="M16.3756 7.79501C16.7907 7.79501 17.1272 7.47057 17.1272 7.07035C17.1272 6.67014 16.7907 6.3457 16.3756 6.3457C15.9605 6.3457 15.624 6.67014 15.624 7.07035C15.624 7.47057 15.9605 7.79501 16.3756 7.79501Z" fill="#222222"/>
<path id="Vector_5" d="M11.9316 12.373H8.06885V13.7618H11.9316V12.373Z" fill="#222222"/>
<path id="Vector_6" d="M11.9316 14.9609H8.06885V16.3496H11.9316V14.9609Z" fill="#222222"/>
</g>
<defs>
<clipPath id="clip0_600_3392">
<rect width="20" height="19" fill="white"/>
</clipPath>
</defs>
</svg>
