<svg width="63" height="60" viewBox="0 0 63 60" fill="none" xmlns="http://www.w3.org/2000/svg">
<g id="Icons" clip-path="url(#clip0_2884_18038)">
<g id="Group">
<g id="Vector">
<path d="M21.9883 51.0146H41.0053V55.8593C41.0053 58.1431 39.1681 60 36.9086 60H26.0851C23.8255 60 21.9883 58.1431 21.9883 55.8593V51.0146Z" fill="url(#paint0_linear_2884_18038)"/>
<path d="M21.9883 51.0146H41.0053V55.8593C41.0053 58.1431 39.1681 60 36.9086 60H26.0851C23.8255 60 21.9883 58.1431 21.9883 55.8593V51.0146Z" fill="url(#paint1_linear_2884_18038)"/>
</g>
<path id="Vector_2" d="M50.947 19.6552C50.947 8.34106 41.4866 -0.741681 30.1224 0.044541C20.5657 0.710958 12.8092 8.51328 12.1054 18.1651C11.6683 24.1479 13.8834 29.614 17.6839 33.4927C20.0693 35.9262 21.4991 39.161 21.4991 42.5904V44.9341H41.5015V42.7027C41.5015 39.2134 42.9461 35.9262 45.3686 33.4403C48.8208 29.891 50.9544 25.0239 50.9544 19.6552H50.947Z" fill="url(#paint2_linear_2884_18038)"/>
<g id="Group_2">
<path id="Vector_3" d="M23.907 15.4023C21.1881 15.4023 18.9805 17.6337 18.9805 20.3818C18.9805 23.1298 21.1881 25.3612 23.907 25.3612H28.8335V20.3818C28.8335 17.6337 26.6258 15.4023 23.907 15.4023Z" stroke="white" stroke-width="3" stroke-miterlimit="10"/>
<path id="Vector_4" d="M44.02 20.3818C44.02 17.6337 41.8123 15.4023 39.0935 15.4023C36.3747 15.4023 34.167 17.6337 34.167 20.3818V25.3612H39.0935C41.8123 25.3612 44.02 23.1298 44.02 20.3818Z" stroke="white" stroke-width="3" stroke-miterlimit="10"/>
<path id="Vector_5" d="M34.167 44.9345V25.3613H28.833V44.9345" stroke="white" stroke-width="3" stroke-miterlimit="10"/>
</g>
<path id="Vector_6" d="M41.553 53.3874H21.447C19.0615 53.3874 17.1279 51.4331 17.1279 49.0145C17.1279 46.6034 19.0615 44.6416 21.447 44.6416H41.553C43.9385 44.6416 45.872 46.5959 45.872 49.0145C45.872 51.4256 43.9385 53.3874 41.553 53.3874Z" fill="url(#paint3_linear_2884_18038)"/>
</g>
<g id="Group_3">
<path id="Vector (Stroke)" fill-rule="evenodd" clip-rule="evenodd" d="M0 19.2139H6.02293V21.4602H0V19.2139Z" fill="#FF8812"/>
<path id="Vector (Stroke)_2" fill-rule="evenodd" clip-rule="evenodd" d="M56.9775 19.2139H63.0005V21.4602H56.9775V19.2139Z" fill="#FF8812"/>
</g>
<g id="Group_4">
<path id="Vector (Stroke)_3" fill-rule="evenodd" clip-rule="evenodd" d="M2.77829 7.21289L8.34932 9.52663L7.50462 11.6044L1.93359 9.29067L2.77829 7.21289Z" fill="#FF8812"/>
<path id="Vector (Stroke)_4" fill-rule="evenodd" clip-rule="evenodd" d="M55.4947 29.0771L61.0657 31.3834L60.2234 33.4621L54.6523 31.1559L55.4947 29.0771Z" fill="#FF8812"/>
</g>
<g id="Group_5">
<path id="Vector (Stroke)_5" fill-rule="evenodd" clip-rule="evenodd" d="M61.0661 9.29067L55.4951 11.6044L54.6504 9.52663L60.2214 7.21289L61.0661 9.29067Z" fill="#FF8812"/>
<path id="Vector (Stroke)_6" fill-rule="evenodd" clip-rule="evenodd" d="M8.34795 31.1559L2.77693 33.4621L1.93457 31.3834L7.5056 29.0771L8.34795 31.1559Z" fill="#FF8812"/>
</g>
</g>
<defs>
<linearGradient id="paint0_linear_2884_18038" x1="35.701" y1="61.3479" x2="27.7217" y2="47.674" gradientUnits="userSpaceOnUse">
<stop stop-color="#3883FF"/>
<stop offset="1" stop-color="#74F8C2"/>
</linearGradient>
<linearGradient id="paint1_linear_2884_18038" x1="35.9535" y1="58.9975" x2="32.1193" y2="47.9504" gradientUnits="userSpaceOnUse">
<stop stop-color="#183072"/>
<stop offset="1" stop-color="#5E80DF"/>
</linearGradient>
<linearGradient id="paint2_linear_2884_18038" x1="40.6198" y1="39.9203" x2="10.0815" y2="3.9286" gradientUnits="userSpaceOnUse">
<stop stop-color="#183072"/>
<stop offset="1" stop-color="#5E80DF"/>
</linearGradient>
<linearGradient id="paint3_linear_2884_18038" x1="31.5" y1="44.6416" x2="31.5" y2="53.3874" gradientUnits="userSpaceOnUse">
<stop stop-color="#FF7F00"/>
<stop offset="1" stop-color="#FFBA76"/>
</linearGradient>
<clipPath id="clip0_2884_18038">
<rect width="63" height="60" fill="white"/>
</clipPath>
</defs>
</svg>
