<svg width="109" height="18" viewBox="0 0 109 18" fill="none" xmlns="http://www.w3.org/2000/svg">
<g id="Group">
<g id="Group_2">
<path id="Vector" d="M62.6772 0.0144043V3.03582H66.331V17.2575H69.3242V3.03582H72.9078V0.0144043H62.6631H62.6772Z" fill="#F39800"/>
<path id="Vector_2" d="M74.8184 0.0144043V17.2575H84.501V14.2642H77.8117V9.69698H83.0675V6.70367H77.8117V3.02176H84.501V0.0144043H74.8184Z" fill="#F39800"/>
<path id="Vector_3" d="M93.0723 0.0140531H89.5591C87.8587 0.0140531 86.4814 1.40531 86.4814 3.11978V14.1655C86.4814 15.9643 87.7743 17.2712 89.5591 17.2712H93.0723C94.7868 17.2712 96.1781 15.88 96.1781 14.1655V12.4932H93.1567V13.9969C93.1567 14.2077 92.9599 14.2779 92.8334 14.2779H89.8261C89.6856 14.2779 89.4888 14.0812 89.4888 13.8704V3.33058C89.4888 3.23221 89.5591 3.02141 89.7699 3.02141H92.8334C92.8334 3.02141 93.1567 3.02141 93.1567 3.27437V4.77805H96.1781V3.10573C96.1781 1.39126 94.7868 0 93.0723 0V0.0140531Z" fill="#F39800"/>
<path id="Vector_4" d="M107.998 0.0144043H105.146V6.70367H101.478V0.0144043H98.4844V17.2575H101.478V9.69698H105.146V17.2575H108.167V0.0144043H107.998Z" fill="#F39800"/>
</g>
<g id="Group_3">
<path id="Vector_5" d="M56.0714 0.0141602H52.5581C50.8577 0.0141602 49.4805 1.40542 49.4805 3.11989V17.2573H52.4738V11.1583H56.1416V17.2573H59.1631V3.11989C59.1771 1.40542 57.7858 0.0141602 56.0714 0.0141602ZM56.1557 8.16495H52.4878V3.28853C52.4878 3.04963 52.783 3.03557 52.8111 3.03557H55.8325C55.8325 3.03557 56.1557 3.03557 56.1557 3.28853V8.16495Z" fill="white"/>
<path id="Vector_6" d="M6.66117 0.0141602V3.48527C6.5909 3.56959 3.90676 6.23968 2.99331 7.15313V0.0141602H0V17.2573H2.99331V9.28919C3.63976 9.92158 5.10128 11.3831 5.10128 11.3831C5.10128 11.3831 6.57685 12.8446 6.66117 12.943V17.2432H9.68257V11.7204C9.68257 11.7204 6.38011 8.4179 6.15526 8.19305C6.39416 7.9682 9.68257 4.69384 9.68257 4.69384V0.0141602H6.66117Z" fill="white"/>
<path id="Vector_7" d="M19.0557 0.0141602H15.5425C13.842 0.0141602 12.4648 1.40542 12.4648 3.11989V14.1516C12.4648 15.9504 13.7577 17.2573 15.5425 17.2573H19.0557C20.7702 17.2573 22.1615 15.866 22.1615 14.1516V3.11989C22.1615 1.40542 20.7702 0.0141602 19.0557 0.0141602ZM19.1401 13.9829C19.1401 14.1937 18.9433 14.264 18.8028 14.264H15.7954C15.6549 14.264 15.4722 14.0672 15.4722 13.8564V3.34474C15.4722 3.21826 15.5565 3.03557 15.7533 3.03557H18.8168C18.8168 3.03557 19.1541 3.03557 19.1541 3.28853V13.9829H19.1401Z" fill="white"/>
<path id="Vector_8" d="M37.5928 0.0141602V17.2573H47.2753V14.264H40.5861V9.71079H45.8419V6.71748H40.5861V3.04963H47.2753V0.0141602H37.5928Z" fill="white"/>
<path id="Vector_9" d="M24.9434 0.0141602V17.2573H27.9367V9.69673H30.8316C31.2672 9.71079 31.5764 10.02 31.6045 10.4556V17.2573H34.6259V10.1886C34.6259 9.34541 34.2184 8.67086 33.5438 8.22116C34.2184 7.77146 34.6119 7.09691 34.6259 6.25373V3.13394C34.6259 1.40542 33.2487 0.0141602 31.5343 0.0141602H24.9434ZM31.6045 5.81808C31.5905 6.46452 31.1267 6.70343 30.6911 6.70343C29.7917 6.70343 28.1615 6.70343 27.9367 6.70343V3.03557H31.3516C31.5202 3.03557 31.6045 3.20421 31.6045 3.34474V5.81808Z" fill="white"/>
</g>
</g>
</svg>
