<svg width="241" height="50" viewBox="0 0 241 50" fill="none" xmlns="http://www.w3.org/2000/svg">
<g id="Layer_1" clip-path="url(#clip0_806_2323)">
<path id="Vector" d="M13.8187 11.9656V49.9836C13.2154 49.7215 12.6121 49.4595 12.0496 49.1892C11.7153 49.0336 11.3892 48.8616 11.055 48.6896V32.6126C9.9136 33.7346 8.64994 34.9877 8.29123 35.3481V47.1007C7.89175 46.8469 7.50042 46.5848 7.11725 46.3227C6.57102 45.946 6.0411 45.5446 5.52749 45.1351V34.1933L5.94327 33.7838L10.0603 29.7052L5.52749 25.2252V17.5266H8.29123V24.0622C8.64994 24.4226 9.92175 25.6757 11.055 26.7977V14.7502H0V11.9738H13.8187V11.9656ZM6.72592 29.6888C6.72592 29.6888 3.3915 26.421 2.75559 25.7903V17.5184H0V26.9615C0 26.9615 1.78543 28.7142 2.78005 29.6888C1.78543 30.6634 0 32.4242 0 32.4242V39.0745C0.627753 40.0819 1.3778 41.0811 2.23382 42.0393C2.40503 42.2277 2.58438 42.4161 2.76374 42.6044V33.5872C3.39965 32.9566 6.73408 29.6888 6.73408 29.6888H6.72592ZM24.4579 33.7756L20.3408 29.697L24.8737 25.217V17.5184H22.1099V24.0541C21.7431 24.4144 20.4794 25.6675 19.3462 26.7895V14.742H30.4012V11.9656H16.5825V50C17.2021 49.7379 17.8054 49.4677 18.376 49.1892C18.7103 49.0254 19.0282 48.8616 19.3462 48.6978V32.6044C20.4876 33.7265 21.7512 34.9795 22.1099 35.3399V47.1089C22.5176 46.855 22.9171 46.5848 23.3165 46.3145C23.8546 45.9378 24.3764 45.5446 24.8737 45.1433V34.1769L24.4661 33.7674L24.4579 33.7756ZM27.6211 29.6888C28.6076 28.7142 30.4012 26.9615 30.4012 26.9615V17.5184H27.6374V25.7903C27.0015 26.421 23.6671 29.6888 23.6671 29.6888C23.6671 29.6888 26.9934 32.9648 27.6374 33.5872V42.629C27.8249 42.4324 28.0124 42.2359 28.1837 42.0393C29.0234 41.0975 29.7653 40.1147 30.4012 39.1073V32.4161C30.4012 32.4161 28.6157 30.6552 27.6211 29.6806V29.6888Z" fill="url(#paint0_linear_806_2323)"/>
<g id="Group">
<path id="Vector_2" d="M57.3366 16.208H54.2305V34.3899H57.3366V26.3145H60.4917V23.5709H57.3366V16.208Z" fill="white"/>
<path id="Vector_3" d="M100.13 41.4496H103.301V16.2326H100.13V41.4496Z" fill="white"/>
<path id="Vector_4" d="M191.276 23.5791H189.393V16.2244H186.336V30.3849H178.558V20.1065H184.281V17.3055H175.452V31.2695C175.452 32.1704 176.422 33.1859 177.727 33.1859H186.336V41.4415H189.393V26.38H191.276V41.4497H194.391V16.2326H191.276V23.5791Z" fill="white"/>
<path id="Vector_5" d="M215.343 16.2162H212.237V31.3186H215.343V25.0287H218.857V22.2768H215.343V16.208V16.2162Z" fill="white"/>
<path id="Vector_6" d="M51.0677 24.9468C51.0677 23.3661 50.3095 21.9574 49.1437 20.9828H52.2335V18.3047H47.0729V15.7494H43.9097V18.3047H38.7246V20.9828H41.7248C40.5508 21.9574 39.8008 23.3661 39.8008 24.9468C39.8008 27.8788 42.3281 30.2621 45.4342 30.2621C48.5404 30.2621 51.0677 27.8788 51.0677 24.9468ZM42.8743 24.9468C42.8743 23.4726 44.0238 22.285 45.4342 22.285C46.8446 22.285 48.0023 23.4808 48.0023 24.9468C48.0023 26.4128 46.8446 27.6167 45.4342 27.6167C44.0238 27.6167 42.8743 26.421 42.8743 24.9468Z" fill="white"/>
<path id="Vector_7" d="M209.579 24.9468C209.579 23.3661 208.821 21.9574 207.655 20.9828H210.745V18.3047H205.592V15.7494H202.429V18.3047H197.244V20.9828H200.244C199.07 21.9574 198.32 23.3661 198.32 24.9468C198.32 27.8788 200.848 30.2621 203.954 30.2621C207.06 30.2621 209.587 27.8788 209.587 24.9468H209.579ZM201.378 24.9468C201.378 23.4726 202.527 22.285 203.946 22.285C205.364 22.285 206.506 23.4808 206.506 24.9468C206.506 26.4128 205.356 27.6167 203.946 27.6167C202.535 27.6167 201.378 26.421 201.378 24.9468Z" fill="white"/>
<path id="Vector_8" d="M116.753 20.3849L116.794 20.3686L116.826 20.3849C116.998 20.475 124.09 24.4963 124.865 24.9386C124.938 24.7994 125.933 22.8256 125.998 22.7027C125.868 22.6208 118.351 18.0917 118.351 18.0917V15.9378H115.245V18.0917C115.245 18.0917 107.736 22.6208 107.598 22.7027C107.663 22.8256 108.658 24.7994 108.723 24.9386C109.497 24.5045 116.59 20.475 116.761 20.3931L116.753 20.3849Z" fill="white"/>
<path id="Vector_9" d="M233.124 34.3325V26.1507H230.01V34.3325H227.491V26.1507H224.385V34.3325H219.542V37.0844H240.992V34.3325H233.116H233.124Z" fill="white"/>
<path id="Vector_10" d="M46.0865 33.1859H42.8662V39.1646C42.8662 40.0655 43.8364 41.0811 45.1408 41.0811H57.598V38.3293H46.0865V33.1777V33.1859Z" fill="white"/>
<path id="Vector_11" d="M105.739 28.9763H115.245V30.5242H109.335V33.0221H121.001V34.6847H109.335V39.181C109.335 40.0819 110.305 41.0975 111.609 41.0975H124.702V38.5422H112.857V37.0189H124.156V30.5324H118.351V28.9845H127.857V26.2899H105.739V28.9845V28.9763Z" fill="white"/>
<path id="Vector_12" d="M235.171 32.0311H238.212V19.2138C238.212 18.3129 237.241 17.2973 235.937 17.2973H222.069V20.0491H235.162V32.0311H235.171Z" fill="white"/>
<path id="Vector_13" d="M142.328 26.1507H139.214V34.3325H136.703V26.1507H133.588V34.3325H128.754V37.0844H150.203V34.3325H142.328V26.1507Z" fill="white"/>
<path id="Vector_14" d="M144.374 32.0311H147.415V19.2138C147.415 18.3129 146.445 17.2973 145.141 17.2973H131.281V20.0491H144.374V32.0311Z" fill="white"/>
<path id="Vector_15" d="M80.1567 18.6814C80.1567 17.7723 79.1865 16.765 77.8821 16.765H64.8868V19.5168H77.0424V26.1016H61.9355V28.8534H71.0828V32.2768H64.9683V35.0287H77.0831V41.5807H80.1974V34.1933C80.1974 33.2842 79.2191 32.2768 77.9147 32.2768H74.246V28.8534H83.4177V26.1016H80.1567V18.6896V18.6814Z" fill="white"/>
<path id="Vector_16" d="M151.59 30.0737H157.655V32.6536H154.884V35.3481H166.933V41.5725H170.039V34.5619C170.039 33.661 169.069 32.6454 167.765 32.6454H166.9V30.0655H173.023V27.371H151.59V30.0655V30.0737ZM160.762 30.0737H163.794V32.6536H160.762V30.0737Z" fill="white"/>
<path id="Vector_17" d="M213.036 32.7437H201.264V35.4955H212.237V41.5725H215.343V34.6683C215.343 33.7674 214.332 32.7518 213.036 32.7518V32.7437Z" fill="white"/>
<path id="Vector_18" d="M162.286 26.5602C165.571 26.5602 168.237 24.0377 168.237 20.9419C168.237 17.846 165.571 15.3235 162.286 15.3235C159 15.3235 156.326 17.846 156.326 20.9419C156.326 24.0377 159 26.5602 162.286 26.5602ZM162.286 18.0016C163.851 18.0016 165.123 19.3284 165.123 20.9501C165.123 22.5717 163.851 23.8985 162.286 23.8985C160.72 23.8985 159.449 22.5799 159.449 20.9501C159.449 19.3202 160.72 18.0016 162.286 18.0016Z" fill="white"/>
<path id="Vector_19" d="M94.1297 17.5184H85.1455V20.3194H93.1922V25.2089C93.1922 25.2089 85.6836 32.7764 85.5613 32.8993L87.6565 34.9468L95.7928 26.6585C96.1679 26.2817 96.4043 25.7576 96.4124 25.1843V19.4349C96.4124 18.5258 95.4423 17.5184 94.1379 17.5184H94.1297Z" fill="white"/>
</g>
<g id="Group_2">
<g id="Group_3">
<path id="Vector_20" d="M211.822 -6.10352e-05V1.76079H213.941V10.0491H215.678V1.76079H217.757V-6.10352e-05H211.813H211.822Z" fill="#F7941D"/>
<path id="Vector_21" d="M218.865 0V10.0491H224.482V8.30467H220.602V5.64291H223.651V3.89844H220.602V1.75266H224.482V0H218.865Z" fill="#F7941D"/>
<path id="Vector_22" d="M229.455 1.12979e-05H227.417C226.431 1.12979e-05 225.632 0.810822 225.632 1.81V8.24735C225.632 9.29567 226.382 10.0573 227.417 10.0573H229.455C230.45 10.0573 231.257 9.24653 231.257 8.24735V7.27274H229.504V8.14907C229.504 8.27192 229.39 8.31287 229.317 8.31287H227.572C227.491 8.31287 227.376 8.19821 227.376 8.07536V1.93285C227.376 1.87552 227.417 1.75267 227.54 1.75267H229.317C229.317 1.75267 229.504 1.75267 229.504 1.90009V2.77642H231.257V1.80181C231.257 0.802632 230.45 -0.00817871 229.455 -0.00817871V1.12979e-05Z" fill="#F7941D"/>
<path id="Vector_23" d="M238.114 0H236.459V3.89844H234.331V0H232.595V10.0491H234.331V5.64291H236.459V10.0491H238.212V0H238.114Z" fill="#F7941D"/>
</g>
<g id="Group_4">
<path id="Vector_24" d="M207.99 3.05176e-05H205.951C204.965 3.05176e-05 204.166 0.810841 204.166 1.81002V10.0492H205.903V6.49471H208.03V10.0492H209.783V1.81002C209.791 0.810841 208.984 3.05176e-05 207.99 3.05176e-05ZM208.039 4.75024H205.911V1.9083C205.911 1.76907 206.082 1.76088 206.098 1.76088H207.851C207.851 1.76088 208.039 1.76088 208.039 1.9083V4.75024Z" fill="white"/>
<path id="Vector_25" d="M179.325 -6.10352e-05V2.02287C179.285 2.07201 177.727 3.62811 177.197 4.16046V-6.10352e-05H175.461V10.0491H177.197V5.40534C177.572 5.77389 178.42 6.62565 178.42 6.62565C178.42 6.62565 179.276 7.47742 179.325 7.53475V10.0409H181.078V6.82222C181.078 6.82222 179.162 4.89756 179.032 4.76652C179.17 4.63548 181.078 2.72721 181.078 2.72721V-6.10352e-05H179.325Z" fill="white"/>
<path id="Vector_26" d="M186.516 3.05176e-05H184.478C183.491 3.05176e-05 182.692 0.810841 182.692 1.81002V8.23918C182.692 9.2875 183.442 10.0492 184.478 10.0492H186.516C187.511 10.0492 188.318 9.23836 188.318 8.23918V1.81002C188.318 0.810841 187.511 3.05176e-05 186.516 3.05176e-05ZM186.565 8.1409C186.565 8.26375 186.451 8.3047 186.369 8.3047H184.625C184.543 8.3047 184.437 8.19004 184.437 8.06719V1.94106C184.437 1.86735 184.486 1.76088 184.6 1.76088H186.377C186.377 1.76088 186.573 1.76088 186.573 1.9083V8.1409H186.565Z" fill="white"/>
<path id="Vector_27" d="M197.27 3.05176e-05V10.0492H202.887V8.3047H199.006V5.65114H202.055V3.90666H199.006V1.76907H202.887V3.05176e-05H197.27Z" fill="white"/>
<path id="Vector_28" d="M189.932 3.05176e-05V10.0492H191.668V5.64295H193.348C193.6 5.65114 193.78 5.83132 193.796 6.08521V10.0492H195.549V5.9296C195.549 5.4382 195.312 5.04507 194.921 4.78299C195.312 4.52091 195.541 4.12779 195.549 3.63639V1.81821C195.549 0.810841 194.75 3.05176e-05 193.755 3.05176e-05H189.932ZM193.796 3.3825C193.788 3.75924 193.519 3.89847 193.266 3.89847C192.744 3.89847 191.799 3.89847 191.668 3.89847V1.76088H193.649C193.747 1.76088 193.796 1.85916 193.796 1.94106V3.3825Z" fill="white"/>
</g>
</g>
</g>
<defs>
<linearGradient id="paint0_linear_806_2323" x1="15.2047" y1="11.9656" x2="15.2047" y2="50" gradientUnits="userSpaceOnUse">
<stop offset="0.17" stop-color="#FAA61A"/>
<stop offset="0.5" stop-color="#F7941D"/>
<stop offset="0.73" stop-color="#F47920"/>
<stop offset="1" stop-color="#F26522"/>
</linearGradient>
<clipPath id="clip0_806_2323">
<rect width="241" height="50" fill="white"/>
</clipPath>
</defs>
</svg>
