<?xml version="1.0" encoding="utf-8"?>
<!-- Generator: Adobe Illustrator 28.1.0, SVG Export Plug-In . SVG Version: 6.00 Build 0)  -->
<svg version="1.1" id="레이어_1" xmlns="http://www.w3.org/2000/svg" xmlns:xlink="http://www.w3.org/1999/xlink" x="0px"
	 y="0px" viewBox="0 0 24 24" style="enable-background:new 0 0 24 24;" xml:space="preserve">
<style type="text/css">
	.st0{fill:none;stroke:#FFFFFF;stroke-width:2;stroke-linecap:round;stroke-linejoin:round;}
</style>
<g id="tabler-icon-bulb">
	<path id="Vector" class="st0" d="M3,12h1 M12,3v1 M20,12h1 M5.6,5.6l0.7,0.7 M18.4,5.6l-0.7,0.7 M9.7,17h4.6 M9,16
		c-0.8-0.6-1.5-1.5-1.8-2.5c-0.3-1-0.3-2.1,0-3.1c0.3-1,1-1.9,1.8-2.5C9.9,7.3,11,7,12,7s2.1,0.3,2.9,0.9c0.9,0.6,1.5,1.5,1.8,2.5
		c0.3,1,0.3,2.1,0,3.1c-0.3,1-0.9,1.9-1.8,2.5c-0.4,0.4-0.7,0.9-0.9,1.4C14,17.9,13.9,18.5,14,19c0,0.5-0.2,1-0.6,1.4
		C13,20.8,12.5,21,12,21s-1-0.2-1.4-0.6C10.2,20,10,19.5,10,19c0.1-0.5,0-1.1-0.1-1.6C9.7,16.9,9.4,16.4,9,16z"/>
</g>
</svg>
