<svg width="24" height="24" viewBox="0 0 24 24" fill="none" xmlns="http://www.w3.org/2000/svg">
<path d="M7.5 5.25C8.36 5.25 9.165 5.445 9.915 5.835C10.645 6.215 11.255 6.745 11.745 7.425C12.245 8.095 12.56 8.845 12.69 9.675C13.14 9.225 13.655 8.875 14.235 8.625C14.835 8.375 15.465 8.25 16.125 8.25H19.5V10.125C19.5 11.005 19.28 11.825 18.84 12.585C18.41 13.325 17.825 13.91 17.085 14.34C16.325 14.78 15.505 15 14.625 15H12.75V18.75H11.25V12.75H9.75C8.8 12.75 7.915 12.51 7.095 12.03C6.305 11.57 5.68 10.945 5.22 10.155C4.74 9.335 4.5 8.45 4.5 7.5V5.25H7.5ZM18 9.75H16.125C15.515 9.75 14.95 9.905 14.43 10.215C13.92 10.515 13.51 10.925 13.2 11.445C12.9 11.955 12.75 12.515 12.75 13.125V13.5H14.625C15.235 13.5 15.795 13.35 16.305 13.05C16.825 12.74 17.235 12.33 17.535 11.82C17.845 11.3 18 10.735 18 10.125V9.75ZM7.5 6.75H6V7.5C6 8.18 6.165 8.81 6.495 9.39C6.835 9.96 7.29 10.415 7.86 10.755C8.44 11.085 9.07 11.25 9.75 11.25H11.25V10.5C11.25 9.82 11.08 9.195 10.74 8.625C10.41 8.045 9.955 7.59 9.375 7.26C8.805 6.92 8.18 6.75 7.5 6.75Z" fill="white"/>
</svg>
