<svg width="24" height="24" viewBox="0 0 24 24" fill="none" xmlns="http://www.w3.org/2000/svg">
<path d="M14.6546 10.5757L14.5496 10.4707C14.0396 9.98072 13.4396 9.64072 12.7496 9.45072C12.0396 9.26072 11.3446 9.26072 10.6646 9.45072C9.99457 9.63072 9.40957 9.97572 8.90957 10.4857C8.41957 10.9857 8.07957 11.6007 7.88957 12.3307C7.85957 12.4307 7.83457 12.6257 7.81457 12.9157C7.74457 13.6557 7.61457 14.2857 7.42457 14.8057C7.21457 15.3757 6.89457 15.9157 6.46457 16.4257C7.33457 16.7657 8.22457 17.0407 9.13457 17.2507C10.0946 17.4607 10.9446 17.5657 11.6846 17.5657C12.2946 17.5657 12.8746 17.4357 13.4246 17.1757C13.9746 16.9157 14.4446 16.5557 14.8346 16.0957C15.2346 15.6357 15.5146 15.1057 15.6746 14.5057C15.8646 13.7957 15.8646 13.0907 15.6746 12.3907C15.4846 11.6907 15.1446 11.0857 14.6546 10.5757ZM13.0346 7.98072L16.7246 5.10072C16.8746 4.98072 17.0446 4.92572 17.2346 4.93572C17.4246 4.94572 17.5896 5.02072 17.7296 5.16072L19.9646 7.39572C20.1046 7.53572 20.1796 7.70072 20.1896 7.89072C20.1996 8.08072 20.1446 8.24572 20.0246 8.38572L17.1446 12.0907C17.3746 13.0307 17.3646 13.9657 17.1146 14.8957C16.8946 15.7157 16.5096 16.4457 15.9596 17.0857C15.4296 17.7157 14.7896 18.2007 14.0396 18.5407C13.2996 18.8907 12.5096 19.0657 11.6696 19.0657C10.8396 19.0657 9.91457 18.9557 8.89457 18.7357C7.95457 18.5257 7.02457 18.2457 6.10457 17.8957C5.21457 17.5557 4.44957 17.1957 3.80957 16.8157C4.52957 16.2757 5.08457 15.7507 5.47457 15.2407C5.79457 14.8107 6.01457 14.3757 6.13457 13.9357C6.21457 13.6657 6.27457 13.2907 6.31457 12.8107C6.34457 12.4207 6.38457 12.1307 6.43457 11.9407C6.69457 10.9607 7.16457 10.1257 7.84457 9.43572C8.50457 8.75572 9.28457 8.28572 10.1846 8.02572C11.1046 7.75572 12.0546 7.74072 13.0346 7.98072ZM15.5846 9.39072C15.6346 9.43072 15.6846 9.47572 15.7346 9.52572L16.5896 10.3807L18.4346 7.99572L17.1296 6.69072L14.7446 8.53572L15.5846 9.39072Z" fill="white"/>
</svg>
