<?xml version="1.0" encoding="utf-8"?>
<!-- Generator: Adobe Illustrator 28.1.0, SVG Export Plug-In . SVG Version: 6.00 Build 0)  -->
<svg version="1.1" id="레이어_1" xmlns="http://www.w3.org/2000/svg" xmlns:xlink="http://www.w3.org/1999/xlink" x="0px"
	 y="0px" viewBox="0 0 24 24" style="enable-background:new 0 0 24 24;" xml:space="preserve">
<style type="text/css">
	.st0{fill:none;stroke:#FFFFFF;stroke-width:2;stroke-linecap:round;stroke-linejoin:round;}
</style>
<g id="tabler-icon-cpu">
	<path id="Vector" class="st0" d="M3,10h2 M3,14h2 M10,3v2 M14,3v2 M21,10h-2 M21,14h-2 M14,21v-2 M10,21v-2 M5,6
		c0-0.3,0.1-0.5,0.3-0.7C5.5,5.1,5.7,5,6,5h12c0.3,0,0.5,0.1,0.7,0.3C18.9,5.5,19,5.7,19,6v12c0,0.3-0.1,0.5-0.3,0.7S18.3,19,18,19
		H6c-0.3,0-0.5-0.1-0.7-0.3C5.1,18.5,5,18.3,5,18V6z M9,9h6v6H9V9z"/>
</g>
</svg>
