<?xml version="1.0" encoding="utf-8"?>
<!-- Generator: Adobe Illustrator 28.1.0, SVG Export Plug-In . SVG Version: 6.00 Build 0)  -->
<svg version="1.1" id="레이어_1" xmlns="http://www.w3.org/2000/svg" xmlns:xlink="http://www.w3.org/1999/xlink" x="0px"
	 y="0px" viewBox="0 0 24 24" style="enable-background:new 0 0 24 24;" xml:space="preserve">
<style type="text/css">
	.st0{fill:none;stroke:#FFFFFF;stroke-width:2;stroke-linecap:round;stroke-linejoin:round;}
</style>
<g id="tabler-icon-settings">
	<g id="Vector">
		<path class="st0" d="M10.3,4.3c0.4-1.8,2.9-1.8,3.4,0C13.7,4.6,13.9,4.8,14,5s0.4,0.4,0.6,0.5c0.3,0.1,0.5,0.1,0.8,0.1
			s0.5-0.1,0.8-0.2c1.5-0.9,3.3,0.8,2.4,2.4c-0.1,0.2-0.2,0.5-0.2,0.8c0,0.3,0,0.5,0.1,0.8c0.1,0.3,0.3,0.5,0.5,0.6
			c0.2,0.2,0.5,0.3,0.7,0.4c1.8,0.4,1.8,2.9,0,3.4c-0.3,0.1-0.5,0.2-0.7,0.4s-0.4,0.4-0.5,0.6c-0.1,0.3-0.1,0.5-0.1,0.8
			s0.1,0.5,0.2,0.8c0.9,1.5-0.8,3.3-2.4,2.4c-0.2-0.1-0.5-0.2-0.8-0.2c-0.3,0-0.5,0-0.8,0.1c-0.3,0.1-0.5,0.3-0.6,0.5
			c-0.2,0.2-0.3,0.5-0.4,0.7c-0.4,1.8-2.9,1.8-3.4,0c-0.1-0.3-0.2-0.5-0.4-0.7c-0.2-0.2-0.4-0.4-0.6-0.5c-0.3-0.1-0.5-0.1-0.8-0.1
			c-0.3,0-0.5,0.1-0.8,0.2c-1.5,0.9-3.3-0.8-2.4-2.4c0.1-0.2,0.2-0.5,0.2-0.8c0-0.3,0-0.5-0.1-0.8C5.4,14.4,5.2,14.2,5,14
			c-0.2-0.2-0.5-0.3-0.7-0.4c-1.8-0.4-1.8-2.9,0-3.4C4.6,10.3,4.8,10.1,5,10c0.2-0.2,0.4-0.4,0.5-0.6c0.1-0.3,0.1-0.5,0.1-0.8
			c0-0.3-0.1-0.5-0.2-0.8C4.4,6.2,6.2,4.4,7.8,5.4C8.8,6,10,5.5,10.3,4.3z"/>
		<path class="st0" d="M9,12c0,0.8,0.3,1.6,0.9,2.1c0.6,0.6,1.3,0.9,2.1,0.9s1.6-0.3,2.1-0.9S15,12.8,15,12s-0.3-1.6-0.9-2.1
			C13.6,9.3,12.8,9,12,9s-1.6,0.3-2.1,0.9C9.3,10.4,9,11.2,9,12z"/>
	</g>
</g>
</svg>
