<?xml version="1.0" encoding="utf-8"?>
<!-- Generator: Adobe Illustrator 28.1.0, SVG Export Plug-In . SVG Version: 6.00 Build 0)  -->
<svg version="1.1" id="레이어_1" xmlns="http://www.w3.org/2000/svg" xmlns:xlink="http://www.w3.org/1999/xlink" x="0px"
	 y="0px" viewBox="0 0 24 24" style="enable-background:new 0 0 24 24;" xml:space="preserve">
<style type="text/css">
	.st0{fill:none;stroke:#FFFFFF;stroke-width:2;stroke-linecap:round;stroke-linejoin:round;}
</style>
<g id="tabler-icon-rocket">
	<path id="Vector" class="st0" d="M7,14c-1,0.6-1.9,1.5-2.4,2.5S3.8,18.8,4,20c1.2,0.2,2.4,0,3.5-0.6c1.1-0.5,2-1.4,2.5-2.4 M4,13
		c1.8,0.2,3.4,1,4.7,2.3c1.3,1.3,2.1,2.9,2.3,4.7c0.9-0.5,1.6-1.2,2.1-2.1C13.7,17,14,16,14,15c1.7-0.6,3.1-1.7,4.2-3.1
		c1.1-1.4,1.7-3.1,1.8-4.9c0-0.8-0.3-1.6-0.9-2.1C18.6,4.3,17.8,4,17,4c-1.8,0.1-3.5,0.7-4.9,1.8C10.7,6.9,9.6,8.3,9,10
		c-1,0-2,0.3-2.9,0.9C5.2,11.4,4.5,12.1,4,13z M14,9c0,0.3,0.1,0.5,0.3,0.7C14.5,9.9,14.7,10,15,10s0.5-0.1,0.7-0.3
		C15.9,9.5,16,9.3,16,9s-0.1-0.5-0.3-0.7C15.5,8.1,15.3,8,15,8s-0.5,0.1-0.7,0.3C14.1,8.5,14,8.7,14,9z"/>
</g>
</svg>
