<?xml version="1.0" encoding="utf-8"?>
<!-- Generator: Adobe Illustrator 28.1.0, SVG Export Plug-In . SVG Version: 6.00 Build 0)  -->
<svg version="1.1" id="레이어_1" xmlns="http://www.w3.org/2000/svg" xmlns:xlink="http://www.w3.org/1999/xlink" x="0px"
	 y="0px" viewBox="0 0 24 24" style="enable-background:new 0 0 24 24;" xml:space="preserve">
<style type="text/css">
	.st0{fill:none;stroke:#FFFFFF;stroke-width:2;stroke-linecap:round;stroke-linejoin:round;}
</style>
<g id="tabler-icon-devices-2">
	<path id="Vector" class="st0" d="M10,15H4c-0.3,0-0.5-0.1-0.7-0.3C3.1,14.5,3,14.3,3,14V6c0-0.3,0.1-0.5,0.3-0.7C3.5,5.1,3.7,5,4,5
		h6 M7,19h3 M17,8L17,8 M9,15v4 M13,5c0-0.3,0.1-0.5,0.3-0.7C13.5,4.1,13.7,4,14,4h6c0.3,0,0.5,0.1,0.7,0.3C20.9,4.5,21,4.7,21,5v14
		c0,0.3-0.1,0.5-0.3,0.7S20.3,20,20,20h-6c-0.3,0-0.5-0.1-0.7-0.3S13,19.3,13,19V5z M16,16c0,0.3,0.1,0.5,0.3,0.7S16.7,17,17,17
		s0.5-0.1,0.7-0.3S18,16.3,18,16s-0.1-0.5-0.3-0.7S17.3,15,17,15s-0.5,0.1-0.7,0.3S16,15.7,16,16z"/>
</g>
</svg>
