<?xml version="1.0" encoding="utf-8"?>
<!-- Generator: Adobe Illustrator 28.1.0, SVG Export Plug-In . SVG Version: 6.00 Build 0)  -->
<svg version="1.1" id="레이어_1" xmlns="http://www.w3.org/2000/svg" xmlns:xlink="http://www.w3.org/1999/xlink" x="0px"
	 y="0px" viewBox="0 0 24 24" style="enable-background:new 0 0 24 24;" xml:space="preserve">
<style type="text/css">
	.st0{fill:none;stroke:#FFFFFF;stroke-width:2;stroke-linecap:round;stroke-linejoin:round;}
</style>
<g id="tabler-icon-report-analytics">
	<path id="Vector" class="st0" d="M9,5H7C6.5,5,6,5.2,5.6,5.6C5.2,6,5,6.5,5,7v12c0,0.5,0.2,1,0.6,1.4C6,20.8,6.5,21,7,21h10
		c0.5,0,1-0.2,1.4-0.6C18.8,20,19,19.5,19,19V7c0-0.5-0.2-1-0.6-1.4C18,5.2,17.5,5,17,5h-2 M9,5c0-0.5,0.2-1,0.6-1.4
		C10,3.2,10.5,3,11,3h2c0.5,0,1,0.2,1.4,0.6C14.8,4,15,4.5,15,5 M9,5c0,0.5,0.2,1,0.6,1.4C10,6.8,10.5,7,11,7h2c0.5,0,1-0.2,1.4-0.6
		C14.8,6,15,5.5,15,5 M9,17v-5 M12,17v-1 M15,17v-3"/>
</g>
</svg>
