<?xml version="1.0" encoding="utf-8"?>
<!-- Generator: Adobe Illustrator 28.1.0, SVG Export Plug-In . SVG Version: 6.00 Build 0)  -->
<svg version="1.1" id="레이어_1" xmlns="http://www.w3.org/2000/svg" xmlns:xlink="http://www.w3.org/1999/xlink" x="0px"
	 y="0px" viewBox="0 0 24 24" style="enable-background:new 0 0 24 24;" xml:space="preserve">
<style type="text/css">
	.st0{fill:none;stroke:#FFFFFF;stroke-width:2;stroke-linecap:round;stroke-linejoin:round;}
</style>
<g id="tabler-icon-tools">
	<path id="Vector" class="st0" d="M14.5,5.5l4,4 M12,8L7,3L3,7l5,5 M7,8L5.5,9.5 M16,12l5,5l-4,4l-5-5 M16,17l-1.5,1.5 M3,21h4L20,8
		c0.5-0.5,0.8-1.2,0.8-2c0-0.8-0.3-1.5-0.8-2c-0.5-0.5-1.2-0.8-2-0.8S16.5,3.5,16,4L3,17V21z"/>
</g>
</svg>
