<?xml version="1.0" encoding="utf-8"?>
<!-- Generator: Adobe Illustrator 28.1.0, SVG Export Plug-In . SVG Version: 6.00 Build 0)  -->
<svg version="1.1" id="레이어_1" xmlns="http://www.w3.org/2000/svg" xmlns:xlink="http://www.w3.org/1999/xlink" x="0px"
	 y="0px" viewBox="0 0 24 24" style="enable-background:new 0 0 24 24;" xml:space="preserve">
<style type="text/css">
	.st0{fill:none;stroke:#FFFFFF;stroke-width:2;stroke-linecap:round;stroke-linejoin:round;}
</style>
<g id="tabler-icon-user-hexagon">
	<path id="Vector" class="st0" d="M6.2,18.7c0.3-0.8,0.8-1.5,1.5-2C8.3,16.3,9.2,16,10,16h4c0.8,0,1.7,0.3,2.3,0.8
		c0.7,0.5,1.2,1.2,1.5,2 M12,13c0.8,0,1.6-0.3,2.1-0.9S15,10.8,15,10c0-0.8-0.3-1.6-0.9-2.1S12.8,7,12,7s-1.6,0.3-2.1,0.9
		C9.3,8.4,9,9.2,9,10c0,0.8,0.3,1.6,0.9,2.1C10.4,12.7,11.2,13,12,13z M19.9,6.3C20.6,6.7,21,7.4,21,8.2v7.3c0,0.8-0.4,1.6-1.2,1.9
		l-6.7,4.3C12.8,21.9,12.4,22,12,22s-0.8-0.1-1.1-0.3l-6.8-4.3c-0.3-0.2-0.6-0.5-0.8-0.8C3.1,16.3,3,15.9,3,15.5V8.2
		c0-0.8,0.4-1.6,1.2-1.9l6.8-4C11.3,2.1,11.6,2,12,2s0.8,0.1,1.1,0.3L19.9,6.3L19.9,6.3z"/>
</g>
</svg>
