<?xml version="1.0" encoding="utf-8"?>
<!-- Generator: Adobe Illustrator 28.1.0, SVG Export Plug-In . SVG Version: 6.00 Build 0)  -->
<svg version="1.1" id="레이어_1" xmlns="http://www.w3.org/2000/svg" xmlns:xlink="http://www.w3.org/1999/xlink" x="0px"
	 y="0px" viewBox="0 0 24 24" style="enable-background:new 0 0 24 24;" xml:space="preserve">
<style type="text/css">
	.st0{fill:none;stroke:#FFFFFF;stroke-width:2;stroke-linecap:round;stroke-linejoin:round;}
</style>
<g id="tabler-icon-robot">
	<path id="Vector" class="st0" d="M12,2v2 M9,12v9 M15,12v9 M5,16l4-2 M15,14l4,2 M9,18h6 M10,8L10,8 M14,8L14,8 M6,6
		c0-0.5,0.2-1,0.6-1.4C7,4.2,7.5,4,8,4h8c0.5,0,1,0.2,1.4,0.6C17.8,5,18,5.5,18,6v4c0,0.5-0.2,1-0.6,1.4C17,11.8,16.5,12,16,12H8
		c-0.5,0-1-0.2-1.4-0.6C6.2,11,6,10.5,6,10V6z"/>
</g>
</svg>
