<?xml version="1.0" encoding="utf-8"?>
<!-- Generator: Adobe Illustrator 28.1.0, SVG Export Plug-In . SVG Version: 6.00 Build 0)  -->
<svg version="1.1" id="레이어_1" xmlns="http://www.w3.org/2000/svg" xmlns:xlink="http://www.w3.org/1999/xlink" x="0px"
	 y="0px" viewBox="0 0 24 24" style="enable-background:new 0 0 24 24;" xml:space="preserve">
<style type="text/css">
	.st0{fill:none;stroke:#FFFFFF;stroke-width:2;stroke-linecap:round;stroke-linejoin:round;}
</style>
<g id="tabler-icon-mood-search">
	<path id="Vector" class="st0" d="M21,12c0-1.8-0.5-3.5-1.5-5c-1-1.5-2.4-2.6-4-3.3C13.8,3,12,2.8,10.2,3.2C8.5,3.5,6.9,4.4,5.6,5.6
		c-1.3,1.3-2.1,2.9-2.5,4.6C2.8,12,3,13.8,3.7,15.4c0.7,1.6,1.8,3.1,3.3,4c1.5,1,3.2,1.5,5,1.5 M9,10L9,10 M15,10L15,10 M9.5,15
		c0.7,0.7,1.6,1,2.5,1 M20.2,20.2L22,22 M15,18c0,0.8,0.3,1.6,0.9,2.1c0.6,0.6,1.3,0.9,2.1,0.9s1.6-0.3,2.1-0.9
		c0.6-0.6,0.9-1.3,0.9-2.1s-0.3-1.6-0.9-2.1C19.6,15.3,18.8,15,18,15s-1.6,0.3-2.1,0.9C15.3,16.4,15,17.2,15,18z"/>
</g>
</svg>
