<svg width="246" height="240" viewBox="0 0 246 240" fill="none" xmlns="http://www.w3.org/2000/svg">
<path d="M111.818 0V302.87C106.936 300.782 102.055 298.694 97.5028 296.541C94.7981 295.301 92.1593 293.931 89.4546 292.561V164.484C80.2188 173.422 69.9936 183.405 67.0909 186.276V279.903C63.8584 277.88 60.6919 275.793 57.5913 273.705C53.1714 270.703 48.8833 267.506 44.7273 264.244V177.076L48.0917 173.814L81.4063 141.322L44.7273 105.632V44.3017H67.0909V96.3676C69.9936 99.2384 80.2848 109.221 89.4546 118.16V22.1835H0V0.065247H111.818V0ZM54.4248 141.191C54.4248 141.191 27.4433 115.158 22.2977 110.134V44.2364H0V119.464C0 119.464 14.4473 133.427 22.4956 141.191C14.4473 148.955 0 162.983 0 162.983V215.963C5.07965 223.988 11.1488 231.948 18.0756 239.581C19.461 241.082 20.9123 242.583 22.3636 244.083V172.248C27.5093 167.224 54.4907 141.191 54.4907 141.191H54.4248ZM197.908 173.749L164.594 141.256L201.273 105.567V44.2364H178.909V96.3023C175.94 99.1731 165.715 109.156 156.545 118.094V22.1182H246V0H134.182V303C139.195 300.912 144.077 298.759 148.695 296.541C151.4 295.236 153.973 293.931 156.545 292.626V164.419C165.781 173.357 176.006 183.34 178.909 186.211V279.968C182.208 277.946 185.44 275.793 188.673 273.64C193.027 270.638 197.249 267.506 201.273 264.309V176.946L197.974 173.683L197.908 173.749ZM223.504 141.191C231.487 133.427 246 119.464 246 119.464V44.2364H223.636V110.134C218.491 115.158 191.509 141.191 191.509 141.191C191.509 141.191 218.425 167.289 223.636 172.248V244.279C225.154 242.713 226.671 241.147 228.056 239.581C234.851 232.078 240.854 224.249 246 216.224V162.918C246 162.918 231.553 148.89 223.504 141.126V141.191Z" fill="#F1F4FB"/>
</svg>
