<svg width="18" height="19" viewBox="0 0 18 19" fill="none" xmlns="http://www.w3.org/2000/svg">
<g id="icons" clip-path="url(#clip0_600_3382)">
<g id="Group">
<path id="Vector" d="M3.58022 13.1014C1.60714 13.1014 0 11.4868 0 9.49895C0 7.51112 1.60467 5.89648 3.58022 5.89648C5.55577 5.89648 7.16044 7.51112 7.16044 9.49895C7.16044 11.4868 5.55577 13.1014 3.58022 13.1014ZM3.58022 7.26731C2.35632 7.26731 1.35989 8.26993 1.35989 9.50143C1.35989 10.7329 2.35632 11.7356 3.58022 11.7356C4.80412 11.7356 5.80055 10.7329 5.80055 9.50143C5.80055 8.26993 4.80412 7.26731 3.58022 7.26731Z" fill="#222222"/>
<g id="Group_2">
<path id="Vector_2" d="M14.4196 7.20244C12.4465 7.20244 10.8394 5.5878 10.8394 3.59997C10.8394 1.61215 12.4465 0 14.4196 0C16.3927 0 17.9998 1.61464 17.9998 3.60246C17.9998 5.59028 16.3951 7.20492 14.4196 7.20492V7.20244ZM14.4196 1.36834C13.1957 1.36834 12.1992 2.37096 12.1992 3.60246C12.1992 4.83397 13.1957 5.83658 14.4196 5.83658C15.6435 5.83658 16.6399 4.83397 16.6399 3.60246C16.6399 2.37096 15.6435 1.36834 14.4196 1.36834Z" fill="#222222"/>
<path id="Vector_3" d="M14.4196 18.9998C12.4465 18.9998 10.8394 17.3852 10.8394 15.3974C10.8394 13.4096 12.444 11.7949 14.4196 11.7949C16.3951 11.7949 17.9998 13.4096 17.9998 15.3974C17.9998 17.3852 16.3951 18.9998 14.4196 18.9998ZM14.4196 13.1657C13.1957 13.1657 12.1992 14.1684 12.1992 15.3999C12.1992 16.6314 13.1957 17.634 14.4196 17.634C15.6435 17.634 16.6399 16.6314 16.6399 15.3999C16.6399 14.1684 15.6435 13.1657 14.4196 13.1657Z" fill="#222222"/>
</g>
</g>
<g id="Group_3">
<path id="Vector_4" d="M11.5813 3.9361L5.18555 7.66211L5.86693 8.84629L12.2627 5.12027L11.5813 3.9361Z" fill="#222222"/>
<path id="Vector_5" d="M5.86986 10.1557L5.18848 11.3398L11.5842 15.0659L12.2656 13.8817L5.86986 10.1557Z" fill="#222222"/>
</g>
</g>
<defs>
<clipPath id="clip0_600_3382">
<rect width="18" height="19" fill="white"/>
</clipPath>
</defs>
</svg>
