<svg width="32" height="33" viewBox="0 0 32 33" fill="none" xmlns="http://www.w3.org/2000/svg">
<g id="tabler-icon-coins">
<path id="Vector" d="M12 19.1667C12 21.376 15.5813 23.1667 20 23.1667C24.4187 23.1667 28 21.376 28 19.1667M12 19.1667C12 16.9573 15.5813 15.1667 20 15.1667C24.4187 15.1667 28 16.9573 28 19.1667M12 19.1667V24.5C12 26.708 15.5813 28.5 20 28.5C24.4187 28.5 28 26.708 28 24.5V19.1667M4 8.5C4 9.92933 5.52533 11.2493 8 11.964C10.4747 12.6787 13.5253 12.6787 16 11.964C18.4747 11.2493 20 9.92933 20 8.5C20 7.07067 18.4747 5.75067 16 5.036C13.5253 4.32133 10.4747 4.32133 8 5.036C5.52533 5.75067 4 7.07067 4 8.5ZM4 8.5V21.8333C4 23.0173 5.02933 23.7667 6.66667 24.5M4 15.1667C4 16.3507 5.02933 17.1 6.66667 17.8333" stroke="white" stroke-width="1.5" stroke-linecap="round" stroke-linejoin="round"/>
</g>
</svg>
