<svg width="32" height="33" viewBox="0 0 32 33" fill="none" xmlns="http://www.w3.org/2000/svg">
<g id="tabler-icon-vocabulary">
<path id="Vector" d="M16 7.16667C16 6.45942 15.719 5.78115 15.219 5.28105C14.7189 4.78095 14.0406 4.5 13.3333 4.5H5.33333C4.97971 4.5 4.64057 4.64048 4.39052 4.89052C4.14048 5.14057 4 5.47971 4 5.83333V24.5C4 24.8536 4.14048 25.1928 4.39052 25.4428C4.64057 25.6929 4.97971 25.8333 5.33333 25.8333H13.3333C14.0406 25.8333 14.7189 26.1143 15.219 26.6144C15.719 27.1145 16 27.7928 16 28.5M16 7.16667C16 6.45942 16.281 5.78115 16.781 5.28105C17.2811 4.78095 17.9594 4.5 18.6667 4.5H26.6667C27.0203 4.5 27.3594 4.64048 27.6095 4.89052C27.8595 5.14057 28 5.47971 28 5.83333V24.5C28 24.8536 27.8595 25.1928 27.6095 25.4428C27.3594 25.6929 27.0203 25.8333 26.6667 25.8333H18.6667C17.9594 25.8333 17.2811 26.1143 16.781 26.6144C16.281 27.1145 16 27.7928 16 28.5M16 7.16667V28.5M9.33333 9.83333H10.6667M9.33333 15.1667H10.6667M21.3333 9.83333H22.6667M21.3333 15.1667H22.6667M21.3333 20.5H22.6667" stroke="white" stroke-width="1.5" stroke-linecap="round" stroke-linejoin="round"/>
</g>
</svg>
