<?xml version="1.0" encoding="utf-8"?>
<!-- Generator: Adobe Illustrator 28.0.0, SVG Export Plug-In . SVG Version: 6.00 Build 0)  -->
<svg version="1.1" id="레이어_1" xmlns="http://www.w3.org/2000/svg" xmlns:xlink="http://www.w3.org/1999/xlink" x="0px"
	 y="0px" viewBox="0 0 300 40" style="enable-background:new 0 0 300 40;" xml:space="preserve">
<style type="text/css">
	.st0{fill:#FFFFFF;stroke:#FFFFFF;}
	.st1{fill:#FFFFFF;}
	.st2{clip-path:url(#SVGID_00000179609093631523636460000005632147587334284717_);}
	.st3{fill:none;stroke:#FFFFFF;stroke-width:2.5;stroke-linecap:round;stroke-linejoin:round;}
</style>
<g id="icon">
	<path id="Vector" class="st0" d="M25.9,38c-0.5,0-0.9-0.4-0.9-0.8V22l-2.4-4.5c-0.1-0.1-0.1-0.2-0.1-0.4V4.9c0-0.5,0.4-0.8,0.9-0.8
		c0.5,0,0.9,0.4,0.9,0.8v12l2.4,4.5c0.1,0.1,0.1,0.2,0.1,0.4v15.4C26.9,37.6,26.5,38,25.9,38z"/>
	<path id="Vector_2" class="st0" d="M26.1,22.5c-0.3,0-0.6-0.2-0.8-0.4c-0.3-0.4-0.1-0.9,0.3-1.1l5.6-2.9V9.9c0-0.5,0.4-0.8,0.9-0.8
		c0.5,0,0.9,0.4,0.9,0.8v8.6c0,0.3-0.2,0.6-0.5,0.7l-6.1,3.1C26.4,22.5,26.3,22.5,26.1,22.5L26.1,22.5z"/>
	<path id="Vector_3" class="st0" d="M26.1,28.5c-0.3,0-0.7-0.2-0.8-0.5c-0.2-0.4,0-0.9,0.4-1.1l13-5.9v-5.6c0-0.5,0.4-0.8,0.9-0.8
		c0.5,0,0.9,0.4,0.9,0.8v6.1c0,0.3-0.2,0.6-0.5,0.7l-13.5,6.1C26.4,28.5,26.3,28.5,26.1,28.5z"/>
	<path id="Vector_4" class="st0" d="M26.6,34.8c-0.4,0-0.7-0.2-0.9-0.5c-0.2-0.4,0-0.9,0.5-1.1l10.9-4.3c0.5-0.2,1,0,1.2,0.4
		c0.2,0.4,0,0.9-0.5,1.1L27,34.7C26.8,34.7,26.7,34.8,26.6,34.8z"/>
	<path id="Vector_5" class="st0" d="M25.5,29.3c-0.2,0-0.4-0.1-0.6-0.2l-9.5-6.4c-0.2-0.2-0.4-0.4-0.4-0.7V11.1
		c0-0.5,0.4-0.8,0.9-0.8c0.5,0,0.9,0.4,0.9,0.8v10.7l9.2,6.1c0.4,0.3,0.5,0.8,0.2,1.2C26.1,29.2,25.8,29.3,25.5,29.3z"/>
	<path id="Vector_6" class="st0" d="M25.9,36.8c-0.2,0-0.4-0.1-0.5-0.2l-16.2-10c-0.3-0.2-0.4-0.4-0.4-0.7v-6.1
		c0-0.5,0.4-0.8,0.9-0.8c0.5,0,0.9,0.4,0.9,0.8v5.6l15.8,9.7c0.4,0.3,0.5,0.8,0.2,1.2C26.5,36.7,26.2,36.8,25.9,36.8L25.9,36.8z"/>
	<g id="Group">
		<g id="Group_2">
			<path id="Vector_7" class="st0" d="M26.3,5.2c0,1.3-1.2,2.3-2.6,2.3c-1.4,0-2.6-1-2.6-2.3c0-1.3,1.2-2.3,2.6-2.3
				C25.2,2.8,26.3,3.9,26.3,5.2z"/>
			<path id="Vector_8" class="st0" d="M23.8,8.3c-1.9,0-3.5-1.4-3.5-3.2S21.8,2,23.8,2c2,0,3.5,1.4,3.5,3.2
				C27.3,6.9,25.7,8.3,23.8,8.3L23.8,8.3z M23.8,3.7c-0.9,0-1.7,0.7-1.7,1.5c0,0.8,0.7,1.5,1.7,1.5c0.9,0,1.7-0.7,1.7-1.5
				C25.4,4.3,24.7,3.7,23.8,3.7z"/>
		</g>
		<g id="Group_3">
			<path id="Vector_9" class="st0" d="M18.9,11.3c0,1.3-1.2,2.3-2.6,2.3c-1.4,0-2.6-1-2.6-2.3c0-1.3,1.2-2.3,2.6-2.3
				C17.7,8.9,18.9,10,18.9,11.3z"/>
			<path id="Vector_10" class="st0" d="M16.3,14.4c-1.9,0-3.5-1.4-3.5-3.2c0-1.7,1.6-3.2,3.5-3.2c2,0,3.5,1.4,3.5,3.2
				C19.8,13,18.2,14.4,16.3,14.4z M16.3,9.8c-0.9,0-1.7,0.7-1.7,1.5s0.7,1.5,1.7,1.5c0.9,0,1.7-0.7,1.7-1.5S17.2,9.8,16.3,9.8z"/>
		</g>
		<g id="Group_4">
			<path id="Vector_11" class="st0" d="M35.1,10.2c0,1.3-1.2,2.3-2.6,2.3c-1.4,0-2.6-1-2.6-2.3c0-1.3,1.2-2.3,2.6-2.3
				C33.9,7.8,35.1,8.9,35.1,10.2z"/>
			<path id="Vector_12" class="st0" d="M32.5,13.3c-1.9,0-3.5-1.4-3.5-3.2c0-1.7,1.6-3.2,3.5-3.2c2,0,3.5,1.4,3.5,3.2
				C36,11.9,34.4,13.3,32.5,13.3z M32.5,8.7c-0.9,0-1.7,0.7-1.7,1.5c0,0.8,0.7,1.5,1.7,1.5c0.9,0,1.7-0.7,1.7-1.5
				C34.1,9.3,33.4,8.7,32.5,8.7z"/>
		</g>
		<g id="Group_5">
			<path id="Vector_13" class="st0" d="M42.6,15.7c0,1.3-1.2,2.3-2.6,2.3c-1.4,0-2.6-1-2.6-2.3c0-1.3,1.2-2.3,2.6-2.3
				C41.4,13.4,42.6,14.4,42.6,15.7z"/>
			<path id="Vector_14" class="st0" d="M40,18.9c-1.9,0-3.5-1.4-3.5-3.2c0-1.7,1.6-3.2,3.5-3.2c2,0,3.5,1.4,3.5,3.2
				C43.5,17.4,41.9,18.9,40,18.9z M40,14.2c-0.9,0-1.7,0.7-1.7,1.5c0,0.8,0.7,1.5,1.7,1.5c0.9,0,1.7-0.7,1.7-1.5
				C41.6,14.9,40.9,14.2,40,14.2z"/>
		</g>
		<g id="Group_6">
			<path id="Vector_15" class="st0" d="M40.1,29.6c0,1.3-1.2,2.3-2.6,2.3c-1.4,0-2.6-1-2.6-2.3c0-1.3,1.2-2.3,2.6-2.3
				C38.9,27.3,40.1,28.3,40.1,29.6z"/>
			<path id="Vector_16" class="st0" d="M37.5,32.7c-1.9,0-3.5-1.4-3.5-3.2c0-1.7,1.6-3.2,3.5-3.2s3.5,1.4,3.5,3.2
				C41,31.3,39.4,32.7,37.5,32.7z M37.5,28.1c-0.9,0-1.7,0.7-1.7,1.5c0,0.8,0.7,1.5,1.7,1.5s1.7-0.7,1.7-1.5
				C39.1,28.8,38.4,28.1,37.5,28.1z"/>
		</g>
		<g id="Group_7">
			<path id="Vector_17" class="st0" d="M12.6,19.6c0,1.3-1.2,2.3-2.6,2.3s-2.6-1-2.6-2.3s1.2-2.3,2.6-2.3S12.6,18.3,12.6,19.6z"/>
			<path id="Vector_18" class="st0" d="M10,22.7c-1.9,0-3.5-1.4-3.5-3.2c0-1.7,1.6-3.2,3.5-3.2c2,0,3.5,1.4,3.5,3.2
				C13.6,21.3,12,22.7,10,22.7z M10,18.1c-0.9,0-1.7,0.7-1.7,1.5c0,0.8,0.7,1.5,1.7,1.5c0.9,0,1.7-0.7,1.7-1.5
				C11.7,18.8,10.9,18.1,10,18.1z"/>
		</g>
	</g>
</g>
<g id="Group_284">
	<g id="Group_00000113317378153835580340000006192586288062154918_">
		<path id="Vector_00000052793926111936739620000014036450873864670616_" class="st1" d="M87.6,15.9h-30c-0.6,0-1.2-0.5-1.2-1V5.5
			c0-0.6,0.5-1,1.2-1h30c3.3,0,6,2.3,6,5.2v0.9C93.5,13.5,90.9,15.9,87.6,15.9L87.6,15.9z M58.8,13.8h28.8c2,0,3.6-1.4,3.6-3.2V9.7
			c0-1.8-1.6-3.2-3.6-3.2H58.8V13.8L58.8,13.8z"/>
	</g>
	<g id="Group_2_00000170274179499636002820000000620426944257459599_">
		<path id="Vector_2_00000125571608189002838300000009269550559057840005_" class="st1" d="M67.8,9.9h-9.3c-0.6,0-1.2-0.5-1.2-1
			c0-0.6,0.5-1,1.2-1h9.3c0.6,0,1.2,0.5,1.2,1C68.9,9.5,68.4,9.9,67.8,9.9z"/>
		<path id="Vector_3_00000065759343371160049730000012003915895777115045_" class="st1" d="M68.5,12.6H58.5c-0.6,0-1.2-0.5-1.2-1
			s0.5-1,1.2-1h10.1c0.6,0,1.2,0.5,1.2,1S69.2,12.6,68.5,12.6z"/>
	</g>
	<g id="Group_3_00000070115524871408285710000006338187151358666903_">
		<path id="Vector_4_00000072964445019692205810000018153586238853122209_" class="st1" d="M85.9,35.5h-30c-0.6,0-1.2-0.5-1.2-1
			v-9.3c0-0.6,0.5-1,1.2-1h30c3.3,0,6,2.3,6,5.2v0.9C91.8,33.1,89.1,35.5,85.9,35.5L85.9,35.5z M57.1,33.5h28.8c2,0,3.6-1.4,3.6-3.2
			v-0.9c0-1.8-1.6-3.2-3.6-3.2H57.1V33.5L57.1,33.5z"/>
	</g>
	<g id="Group_4_00000019680034423725551110000011460240094541062076_">
		<path id="Vector_5_00000059307442776800933400000000709032224251283089_" class="st1" d="M68.5,28.9H56.1c-0.6,0-1.2-0.5-1.2-1
			s0.5-1,1.2-1h12.4c0.6,0,1.2,0.5,1.2,1S69.2,28.9,68.5,28.9z"/>
		<path id="Vector_6_00000038399294300736514650000004210400652555889046_" class="st1" d="M65.4,32.3h-9.3c-0.6,0-1.2-0.5-1.2-1
			s0.5-1,1.2-1h9.3c0.6,0,1.2,0.5,1.2,1S66.1,32.3,65.4,32.3z"/>
	</g>
	<g id="Group_5_00000083783586030146632130000013838824854735752342_">
		<path id="Vector_7_00000062897378941560158790000008480019779147873941_" class="st1" d="M94.1,25.7H64.9c-3.3,0-6-2.3-6-5.2v-0.9
			c0-2.9,2.7-5.2,6-5.2h29.2c0.6,0,1.2,0.5,1.2,1v9.3C95.3,25.2,94.7,25.7,94.1,25.7L94.1,25.7z M64.9,16.3c-2,0-3.6,1.4-3.6,3.2
			v0.9c0,1.8,1.6,3.2,3.6,3.2h28v-7.3L64.9,16.3L64.9,16.3z"/>
	</g>
	<g id="Group_6_00000132768509450466902360000003912775279008369336_">
		<path id="Vector_8_00000164511432474404617310000009645797008888622767_" class="st1" d="M94.1,19.4h-8.5c-0.6,0-1.2-0.5-1.2-1
			s0.5-1,1.2-1h8.5c0.6,0,1.2,0.5,1.2,1S94.8,19.4,94.1,19.4z"/>
		<path id="Vector_9_00000105392803865660253180000012501527442567040679_" class="st1" d="M94.1,22.2h-9.3c-0.6,0-1.2-0.5-1.2-1
			c0-0.6,0.5-1,1.2-1h9.3c0.6,0,1.2,0.5,1.2,1C95.3,21.7,94.7,22.2,94.1,22.2z"/>
	</g>
	<path id="Vector_10_00000162330266502889689070000002556028314987348639_" class="st1" d="M71.6,32.3h-3.1c-0.6,0-1.2-0.5-1.2-1
		c0-0.6,0.5-1,1.2-1h3.1c0.6,0,1.2,0.5,1.2,1C72.8,31.9,72.3,32.3,71.6,32.3z"/>
</g>
<g>
	<defs>
		<rect id="SVGID_1_" x="153" y="1.5" width="44" height="37"/>
	</defs>
	<clipPath id="SVGID_00000113324575722445437600000018109194788846204805_">
		<use xlink:href="#SVGID_1_"  style="overflow:visible;"/>
	</clipPath>
	<g id="Layer_6" style="clip-path:url(#SVGID_00000113324575722445437600000018109194788846204805_);">
		<path id="Vector_00000157286425851160740960000003592554286036703397_" class="st1" d="M189.1,37.5h-27.9c-0.6,0-1.2-0.5-1.2-1
			V18.6c0-0.6,0.5-1,1.2-1c0.6,0,1.2,0.5,1.2,1v16.9h25.5V18.6c0-0.6,0.5-1,1.2-1s1.2,0.5,1.2,1v17.9
			C190.2,37,189.7,37.5,189.1,37.5z"/>
		<path id="Vector_2_00000011751529546040516730000008862188518323414938_" class="st1" d="M194.8,19.9c-0.3,0-0.5-0.1-0.8-0.3
			L175,4.9l-19.1,14.6c-0.5,0.4-1.2,0.3-1.6-0.1c-0.4-0.4-0.4-1.1,0.1-1.4l19.8-15.2c0.4-0.3,1.1-0.3,1.5,0l19.8,15.3
			c0.5,0.4,0.5,1,0.1,1.4C195.5,19.7,195.2,19.9,194.8,19.9L194.8,19.9z"/>
		<path id="Vector_3_00000075120522449572017650000003343790966239248007_" class="st1" d="M180.1,37.3h-9.9c-0.6,0-1.2-0.5-1.2-1
			V25.2c0-2.2,2.1-4,4.6-4h3c2.6,0,4.6,1.8,4.6,4v11.1C181.3,36.8,180.8,37.3,180.1,37.3z M171.4,35.3h7.6V25.2c0-1.1-1-2-2.3-2h-3
			c-1.3,0-2.3,0.9-2.3,2V35.3z"/>
	</g>
</g>
<g id="Group_285">
	<path id="Vector_00000092449102004319506040000013195483206349682864_" class="st1" d="M117.6,23.6c-1.7,0-3,1.3-3,3s1.3,3,3,3
		c1.7,0,3-1.3,3-3S119.3,23.6,117.6,23.6z M117.6,27.5c-0.5,0-0.9-0.4-0.9-0.9c0-0.5,0.4-0.9,0.9-0.9c0.5,0,0.9,0.4,0.9,0.9
		C118.5,27.1,118.1,27.5,117.6,27.5z"/>
	<path id="Vector_2_00000171701824080676177480000009087970454182612612_" class="st1" d="M132.1,23.6c-1.7,0-3,1.3-3,3s1.3,3,3,3
		c1.7,0,3-1.3,3-3S133.8,23.6,132.1,23.6z M132.1,27.5c-0.5,0-0.9-0.4-0.9-0.9c0-0.5,0.4-0.9,0.9-0.9c0.5,0,0.9,0.4,0.9,0.9
		C133,27.1,132.6,27.5,132.1,27.5z"/>
	<path id="Vector_3_00000181062465133462934020000009018689252727904394_" class="st1" d="M137.4,4.6h-7.5V2.4c0-0.5-0.5-1-1.2-1
		h-7.5c-0.7,0-1.2,0.4-1.2,1v2.2h-7.5c-2,0-3.6,1.3-3.6,2.9v23.4c0,1.5,1.5,2.8,3.4,2.9v2.4c0,1.3,1.3,2.4,2.9,2.4h0.2
		c1.6,0,2.9-1.1,2.9-2.4v-2.4h13.3v2.4c0,1.3,1.3,2.4,2.9,2.4h0.2c1.6,0,2.9-1.1,2.9-2.4v-2.4c1.9-0.1,3.4-1.4,3.4-2.9V7.5
		C141,5.9,139.4,4.6,137.4,4.6L137.4,4.6z M111.4,10.5c0.1,0,0.2,0,0.3,0h27v7h-27c-0.1,0-0.2,0-0.3,0V10.5z M122.4,3.4h5.2v1.2
		h-5.2V3.4z M112.6,6.5h24.8c0.7,0,1.2,0.5,1.2,1v1.1h-27c-0.1,0-0.2,0-0.3,0V7.5C111.4,6.9,111.9,6.5,112.6,6.5L112.6,6.5z
		 M116,36.2c0,0.2-0.3,0.5-0.6,0.5h-0.2c-0.3,0-0.6-0.2-0.6-0.5v-2.3h1.3V36.2z M135.3,36.2c0,0.2-0.3,0.5-0.6,0.5h-0.2
		c-0.3,0-0.6-0.2-0.6-0.5v-2.3h1.3V36.2z M137.4,31.9h-24.8c-0.7,0-1.2-0.5-1.2-1V19.4c0.1,0,0.2,0,0.3,0h27v11.4
		C138.6,31.4,138.1,31.9,137.4,31.9L137.4,31.9z"/>
</g>
<g id="_x5F_ê_xB2__xA9_ë_xA6__xAC__x5F_ë_xAA__xA8_ë_x93__x9C_">
	<path id="Vector_00000039130614591337864410000013238282156781498765_" class="st3" d="M290,1.9h-30v36.2h30V1.9z"/>
	<path id="Vector_2_00000120534163221761739000000012986213059881574293_" class="st3" d="M284.9,29.2c0.6-2.6-1-5.2-3.6-5.9
		c-2.6-0.6-5.2,1-5.9,3.6c-0.6,2.6,1,5.2,3.6,5.9C281.6,33.4,284.2,31.8,284.9,29.2z"/>
	<path id="Vector_3_00000060010401198723493790000015237884293702362281_" class="st3" d="M270.8,8.4h8.4"/>
	<path id="Vector_4_00000031892776476747556760000010039571398188302509_" class="st3" d="M265.9,14h18.2"/>
	<path id="Vector_5_00000127037928819038267290000005046457530095363212_" class="st3" d="M265.9,18.8h18.2"/>
</g>
<g id="Layer_6_00000029765379601066542690000001776939149054778047_">
	<path id="Vector_00000112593155223443702050000002725178795301869738_" class="st3" d="M225,22.8l-23.5-9.1L225,4.6l23.5,9.1
		L225,22.8z"/>
	<path id="Vector_2_00000140736819987347764080000016915920380547904163_" class="st3" d="M237.7,18.4v12.6c0,1.6-5.7,3.9-12.7,3.9
		c-7,0-12.7-2.3-12.7-3.9V18.4"/>
	<path id="Vector_3_00000013910757118280936410000000226299015196456616_" class="st3" d="M245.4,15.1v15.6"/>
	<path id="Vector_4_00000067915042702729580210000010774494591034170526_" class="st3" d="M247.7,33.1c0,1.3-1.1,2.4-2.4,2.4
		c-1.3,0-2.4-1.1-2.4-2.4c0-1.3,1.1-2.4,2.4-2.4C246.7,30.7,247.7,31.8,247.7,33.1z"/>
</g>
</svg>
