<svg width="33" height="33" viewBox="0 0 33 33" fill="none" xmlns="http://www.w3.org/2000/svg">
<g id="tabler-icon-device-desktop-analytics">
<path id="Vector" d="M9.66683 27.1673H23.0002M12.3335 21.834V27.1673M20.3335 21.834V27.1673M12.3335 16.5007V11.1673M16.3335 16.5007V15.1673M20.3335 16.5007V13.834M4.3335 7.16732C4.3335 6.8137 4.47397 6.47456 4.72402 6.22451C4.97407 5.97446 5.31321 5.83398 5.66683 5.83398H27.0002C27.3538 5.83398 27.6929 5.97446 27.943 6.22451C28.193 6.47456 28.3335 6.8137 28.3335 7.16732V20.5007C28.3335 20.8543 28.193 21.1934 27.943 21.4435C27.6929 21.6935 27.3538 21.834 27.0002 21.834H5.66683C5.31321 21.834 4.97407 21.6935 4.72402 21.4435C4.47397 21.1934 4.3335 20.8543 4.3335 20.5007V7.16732Z" stroke="white" stroke-width="1.5" stroke-linecap="round" stroke-linejoin="round"/>
</g>
</svg>
