<svg width="33" height="33" viewBox="0 0 33 33" fill="none" xmlns="http://www.w3.org/2000/svg">
<g id="tabler-icon-certificate">
<path id="Vector" d="M18.0003 23.8327V29.8327L20.667 27.8327L23.3337 29.8327V23.8327M14.0003 25.8327H7.33366C6.62641 25.8327 5.94814 25.5517 5.44804 25.0516C4.94794 24.5515 4.66699 23.8733 4.66699 23.166V9.83268C4.66699 8.36602 5.86699 7.16602 7.33366 7.16602H26.0003C26.7076 7.16602 27.3858 7.44697 27.8859 7.94706C28.386 8.44716 28.667 9.12544 28.667 9.83268V23.166C28.6665 23.6336 28.5431 24.0929 28.309 24.4978C28.075 24.9027 27.7386 25.2389 27.3337 25.4727M8.66699 12.4993H24.667M8.66699 16.4993H12.667M8.66699 20.4993H11.3337M16.667 20.4993C16.667 21.5602 17.0884 22.5776 17.8386 23.3278C18.5887 24.0779 19.6061 24.4993 20.667 24.4993C21.7279 24.4993 22.7453 24.0779 23.4954 23.3278C24.2456 22.5776 24.667 21.5602 24.667 20.4993C24.667 19.4385 24.2456 18.4211 23.4954 17.6709C22.7453 16.9208 21.7279 16.4993 20.667 16.4993C19.6061 16.4993 18.5887 16.9208 17.8386 17.6709C17.0884 18.4211 16.667 19.4385 16.667 20.4993Z" stroke="white" stroke-width="1.5" stroke-linecap="round" stroke-linejoin="round"/>
</g>
</svg>
