<svg width="33" height="33" viewBox="0 0 33 33" fill="none" xmlns="http://www.w3.org/2000/svg">
<g id="tabler-icon-bus-stop">
<path id="Vector" d="M22.0003 23.1667C22.0003 23.8739 22.2813 24.5522 22.7814 25.0523C23.2815 25.5524 23.9597 25.8333 24.667 25.8333C25.3742 25.8333 26.0525 25.5524 26.5526 25.0523C27.0527 24.5522 27.3337 23.8739 27.3337 23.1667M22.0003 23.1667C22.0003 22.4594 22.2813 21.7811 22.7814 21.281C23.2815 20.781 23.9597 20.5 24.667 20.5C25.3742 20.5 26.0525 20.781 26.5526 21.281C27.0527 21.7811 27.3337 22.4594 27.3337 23.1667M22.0003 23.1667H11.3337M27.3337 23.1667H30.0003V16.5M14.0003 7.16667H23.3337C27.015 7.16667 30.0003 11.3453 30.0003 16.5M30.0003 16.5H24.0003L22.0003 7.16667M13.3337 13.8333H23.3337M16.667 7.16667V13.8333M7.33366 12.5V27.1667M4.66699 5.83333C4.66699 5.47971 4.80747 5.14057 5.05752 4.89052C5.30756 4.64048 5.6467 4.5 6.00033 4.5H8.66699C9.02061 4.5 9.35975 4.64048 9.6098 4.89052C9.85985 5.14057 10.0003 5.47971 10.0003 5.83333V11.1667C10.0003 11.5203 9.85985 11.8594 9.6098 12.1095C9.35975 12.3595 9.02061 12.5 8.66699 12.5H6.00033C5.6467 12.5 5.30756 12.3595 5.05752 12.1095C4.80747 11.8594 4.66699 11.5203 4.66699 11.1667V5.83333Z" stroke="white" stroke-width="1.5" stroke-linecap="round" stroke-linejoin="round"/>
</g>
</svg>
