<svg width="100" height="100" viewBox="0 0 100 100" fill="none" xmlns="http://www.w3.org/2000/svg">
<g id="Frame 736">
<rect width="100" height="100" rx="20" fill="#EEF3FC"/>
<g id="Group">
<path id="Vector" d="M66.98 51.9602V55.1102C66.98 57.0702 65.39 58.6602 63.43 58.6602C61.47 58.6602 59.88 57.0702 59.88 55.1102V52.6902C56.63 52.9302 53.32 53.0602 49.98 53.0602C46.64 53.0602 43.32 52.9302 40.08 52.6902V55.1102C40.08 57.0702 38.49 58.6602 36.53 58.6602C34.57 58.6602 32.98 57.0702 32.98 55.1102V51.9602C30.05 51.5702 27.22 51.0702 24.52 50.4902V72.4602H75.46V50.4902C72.75 51.0802 69.93 51.5802 67 51.9602H66.98Z" fill="white"/>
<path id="Vector_2" d="M32.96 48.6608C32.96 46.7008 34.55 45.1108 36.51 45.1108C38.47 45.1108 40.06 46.7008 40.06 48.6608V51.1908C43.3 51.4308 46.62 51.5608 49.96 51.5608C53.3 51.5608 56.62 51.4408 59.86 51.1908V48.6608C59.86 46.7008 61.45 45.1108 63.41 45.1108C65.37 45.1108 66.96 46.7008 66.96 48.6608V50.4408C69.89 50.0508 72.72 49.5608 75.42 48.9608V33.4308C75.42 31.0208 73.46 29.0508 71.04 29.0508H28.88C26.47 29.0508 24.5 31.0108 24.5 33.4308V48.9608C27.2 49.5608 30.04 50.0508 32.96 50.4408V48.6608Z" fill="white"/>
<path id="Vector_3" d="M71.06 27.55H60.3C59.66 23.86 55.28 21 49.97 21C44.66 21 40.27 23.87 39.64 27.55H28.88C25.64 27.55 23 30.19 23 33.43V73.21C23 73.62 23.34 73.96 23.75 73.96H76.19C76.6 73.96 76.94 73.62 76.94 73.21V33.43C76.94 30.19 74.3 27.55 71.06 27.55ZM24.5 72.45V50.48C27.21 51.07 30.03 51.57 32.96 51.95V55.1C32.96 57.06 34.55 58.65 36.51 58.65C38.47 58.65 40.06 57.06 40.06 55.1V52.68C43.31 52.92 46.62 53.05 49.96 53.05C53.3 53.05 56.62 52.92 59.86 52.68V55.1C59.86 57.06 61.45 58.65 63.41 58.65C65.37 58.65 66.96 57.06 66.96 55.1V51.95C69.89 51.56 72.72 51.06 75.42 50.48V72.45H24.5ZM24.5 33.42C24.5 31.01 26.46 29.04 28.88 29.04H71.07C73.48 29.04 75.45 31 75.45 33.42V48.95C72.75 49.55 69.91 50.04 66.99 50.43V48.65C66.99 46.69 65.4 45.1 63.44 45.1C61.48 45.1 59.89 46.69 59.89 48.65V51.18C56.65 51.42 53.33 51.55 49.99 51.55C46.65 51.55 43.33 51.43 40.09 51.18V48.65C40.09 46.69 38.5 45.1 36.54 45.1C34.58 45.1 32.99 46.69 32.99 48.65V50.43C30.06 50.04 27.23 49.55 24.53 48.95V33.42H24.5ZM34.46 48.65C34.46 47.52 35.38 46.6 36.51 46.6C37.64 46.6 38.56 47.52 38.56 48.65V55.1C38.56 56.23 37.64 57.15 36.51 57.15C35.38 57.15 34.46 56.23 34.46 55.1V48.65ZM61.37 48.65C61.37 47.52 62.29 46.6 63.42 46.6C64.55 46.6 65.47 47.52 65.47 48.65V55.1C65.47 56.23 64.55 57.15 63.42 57.15C62.29 57.15 61.37 56.23 61.37 55.1V48.65ZM49.97 22.49C54.42 22.49 58.11 24.69 58.77 27.54H41.16C41.83 24.68 45.51 22.49 49.96 22.49H49.97Z" fill="#444444"/>
<path id="Vector_4" d="M36.52 57.1594C37.65 57.1594 38.57 56.2394 38.57 55.1094V48.6594C38.57 47.5294 37.65 46.6094 36.52 46.6094C35.39 46.6094 34.47 47.5294 34.47 48.6594V55.1094C34.47 56.2394 35.39 57.1594 36.52 57.1594Z" fill="#FFEF85"/>
<path id="Vector_5" d="M63.4201 57.1594C64.5501 57.1594 65.4701 56.2394 65.4701 55.1094V48.6594C65.4701 47.5294 64.5501 46.6094 63.4201 46.6094C62.2901 46.6094 61.3701 47.5294 61.3701 48.6594V55.1094C61.3701 56.2394 62.2901 57.1594 63.4201 57.1594Z" fill="#FFEF85"/>
</g>
</g>
</svg>
