<svg width="100" height="100" viewBox="0 0 100 100" fill="none" xmlns="http://www.w3.org/2000/svg">
<g id="Frame 735">
<rect width="100" height="100" rx="20" fill="#EEF3FC"/>
<g id="Group">
<path id="Vector" d="M47.2505 40.8553L48.1705 43.3553H58.1405C58.5505 43.3553 58.8905 43.6953 58.8905 44.1053V49.2653C58.8905 51.6453 57.9505 53.7953 56.4405 55.4053H57.9505C58.3905 55.4053 58.8305 55.4453 59.2505 55.5153C59.5505 54.8553 59.7305 54.1253 59.7305 53.3553V43.8153C59.7305 43.5453 59.7105 43.2753 59.6905 43.0153C56.6605 41.4953 53.3005 40.6953 49.9105 40.6953C49.0205 40.6953 48.1305 40.7553 47.2505 40.8653V40.8553Z" fill="#D89568"/>
<path id="Vector_2" d="M43.3906 55.4056C41.8806 53.7956 40.9406 51.6356 40.9406 49.2656V44.1056C40.9406 43.6956 41.2806 43.3556 41.6906 43.3556H44.2406L45.0106 41.2656C43.3206 41.6556 41.6906 42.2456 40.1306 43.0156C40.1106 43.2756 40.0906 43.5456 40.0906 43.8156V53.3556C40.0906 54.1256 40.2606 54.8556 40.5706 55.5156C41.0006 55.4556 41.4306 55.4056 41.8706 55.4056H43.3806H43.3906Z" fill="#D89568"/>
<path id="Vector_3" d="M57.9505 56.9043H54.6005C53.2305 57.7443 51.6305 58.2343 49.9205 58.2343C48.2105 58.2343 46.6005 57.7443 45.2405 56.9043H41.8905C37.9705 56.9043 34.7805 60.0943 34.7805 64.0143V73.4443H39.7005V68.6743C39.7005 68.2643 40.0405 67.9243 40.4505 67.9243C40.8605 67.9243 41.2005 68.2643 41.2005 68.6743V73.4443H58.6405V68.6743C58.6405 68.2643 58.9805 67.9243 59.3905 67.9243C59.8005 67.9243 60.1405 68.2643 60.1405 68.6743V73.4443H65.0605V64.0143C65.0605 60.0943 61.8705 56.9043 57.9505 56.9043Z" fill="#9BB6FF"/>
<path id="Vector_4" d="M57.3904 44.8455H47.6504C47.3404 44.8455 47.0604 44.6455 46.9504 44.3555L46.2104 42.3555L45.4704 44.3555C45.3604 44.6455 45.0804 44.8455 44.7704 44.8455H42.4404V49.2555C42.4404 53.3755 45.7904 56.7355 49.9204 56.7355C54.0504 56.7355 57.4004 53.3855 57.4004 49.2555V44.8455H57.3904ZM47.8104 49.7755C48.9704 50.9355 50.8604 50.9355 52.0204 49.7755C52.3104 49.4855 52.7904 49.4855 53.0804 49.7755C53.3704 50.0655 53.3704 50.5455 53.0804 50.8355C52.2104 51.7055 51.0604 52.1455 49.9204 52.1455C48.7804 52.1455 47.6304 51.7055 46.7604 50.8355C46.4704 50.5455 46.4704 50.0655 46.7604 49.7755C47.0504 49.4855 47.5304 49.4855 47.8204 49.7755H47.8104ZM46.5004 46.0955C47.0304 46.0955 47.4504 46.5155 47.4504 47.0455C47.4504 47.5755 47.0204 47.9955 46.5004 47.9955C45.9804 47.9955 45.5504 47.5655 45.5504 47.0455C45.5504 46.5255 45.9804 46.0955 46.5004 46.0955ZM53.3304 47.9955C52.8004 47.9955 52.3804 47.5655 52.3804 47.0455C52.3804 46.5255 52.8104 46.0955 53.3304 46.0955C53.8504 46.0955 54.2804 46.5155 54.2804 47.0455C54.2804 47.5755 53.8504 47.9955 53.3304 47.9955Z" fill="white"/>
<path id="Vector_5" d="M46.5005 47.9957C47.0305 47.9957 47.4505 47.5657 47.4505 47.0457C47.4505 46.5257 47.0205 46.0957 46.5005 46.0957C45.9805 46.0957 45.5505 46.5157 45.5505 47.0457C45.5505 47.5757 45.9805 47.9957 46.5005 47.9957Z" fill="#444444"/>
<path id="Vector_6" d="M53.3306 46.0957C52.8006 46.0957 52.3806 46.5157 52.3806 47.0457C52.3806 47.5757 52.8106 47.9957 53.3306 47.9957C53.8506 47.9957 54.2806 47.5657 54.2806 47.0457C54.2806 46.5257 53.8506 46.0957 53.3306 46.0957Z" fill="#444444"/>
<path id="Vector_7" d="M46.7505 49.7741C46.4605 50.0641 46.4605 50.5441 46.7505 50.8341C47.6205 51.7041 48.7705 52.1441 49.9105 52.1441C51.0505 52.1441 52.2005 51.7041 53.0705 50.8341C53.3605 50.5441 53.3605 50.0641 53.0705 49.7741C52.7805 49.4841 52.3005 49.4841 52.0105 49.7741C50.8505 50.9341 48.9605 50.9341 47.8005 49.7741C47.5105 49.4841 47.0305 49.4841 46.7405 49.7741H46.7505Z" fill="#FF8982"/>
<path id="Vector_8" d="M65.3406 33.3359V29.9359L49.9106 22.5859L31.3406 31.4359L38.2906 35.6359V32.0459C38.2906 31.7759 38.4406 31.5159 38.6806 31.3859C42.1106 29.4959 46.0006 28.4959 49.9206 28.4959C53.8406 28.4959 57.7306 29.4959 61.1606 31.3859C61.4006 31.5159 61.5506 31.7659 61.5506 32.0459V35.6359L65.3506 33.3359H65.3406Z" fill="#FFEF85"/>
<path id="Vector_9" d="M66.8406 30.6445V32.4245L68.4906 31.4245L66.8406 30.6445Z" fill="#FFEF85"/>
<path id="Vector_10" d="M70.3905 30.675L66.8405 28.985V28.535C66.8405 28.125 66.5005 27.785 66.0905 27.785C65.7605 27.785 65.4805 27.995 65.3805 28.295L50.2305 21.075C50.0305 20.975 49.7905 20.975 49.5805 21.075L29.4305 30.675C29.1805 30.795 29.0205 31.035 29.0005 31.315C28.9905 31.595 29.1205 31.855 29.3605 31.995L38.2705 37.385V42.735C38.2705 42.985 38.3905 43.205 38.5905 43.345C38.5905 43.505 38.5805 43.655 38.5805 43.815V53.355C38.5805 54.245 38.7605 55.095 39.0805 55.875C35.7005 57.035 33.2605 60.245 33.2605 64.005V74.185C33.2605 74.595 33.6005 74.935 34.0105 74.935H65.7905C66.2005 74.935 66.5405 74.595 66.5405 74.185V64.005C66.5405 60.235 64.1005 57.035 60.7205 55.875C61.0405 55.095 61.2205 54.245 61.2205 53.355V43.815C61.2205 43.655 61.2205 43.505 61.2105 43.345C61.4105 43.205 61.5305 42.985 61.5305 42.735V37.385L65.3305 35.085V42.165C64.1405 42.495 63.2605 43.585 63.2605 44.875V47.485C63.2605 49.035 64.5205 50.305 66.0805 50.305C67.6405 50.305 68.9005 49.045 68.9005 47.485V44.875C68.9005 43.585 68.0205 42.495 66.8305 42.165V34.175L70.4405 31.985C70.6805 31.845 70.8105 31.585 70.8005 31.305C70.7905 31.025 70.6205 30.785 70.3705 30.665L70.3905 30.675ZM67.4105 44.885V47.495C67.4105 48.225 66.8205 48.815 66.0905 48.815C65.3605 48.815 64.7705 48.225 64.7705 47.495V44.885C64.7705 44.155 65.3605 43.565 66.0905 43.565C66.8205 43.565 67.4105 44.155 67.4105 44.885ZM59.7305 43.815V53.355C59.7305 54.125 59.5605 54.855 59.2505 55.515C58.8205 55.445 58.3905 55.405 57.9505 55.405H56.4405C57.9505 53.795 58.8905 51.635 58.8905 49.265V44.105C58.8905 43.695 58.5505 43.355 58.1405 43.355H48.1705L47.2505 40.855C48.1305 40.745 49.0205 40.685 49.9105 40.685C53.3005 40.685 56.6605 41.495 59.6905 43.005C59.7105 43.265 59.7305 43.535 59.7305 43.805V43.815ZM65.0505 73.445H60.1305V68.675C60.1305 68.265 59.7905 67.925 59.3805 67.925C58.9705 67.925 58.6305 68.265 58.6305 68.675V73.445H41.1905V68.675C41.1905 68.265 40.8505 67.925 40.4405 67.925C40.0305 67.925 39.6905 68.265 39.6905 68.675V73.445H34.7705V64.015C34.7705 60.095 37.9605 56.905 41.8805 56.905H45.2305C46.6005 57.745 48.2005 58.235 49.9105 58.235C51.6205 58.235 53.2305 57.745 54.5905 56.905H57.9405C61.8605 56.905 65.0505 60.095 65.0505 64.015V73.445ZM40.0905 53.365V43.825C40.0905 43.555 40.1105 43.285 40.1305 43.025C41.6805 42.245 43.3205 41.665 45.0105 41.275L44.2405 43.365H41.6905C41.2805 43.365 40.9405 43.705 40.9405 44.115V49.275C40.9405 51.655 41.8805 53.805 43.3905 55.415H41.8805C41.4405 55.415 41.0005 55.455 40.5805 55.525C40.2805 54.865 40.1005 54.135 40.1005 53.365H40.0905ZM49.9105 56.745C45.7905 56.745 42.4305 53.395 42.4305 49.265V44.855H44.7605C45.0705 44.855 45.3505 44.655 45.4605 44.365L46.2005 42.365L46.9405 44.365C47.0505 44.655 47.3305 44.855 47.6405 44.855H57.3805V49.265C57.3805 53.385 54.0305 56.745 49.9005 56.745H49.9105ZM60.0405 41.505C56.8905 39.985 53.4105 39.195 49.9105 39.195C46.4105 39.195 42.9305 39.995 39.7805 41.505V32.485C42.9005 30.855 46.3905 29.995 49.9105 29.995C53.4305 29.995 56.9205 30.855 60.0405 32.485V41.505ZM61.1505 31.385C57.7205 29.495 53.8305 28.495 49.9105 28.495C45.9905 28.495 42.1005 29.495 38.6705 31.385C38.4305 31.515 38.2805 31.765 38.2805 32.045V35.635L31.3305 31.435L49.9005 22.585L65.3305 29.935V33.335L61.5305 35.635V32.045C61.5305 31.775 61.3805 31.515 61.1405 31.385H61.1505ZM66.8405 30.655L68.4905 31.435L66.8405 32.435V30.655Z" fill="#444444"/>
<path id="Vector_11" d="M60.0405 32.4841C56.9205 30.8541 53.4305 29.9941 49.9105 29.9941C46.3905 29.9941 42.9005 30.8541 39.7805 32.4841V41.5041C42.9305 39.9841 46.4105 39.1941 49.9105 39.1941C53.4105 39.1941 56.8905 39.9941 60.0405 41.5041V32.4841Z" fill="white"/>
<path id="Vector_12" d="M66.0905 43.5645C65.3605 43.5645 64.7705 44.1545 64.7705 44.8845V47.4945C64.7705 48.2245 65.3605 48.8145 66.0905 48.8145C66.8205 48.8145 67.4105 48.2245 67.4105 47.4945V44.8845C67.4105 44.1545 66.8205 43.5645 66.0905 43.5645Z" fill="white"/>
</g>
</g>
</svg>
