<svg width="100" height="100" viewBox="0 0 100 100" fill="none" xmlns="http://www.w3.org/2000/svg">
<g id="Frame 733">
<rect width="100" height="100" rx="20" fill="#EEF3FC"/>
<g id="Group">
<path id="Vector" d="M69.0406 41.6959V35.6659L49.9706 26.5859L25.3306 38.3259L36.8706 45.3059V40.0959C36.8706 39.8259 37.0206 39.5659 37.2606 39.4359C41.1506 37.2959 45.5406 36.1759 49.9806 36.1759C54.4206 36.1759 58.8106 37.3059 62.7006 39.4359C62.9406 39.5659 63.0906 39.8159 63.0906 40.0959V45.3059L69.0506 41.7059L69.0406 41.6959Z" fill="#9BB6FF"/>
<path id="Vector_2" d="M70.5405 36.3848V40.7948L74.6205 38.3248L70.5405 36.3848Z" fill="#9BB6FF"/>
<path id="Vector_3" d="M76.5205 37.575L70.5405 34.725V34.185C70.5405 33.775 70.2005 33.435 69.7905 33.435C69.4305 33.435 69.1305 33.685 69.0605 34.025L50.3005 25.075C50.1005 24.975 49.8605 24.975 49.6505 25.075L23.4305 37.565C23.1805 37.685 23.0205 37.925 23.0005 38.205C22.9905 38.485 23.1205 38.745 23.3605 38.885L36.8605 47.055V54.555C36.8605 54.825 37.0005 55.065 37.2305 55.205C37.4605 55.345 37.7405 55.345 37.9705 55.215C41.6305 53.205 45.7805 52.135 49.9605 52.135C54.1405 52.135 58.2905 53.195 61.9505 55.215C62.0605 55.275 62.1905 55.305 62.3105 55.305C62.4405 55.305 62.5705 55.275 62.6905 55.205C62.9205 55.065 63.0605 54.825 63.0605 54.555V47.055L69.0205 43.455V49.755C67.6705 50.095 66.6705 51.305 66.6705 52.755V55.725C66.6705 57.435 68.0605 58.825 69.7705 58.825C71.4805 58.825 72.8705 57.435 72.8705 55.725V52.755C72.8705 51.305 71.8705 50.085 70.5205 49.755V42.555L76.5605 38.905C76.8005 38.765 76.9305 38.505 76.9205 38.225C76.9105 37.945 76.7405 37.705 76.4905 37.585L76.5205 37.575ZM71.3905 52.755V55.725C71.3905 56.605 70.6705 57.325 69.7905 57.325C68.9105 57.325 68.1905 56.605 68.1905 55.725V52.755C68.1905 51.875 68.9105 51.155 69.7905 51.155C70.6705 51.155 71.3905 51.875 71.3905 52.755ZM38.3705 53.325V40.545C41.9405 38.665 45.9405 37.675 49.9805 37.675C54.0205 37.675 58.0205 38.665 61.5905 40.545V53.325C57.9905 51.565 54.0005 50.635 49.9805 50.635C45.9605 50.635 41.9805 51.565 38.3705 53.325ZM62.6905 39.435C58.8005 37.295 54.4105 36.175 49.9705 36.175C45.5305 36.175 41.1405 37.305 37.2505 39.435C37.0105 39.565 36.8605 39.815 36.8605 40.095V45.305L25.3205 38.325L49.9705 26.585L69.0405 35.665V41.695L63.0805 45.295V40.085C63.0805 39.815 62.9305 39.555 62.6905 39.425V39.435ZM70.5405 36.385L74.6205 38.325L70.5405 40.785V36.375V36.385Z" fill="#444444"/>
<path id="Vector_4" d="M61.5806 40.5341C58.0106 38.6541 54.0106 37.6641 49.9706 37.6641C45.9306 37.6641 41.9306 38.6541 38.3606 40.5341V53.3141C41.9606 51.5541 45.9506 50.6241 49.9706 50.6241C53.9906 50.6241 57.9706 51.5541 61.5806 53.3141V40.5341Z" fill="white"/>
<path id="Vector_5" d="M69.7904 51.1543C68.9104 51.1543 68.1904 51.8743 68.1904 52.7543V55.7243C68.1904 56.6043 68.9104 57.3243 69.7904 57.3243C70.6704 57.3243 71.3904 56.6043 71.3904 55.7243V52.7543C71.3904 51.8743 70.6704 51.1543 69.7904 51.1543Z" fill="white"/>
<path id="Vector_6" d="M47.3005 69.4455V64.5155L31.2705 63.1855C30.6205 65.6855 30.6205 68.2855 31.2705 70.7755L47.3005 69.4455Z" fill="white"/>
<path id="Vector_7" d="M52.6506 64.5058V69.4358L68.6806 70.7658C69.3306 68.2658 69.3306 65.6658 68.6806 63.1758L52.6506 64.5058Z" fill="white"/>
<path id="Vector_8" d="M69.1705 61.6355L52.4605 63.0255C52.3205 62.8755 52.1305 62.7755 51.9005 62.7755H48.0505C47.8305 62.7755 47.6305 62.8755 47.4905 63.0255L30.7705 61.6355C30.4205 61.6055 30.0905 61.8255 29.9905 62.1655C29.0305 65.3155 29.0305 68.6455 29.9905 71.7955C30.0905 72.1355 30.4105 72.3555 30.7705 72.3255L47.4905 70.9355C47.6305 71.0855 47.8205 71.1855 48.0505 71.1855H51.9005C52.1205 71.1855 52.3205 71.0855 52.4605 70.9355L69.1705 72.3255C69.1705 72.3255 69.2105 72.3255 69.2305 72.3255C69.5605 72.3255 69.8505 72.1155 69.9505 71.7955C70.9105 68.6455 70.9105 65.3155 69.9505 62.1655C69.8505 61.8255 69.5205 61.6055 69.1705 61.6355ZM48.7905 69.6855V64.2755H51.1405V69.6855H48.7905ZM31.2605 63.1855L47.2905 64.5155V69.4455L31.2605 70.7755C30.6105 68.2755 30.6105 65.6755 31.2605 63.1855ZM68.6805 70.7755L52.6505 69.4455V64.5155L68.6805 63.1855C69.3305 65.6855 69.3305 68.2855 68.6805 70.7755Z" fill="#444444"/>
<path id="Vector_9" d="M51.1505 64.2656H48.8005V69.6756H51.1505V64.2656Z" fill="#FF8982"/>
</g>
</g>
</svg>
