<svg width="100" height="100" viewBox="0 0 100 100" fill="none" xmlns="http://www.w3.org/2000/svg">
<g id="Frame 734">
<rect width="100" height="100" rx="20" fill="#EEF3FC"/>
<g id="Group">
<path id="Vector" d="M24.52 66.1093C24.52 69.5993 27.36 72.4393 30.85 72.4393H66.73V71.0893H30.94C30.6 71.0893 30.26 71.0593 29.94 70.9893C27.67 70.5193 25.96 68.5093 25.96 66.1093C25.96 63.7093 27.67 61.6993 29.94 61.2293C30.26 61.1593 30.6 61.1293 30.94 61.1293H66.73V59.7793H30.85C27.36 59.7793 24.52 62.6193 24.52 66.1093Z" fill="#FF8982"/>
<path id="Vector_2" d="M27.46 66.1109C27.46 68.0309 29.02 69.5909 30.94 69.5909H65V62.6309H30.94C29.02 62.6309 27.46 64.1909 27.46 66.1109ZM32.51 65.3609H61.64C62.05 65.3609 62.39 65.7009 62.39 66.1109C62.39 66.5209 62.05 66.8609 61.64 66.8609H32.51C32.1 66.8609 31.76 66.5209 31.76 66.1109C31.76 65.7009 32.1 65.3609 32.51 65.3609Z" fill="white"/>
<path id="Vector_3" d="M32.51 66.8594H61.64C62.05 66.8594 62.39 66.5194 62.39 66.1094C62.39 65.6994 62.05 65.3594 61.64 65.3594H32.51C32.1 65.3594 31.76 65.6994 31.76 66.1094C31.76 66.5194 32.1 66.8594 32.51 66.8594Z" fill="#B5B5B6"/>
<path id="Vector_4" d="M39.67 56.9096C36.92 56.9096 34.69 54.6796 34.69 51.9296C34.69 49.1796 36.92 46.9496 39.67 46.9496H75.46V45.5996H39.58C36.09 45.5996 33.25 48.4396 33.25 51.9296C33.25 55.4196 36.09 58.2596 39.58 58.2596H75.46V56.9096H39.67Z" fill="#FFEF85"/>
<path id="Vector_5" d="M76.21 48.45C76.62 48.45 76.96 48.11 76.96 47.7V44.85C76.96 44.44 76.62 44.1 76.21 44.1H57.53C58.56 43.12 59.31 41.68 59.56 40.04H61.16C63.11 40.04 64.84 38.39 65.11 36.28L66.37 26.11C66.4 25.9 66.33 25.68 66.19 25.52C66.05 25.36 65.84 25.27 65.63 25.27H61.15L61.41 22.83C61.43 22.62 61.36 22.41 61.22 22.25C61.08 22.09 60.88 22 60.66 22H39.34C39.13 22 38.92 22.09 38.78 22.25C38.64 22.41 38.57 22.62 38.59 22.83L40.43 39.67C40.63 41.46 41.42 43.03 42.53 44.09H39.57C35.25 44.09 31.74 47.6 31.74 51.92C31.74 54.54 33.04 56.85 35.01 58.27H30.83C26.51 58.27 23 61.78 23 66.1C23 70.42 26.51 73.93 30.83 73.93H67.46C67.87 73.93 68.21 73.59 68.21 73.18V70.33C68.21 69.92 67.87 69.58 67.46 69.58H66.47V62.62H67.46C67.87 62.62 68.21 62.28 68.21 61.87V59.75H76.19C76.6 59.75 76.94 59.41 76.94 59V56.15C76.94 55.74 76.6 55.4 76.19 55.4H75.2V48.44H76.19L76.21 48.45ZM66.73 61.13H30.94C30.6 61.13 30.26 61.16 29.94 61.23C27.67 61.7 25.96 63.71 25.96 66.11C25.96 68.51 27.67 70.52 29.94 70.99C30.26 71.06 30.6 71.09 30.94 71.09H66.73V72.44H30.85C27.36 72.44 24.52 69.6 24.52 66.11C24.52 62.62 27.36 59.78 30.85 59.78H66.73V61.13ZM64.99 69.59H30.94C29.02 69.59 27.46 68.03 27.46 66.11C27.46 64.19 29.02 62.63 30.94 62.63H65V69.59H64.99ZM75.45 58.26H39.57C36.08 58.26 33.24 55.42 33.24 51.93C33.24 48.44 36.08 45.6 39.57 45.6H75.45V46.95H39.66C36.91 46.95 34.68 49.18 34.68 51.93C34.68 54.68 36.91 56.91 39.66 56.91H75.45V58.26ZM41.92 39.53L40.17 23.52H59.82L58.12 39.53C57.86 41.95 56.13 43.99 54.33 43.99H45.74C43.94 43.99 42.19 41.94 41.93 39.52L41.92 39.53ZM73.71 55.42H39.65C37.73 55.42 36.17 53.86 36.17 51.94C36.17 50.02 37.73 48.46 39.65 48.46H73.71V55.42ZM64.76 26.79L63.61 36.12C63.45 37.44 62.32 38.56 61.15 38.56H59.73L60.98 26.79H64.77H64.76Z" fill="#444444"/>
<path id="Vector_6" d="M36.1899 51.9292C36.1899 53.8492 37.7499 55.4092 39.6699 55.4092H73.7299V48.4492H39.6699C37.7499 48.4492 36.1899 50.0092 36.1899 51.9292ZM41.2399 51.1792H70.3699C70.7799 51.1792 71.1199 51.5192 71.1199 51.9292C71.1199 52.3392 70.7799 52.6792 70.3699 52.6792H41.2399C40.8299 52.6792 40.4899 52.3392 40.4899 51.9292C40.4899 51.5192 40.8299 51.1792 41.2399 51.1792Z" fill="white"/>
<path id="Vector_7" d="M41.24 52.6797H70.37C70.78 52.6797 71.12 52.3397 71.12 51.9297C71.12 51.5197 70.78 51.1797 70.37 51.1797H41.24C40.83 51.1797 40.49 51.5197 40.49 51.9297C40.49 52.3397 40.83 52.6797 41.24 52.6797Z" fill="#B5B5B6"/>
<path id="Vector_8" d="M54.3399 43.9895C56.1399 43.9895 57.8799 41.9495 58.1299 39.5295L59.8299 23.5195H40.1799L41.9299 39.5295C42.1899 41.9495 43.9399 43.9995 45.7399 43.9995H54.3299L54.3399 43.9895Z" fill="white"/>
</g>
</g>
</svg>
