<?xml version="1.0" encoding="utf-8"?>
<!-- Generator: Adobe Illustrator 27.9.0, SVG Export Plug-In . SVG Version: 6.00 Build 0)  -->
<svg version="1.1" id="레이어_1" xmlns="http://www.w3.org/2000/svg" xmlns:xlink="http://www.w3.org/1999/xlink" x="0px"
	 y="0px" viewBox="0 0 400 100" style="enable-background:new 0 0 400 100;" xml:space="preserve">
<style type="text/css">
	.st0{fill:#9BB6FF;}
	.st1{fill:#444444;}
	.st2{fill:#FFFFFF;}
	.st3{fill:#FF8982;}
	.st4{fill:#D89568;}
	.st5{fill:#FFEF85;}
	.st6{fill:#B5B5B6;}
</style>
<g id="Frame_733">
	<g id="Group">
		<path id="Vector" class="st0" d="M69,41.7v-6L50,26.6L25.3,38.3l11.5,7v-5.2c0-0.3,0.1-0.5,0.4-0.7c3.9-2.1,8.3-3.3,12.7-3.3
			s8.8,1.1,12.7,3.3c0.2,0.1,0.4,0.4,0.4,0.7v5.2L69,41.7L69,41.7z"/>
		<path id="Vector_2" class="st0" d="M70.5,36.4v4.4l4.1-2.5L70.5,36.4z"/>
		<path id="Vector_3" class="st1" d="M76.5,37.6l-6-2.9v-0.5c0-0.4-0.3-0.8-0.8-0.8c-0.4,0-0.7,0.2-0.7,0.6l-18.8-9
			c-0.2-0.1-0.4-0.1-0.6,0L23.4,37.6c-0.2,0.1-0.4,0.4-0.4,0.6c0,0.3,0.1,0.5,0.4,0.7l13.5,8.2v7.5c0,0.3,0.1,0.5,0.4,0.7
			c0.2,0.1,0.5,0.1,0.7,0c3.7-2,7.8-3.1,12-3.1s8.3,1.1,12,3.1c0.1,0.1,0.2,0.1,0.4,0.1c0.1,0,0.3,0,0.4-0.1
			c0.2-0.1,0.4-0.4,0.4-0.7v-7.5l6-3.6v6.3c-1.3,0.3-2.3,1.5-2.3,3v3c0,1.7,1.4,3.1,3.1,3.1s3.1-1.4,3.1-3.1v-3c0-1.5-1-2.7-2.3-3
			v-7.2l6-3.7c0.2-0.1,0.4-0.4,0.4-0.7C76.9,37.9,76.7,37.7,76.5,37.6L76.5,37.6z M71.4,52.8v3c0,0.9-0.7,1.6-1.6,1.6
			c-0.9,0-1.6-0.7-1.6-1.6v-3c0-0.9,0.7-1.6,1.6-1.6C70.7,51.2,71.4,51.9,71.4,52.8z M38.4,53.3V40.5c3.6-1.9,7.6-2.9,11.6-2.9
			s8,1,11.6,2.9v12.8C58,51.6,54,50.6,50,50.6S42,51.6,38.4,53.3z M62.7,39.4c-3.9-2.1-8.3-3.3-12.7-3.3s-8.8,1.1-12.7,3.3
			c-0.2,0.1-0.4,0.4-0.4,0.7v5.2l-11.5-7L50,26.6L69,35.7v6l-6,3.6v-5.2C63.1,39.8,62.9,39.6,62.7,39.4L62.7,39.4z M70.5,36.4
			l4.1,1.9l-4.1,2.5V36.4L70.5,36.4z"/>
		<path id="Vector_4" class="st2" d="M61.6,40.5C58,38.7,54,37.7,50,37.7s-8,1-11.6,2.9v12.8C42,51.6,46,50.6,50,50.6
			s8,0.9,11.6,2.7V40.5z"/>
		<path id="Vector_5" class="st2" d="M69.8,51.2c-0.9,0-1.6,0.7-1.6,1.6v3c0,0.9,0.7,1.6,1.6,1.6c0.9,0,1.6-0.7,1.6-1.6v-3
			C71.4,51.9,70.7,51.2,69.8,51.2z"/>
		<path id="Vector_6" class="st2" d="M47.3,69.4v-4.9l-16-1.3c-0.6,2.5-0.6,5.1,0,7.6L47.3,69.4z"/>
		<path id="Vector_7" class="st2" d="M52.7,64.5v4.9l16,1.3c0.6-2.5,0.6-5.1,0-7.6L52.7,64.5z"/>
		<path id="Vector_8" class="st1" d="M69.2,61.6L52.5,63c-0.1-0.2-0.3-0.2-0.6-0.2h-3.9c-0.2,0-0.4,0.1-0.6,0.2l-16.7-1.4
			c-0.4,0-0.7,0.2-0.8,0.5c-1,3.1-1,6.5,0,9.6c0.1,0.3,0.4,0.6,0.8,0.5l16.7-1.4c0.1,0.2,0.3,0.2,0.6,0.2h3.9c0.2,0,0.4-0.1,0.6-0.2
			l16.7,1.4c0,0,0,0,0.1,0c0.3,0,0.6-0.2,0.7-0.5c1-3.2,1-6.5,0-9.6C69.9,61.8,69.5,61.6,69.2,61.6z M48.8,69.7v-5.4h2.3v5.4H48.8z
			 M31.3,63.2l16,1.3v4.9l-16,1.3C30.6,68.3,30.6,65.7,31.3,63.2z M68.7,70.8l-16-1.3v-4.9l16-1.3C69.3,65.7,69.3,68.3,68.7,70.8z"
			/>
		<path id="Vector_9" class="st3" d="M51.2,64.3h-2.4v5.4h2.4V64.3z"/>
	</g>
</g>
<g id="Group_00000047048173600578279180000009194681905675102110_">
	<path id="Vector_00000047048015591824393610000010233608209115682457_" class="st4" d="M147.3,40.9l0.9,2.5h10
		c0.4,0,0.8,0.3,0.8,0.8v5.2c0,2.4-0.9,4.5-2.5,6.1h1.5c0.4,0,0.9,0,1.3,0.1c0.3-0.7,0.5-1.4,0.5-2.2v-9.5c0-0.3,0-0.5,0-0.8
		c-3-1.5-6.4-2.3-9.8-2.3C149,40.7,148.1,40.8,147.3,40.9L147.3,40.9z"/>
	<path id="Vector_2_00000127010790241075037990000003673616475398810511_" class="st4" d="M143.4,55.4c-1.5-1.6-2.4-3.8-2.4-6.1
		v-5.2c0-0.4,0.3-0.8,0.8-0.8h2.6l0.8-2.1c-1.7,0.4-3.3,1-4.9,1.8c0,0.3,0,0.5,0,0.8v9.5c0,0.8,0.2,1.5,0.5,2.2
		c0.4-0.1,0.9-0.1,1.3-0.1H143.4L143.4,55.4z"/>
	<path id="Vector_3_00000152959932782140603300000005435724957796326574_" class="st0" d="M158,56.9h-3.4c-1.4,0.8-3,1.3-4.7,1.3
		c-1.7,0-3.3-0.5-4.7-1.3h-3.4c-3.9,0-7.1,3.2-7.1,7.1v9.4h4.9v-4.8c0-0.4,0.3-0.8,0.8-0.8s0.8,0.3,0.8,0.8v4.8h17.4v-4.8
		c0-0.4,0.3-0.8,0.8-0.8s0.8,0.3,0.8,0.8v4.8h4.9V64C165.1,60.1,161.9,56.9,158,56.9z"/>
	<path id="Vector_4_00000023998737966164079090000007959385623234586262_" class="st2" d="M157.4,44.8h-9.7c-0.3,0-0.6-0.2-0.7-0.5
		l-0.7-2l-0.7,2c-0.1,0.3-0.4,0.5-0.7,0.5h-2.3v4.4c0,4.1,3.4,7.5,7.5,7.5c4.1,0,7.5-3.3,7.5-7.5L157.4,44.8L157.4,44.8z
		 M147.8,49.8c1.2,1.2,3.1,1.2,4.2,0c0.3-0.3,0.8-0.3,1.1,0c0.3,0.3,0.3,0.8,0,1.1c-0.9,0.9-2,1.3-3.2,1.3s-2.3-0.4-3.2-1.3
		c-0.3-0.3-0.3-0.8,0-1.1C147.1,49.5,147.5,49.5,147.8,49.8L147.8,49.8z M146.5,46.1c0.5,0,1,0.4,1,1c0,0.5-0.4,0.9-1,0.9
		c-0.5,0-0.9-0.4-0.9-0.9C145.6,46.5,146,46.1,146.5,46.1z M153.3,48c-0.5,0-0.9-0.4-0.9-0.9c0-0.5,0.4-1,0.9-1s0.9,0.4,0.9,1
		C154.3,47.6,153.9,48,153.3,48z"/>
	<path id="Vector_5_00000157306119474546441970000011394024913780809636_" class="st1" d="M146.5,48c0.5,0,0.9-0.4,0.9-1
		s-0.4-1-0.9-1s-0.9,0.4-0.9,1S146,48,146.5,48z"/>
	<path id="Vector_6_00000142856352510409200730000018114053662213325956_" class="st1" d="M153.3,46.1c-0.5,0-0.9,0.4-0.9,1
		s0.4,1,0.9,1c0.5,0,1-0.4,1-1S153.9,46.1,153.3,46.1z"/>
	<path id="Vector_7_00000065053157668133855840000009492071001130116262_" class="st3" d="M146.8,49.8c-0.3,0.3-0.3,0.8,0,1.1
		c0.9,0.9,2,1.3,3.2,1.3c1.1,0,2.3-0.4,3.2-1.3c0.3-0.3,0.3-0.8,0-1.1c-0.3-0.3-0.8-0.3-1.1,0c-1.2,1.2-3.1,1.2-4.2,0
		C147.5,49.5,147,49.5,146.8,49.8L146.8,49.8z"/>
	<path id="Vector_8_00000016780399912195582750000009985528764965969588_" class="st5" d="M165.3,33.3v-3.4l-15.4-7.4l-18.6,8.9
		l6.9,4.2V32c0-0.3,0.1-0.5,0.4-0.7c3.4-1.9,7.3-2.9,11.2-2.9c3.9,0,7.8,1,11.2,2.9c0.2,0.1,0.4,0.4,0.4,0.7v3.6L165.3,33.3
		L165.3,33.3z"/>
	<path id="Vector_9_00000061448606201631118130000010390182330725134509_" class="st5" d="M166.8,30.6v1.8l1.6-1L166.8,30.6z"/>
	<path id="Vector_10" class="st1" d="M170.4,30.7l-3.6-1.7v-0.5c0-0.4-0.3-0.8-0.8-0.8c-0.3,0-0.6,0.2-0.7,0.5l-15.1-7.2
		c-0.2-0.1-0.4-0.1-0.6,0l-20.2,9.6c-0.2,0.1-0.4,0.4-0.4,0.6c0,0.3,0.1,0.5,0.4,0.7l8.9,5.4v5.4c0,0.2,0.1,0.5,0.3,0.6
		c0,0.2,0,0.3,0,0.5v9.5c0,0.9,0.2,1.7,0.5,2.5c-3.4,1.2-5.8,4.4-5.8,8.1v10.2c0,0.4,0.3,0.8,0.8,0.8h31.8c0.4,0,0.8-0.3,0.8-0.8V64
		c0-3.8-2.4-7-5.8-8.1c0.3-0.8,0.5-1.6,0.5-2.5v-9.5c0-0.2,0-0.3,0-0.5c0.2-0.1,0.3-0.4,0.3-0.6v-5.4l3.8-2.3v7.1
		c-1.2,0.3-2.1,1.4-2.1,2.7v2.6c0,1.5,1.3,2.8,2.8,2.8s2.8-1.3,2.8-2.8v-2.6c0-1.3-0.9-2.4-2.1-2.7v-8l3.6-2.2
		c0.2-0.1,0.4-0.4,0.4-0.7C170.8,31,170.6,30.8,170.4,30.7L170.4,30.7z M167.4,44.9v2.6c0,0.7-0.6,1.3-1.3,1.3s-1.3-0.6-1.3-1.3
		v-2.6c0-0.7,0.6-1.3,1.3-1.3S167.4,44.2,167.4,44.9z M159.7,43.8v9.5c0,0.8-0.2,1.5-0.5,2.2c-0.4-0.1-0.9-0.1-1.3-0.1h-1.5
		c1.5-1.6,2.5-3.8,2.5-6.1v-5.2c0-0.4-0.3-0.8-0.8-0.8h-10l-0.9-2.5c0.9-0.1,1.8-0.2,2.7-0.2c3.4,0,6.8,0.8,9.8,2.3
		C159.7,43.3,159.7,43.5,159.7,43.8L159.7,43.8z M165.1,73.4h-4.9v-4.8c0-0.4-0.3-0.8-0.8-0.8c-0.4,0-0.8,0.3-0.8,0.8v4.8h-17.4
		v-4.8c0-0.4-0.3-0.8-0.8-0.8c-0.4,0-0.8,0.3-0.8,0.8v4.8h-4.9V64c0-3.9,3.2-7.1,7.1-7.1h3.4c1.4,0.8,3,1.3,4.7,1.3
		c1.7,0,3.3-0.5,4.7-1.3h3.3c3.9,0,7.1,3.2,7.1,7.1V73.4z M140.1,53.4v-9.5c0-0.3,0-0.5,0-0.8c1.6-0.8,3.2-1.4,4.9-1.8l-0.8,2.1
		h-2.6c-0.4,0-0.8,0.3-0.8,0.8v5.2c0,2.4,0.9,4.5,2.5,6.1h-1.5c-0.4,0-0.9,0-1.3,0.1C140.3,54.9,140.1,54.1,140.1,53.4L140.1,53.4z
		 M149.9,56.7c-4.1,0-7.5-3.3-7.5-7.5v-4.4h2.3c0.3,0,0.6-0.2,0.7-0.5l0.7-2l0.7,2c0.1,0.3,0.4,0.5,0.7,0.5h9.7v4.4
		C157.4,53.4,154,56.7,149.9,56.7L149.9,56.7z M160,41.5c-3.1-1.5-6.6-2.3-10.1-2.3s-7,0.8-10.1,2.3v-9c3.1-1.6,6.6-2.5,10.1-2.5
		c3.5,0,7,0.9,10.1,2.5V41.5z M161.2,31.4c-3.4-1.9-7.3-2.9-11.2-2.9c-3.9,0-7.8,1-11.2,2.9c-0.2,0.1-0.4,0.4-0.4,0.7v3.6l-6.9-4.2
		l18.6-8.9l15.4,7.4v3.4l-3.8,2.3V32C161.5,31.8,161.4,31.5,161.2,31.4L161.2,31.4z M166.8,30.7l1.7,0.8l-1.7,1V30.7z"/>
	<path id="Vector_11" class="st2" d="M160,32.5c-3.1-1.6-6.6-2.5-10.1-2.5c-3.5,0-7,0.9-10.1,2.5v9c3.1-1.5,6.6-2.3,10.1-2.3
		s7,0.8,10.1,2.3V32.5z"/>
	<path id="Vector_12" class="st2" d="M166.1,43.6c-0.7,0-1.3,0.6-1.3,1.3v2.6c0,0.7,0.6,1.3,1.3,1.3s1.3-0.6,1.3-1.3v-2.6
		C167.4,44.2,166.8,43.6,166.1,43.6z"/>
</g>
<g id="Group_00000054984619664543871600000013268004454172928404_">
	<path id="Vector_00000104670816438930608960000014394493542831132064_" class="st3" d="M224.5,66.1c0,3.5,2.8,6.3,6.3,6.3h35.9
		v-1.3h-35.8c-0.3,0-0.7,0-1-0.1c-2.3-0.5-4-2.5-4-4.9c0-2.4,1.7-4.4,4-4.9c0.3-0.1,0.7-0.1,1-0.1h35.8v-1.3h-35.9
		C227.4,59.8,224.5,62.6,224.5,66.1z"/>
	<path id="Vector_2_00000152227363053354084820000003179947487858819755_" class="st2" d="M227.5,66.1c0,1.9,1.6,3.5,3.5,3.5H265v-7
		h-34.1C229,62.6,227.5,64.2,227.5,66.1z M232.5,65.4h29.1c0.4,0,0.8,0.3,0.8,0.8c0,0.4-0.3,0.8-0.8,0.8h-29.1
		c-0.4,0-0.8-0.3-0.8-0.8C231.8,65.7,232.1,65.4,232.5,65.4z"/>
	<path id="Vector_3_00000016784917450055054620000017448392806232213121_" class="st6" d="M232.5,66.9h29.1c0.4,0,0.8-0.3,0.8-0.8
		c0-0.4-0.3-0.8-0.8-0.8h-29.1c-0.4,0-0.8,0.3-0.8,0.8C231.8,66.5,232.1,66.9,232.5,66.9z"/>
	<path id="Vector_4_00000081608931284982995980000007548383088446057870_" class="st5" d="M239.7,56.9c-2.8,0-5-2.2-5-5s2.2-5,5-5
		h35.8v-1.3h-35.9c-3.5,0-6.3,2.8-6.3,6.3c0,3.5,2.8,6.3,6.3,6.3h35.9v-1.4H239.7z"/>
	<path id="Vector_5_00000116236461470160595640000005412669980425294778_" class="st1" d="M276.2,48.5c0.4,0,0.8-0.3,0.8-0.8v-2.9
		c0-0.4-0.3-0.8-0.8-0.8h-18.7c1-1,1.8-2.4,2-4.1h1.6c1.9,0,3.7-1.7,3.9-3.8l1.3-10.2c0-0.2,0-0.4-0.2-0.6s-0.4-0.2-0.6-0.2h-4.5
		l0.3-2.4c0-0.2-0.1-0.4-0.2-0.6s-0.3-0.2-0.6-0.2h-21.3c-0.2,0-0.4,0.1-0.6,0.2s-0.2,0.4-0.2,0.6l1.8,16.8c0.2,1.8,1,3.4,2.1,4.4
		h-3c-4.3,0-7.8,3.5-7.8,7.8c0,2.6,1.3,4.9,3.3,6.4h-4.2c-4.3,0-7.8,3.5-7.8,7.8s3.5,7.8,7.8,7.8h36.6c0.4,0,0.8-0.3,0.8-0.8v-2.8
		c0-0.4-0.3-0.8-0.8-0.8h-1v-7h1c0.4,0,0.8-0.3,0.8-0.8v-2.1h8c0.4,0,0.8-0.3,0.8-0.8v-2.8c0-0.4-0.3-0.8-0.8-0.8h-1v-7L276.2,48.5
		L276.2,48.5z M266.7,61.1h-35.8c-0.3,0-0.7,0-1,0.1c-2.3,0.5-4,2.5-4,4.9s1.7,4.4,4,4.9c0.3,0.1,0.7,0.1,1,0.1h35.8v1.4h-35.9
		c-3.5,0-6.3-2.8-6.3-6.3c0-3.5,2.8-6.3,6.3-6.3h35.9V61.1z M265,69.6h-34c-1.9,0-3.5-1.6-3.5-3.5s1.6-3.5,3.5-3.5H265L265,69.6
		L265,69.6z M275.5,58.3h-35.9c-3.5,0-6.3-2.8-6.3-6.3c0-3.5,2.8-6.3,6.3-6.3h35.9V47h-35.8c-2.8,0-5,2.2-5,5s2.2,5,5,5h35.8V58.3z
		 M241.9,39.5l-1.8-16h19.7l-1.7,16c-0.3,2.4-2,4.5-3.8,4.5h-8.6C243.9,44,242.2,41.9,241.9,39.5L241.9,39.5z M273.7,55.4h-34.1
		c-1.9,0-3.5-1.6-3.5-3.5c0-1.9,1.6-3.5,3.5-3.5h34.1V55.4z M264.8,26.8l-1.2,9.3c-0.2,1.3-1.3,2.4-2.5,2.4h-1.4l1.2-11.8H264.8
		L264.8,26.8z"/>
	<path id="Vector_6_00000168081662455897010790000016126989908881314471_" class="st2" d="M236.2,51.9c0,1.9,1.6,3.5,3.5,3.5h34.1
		v-7h-34.1C237.7,48.4,236.2,50,236.2,51.9z M241.2,51.2h29.1c0.4,0,0.8,0.3,0.8,0.8s-0.3,0.8-0.8,0.8h-29.1c-0.4,0-0.8-0.3-0.8-0.8
		S240.8,51.2,241.2,51.2z"/>
	<path id="Vector_7_00000091700058707635240940000009734330858257807496_" class="st6" d="M241.2,52.7h29.1c0.4,0,0.8-0.3,0.8-0.8
		s-0.3-0.8-0.8-0.8h-29.1c-0.4,0-0.8,0.3-0.8,0.8S240.8,52.7,241.2,52.7z"/>
	<path id="Vector_8_00000057139396811974446800000008333821060662992317_" class="st2" d="M254.3,44c1.8,0,3.5-2,3.8-4.5l1.7-16
		h-19.6l1.8,16c0.3,2.4,2,4.5,3.8,4.5L254.3,44L254.3,44z"/>
</g>
<g id="Group_00000124119398164260824320000002121261045488105615_">
	<path id="Vector_00000083091408357510216920000000164666654120359072_" class="st2" d="M367,52v3.1c0,2-1.6,3.5-3.6,3.5
		c-2,0-3.5-1.6-3.5-3.5v-2.4c-3.2,0.2-6.6,0.4-9.9,0.4s-6.7-0.1-9.9-0.4v2.4c0,2-1.6,3.5-3.6,3.5s-3.5-1.6-3.5-3.5V52
		c-2.9-0.4-5.8-0.9-8.5-1.5v22h50.9v-22C372.8,51.1,369.9,51.6,367,52L367,52z"/>
	<path id="Vector_2_00000026162347856512031710000009345968144958081980_" class="st2" d="M333,48.7c0-2,1.6-3.5,3.6-3.5
		c2,0,3.5,1.6,3.5,3.5v2.5c3.2,0.2,6.6,0.4,9.9,0.4s6.7-0.1,9.9-0.4v-2.5c0-2,1.6-3.5,3.6-3.5s3.5,1.6,3.5,3.5v1.8
		c2.9-0.4,5.8-0.9,8.5-1.5V33.4c0-2.4-2-4.4-4.4-4.4h-42.2c-2.4,0-4.4,2-4.4,4.4V49c2.7,0.6,5.5,1.1,8.5,1.5V48.7z"/>
	<path id="Vector_3_00000166652920568850268900000016626185498535887237_" class="st1" d="M371.1,27.5h-10.8
		c-0.6-3.7-5-6.5-10.3-6.5s-9.7,2.9-10.3,6.5h-10.8c-3.2,0-5.9,2.6-5.9,5.9v39.8c0,0.4,0.3,0.8,0.8,0.8h52.4c0.4,0,0.8-0.3,0.8-0.8
		V33.4C376.9,30.2,374.3,27.5,371.1,27.5z M324.5,72.4v-22c2.7,0.6,5.5,1.1,8.5,1.5v3.1c0,2,1.6,3.6,3.6,3.6c2,0,3.5-1.6,3.5-3.6
		v-2.4c3.2,0.2,6.6,0.4,9.9,0.4s6.7-0.1,9.9-0.4v2.4c0,2,1.6,3.6,3.6,3.6s3.5-1.6,3.5-3.6V52c2.9-0.4,5.8-0.9,8.5-1.5v22H324.5z
		 M324.5,33.4c0-2.4,2-4.4,4.4-4.4h42.2c2.4,0,4.4,2,4.4,4.4V49c-2.7,0.6-5.5,1.1-8.5,1.5v-1.8c0-2-1.6-3.6-3.5-3.6
		s-3.5,1.6-3.5,3.6v2.5c-3.2,0.2-6.6,0.4-9.9,0.4c-3.3,0-6.7-0.1-9.9-0.4v-2.5c0-2-1.6-3.6-3.5-3.6s-3.6,1.6-3.6,3.6v1.8
		c-2.9-0.4-5.8-0.9-8.5-1.5L324.5,33.4L324.5,33.4z M334.5,48.7c0-1.1,0.9-2.1,2.1-2.1s2,0.9,2,2.1v6.4c0,1.1-0.9,2.1-2,2.1
		s-2.1-0.9-2.1-2.1V48.7z M361.4,48.7c0-1.1,0.9-2.1,2-2.1c1.1,0,2.1,0.9,2.1,2.1v6.4c0,1.1-0.9,2.1-2.1,2.1c-1.1,0-2-0.9-2-2.1
		V48.7z M350,22.5c4.4,0,8.1,2.2,8.8,5.1h-17.6C341.8,24.7,345.5,22.5,350,22.5L350,22.5z"/>
	<path id="Vector_4_00000005958150286133623790000007855080148122620811_" class="st5" d="M336.5,57.2c1.1,0,2.1-0.9,2.1-2v-6.5
		c0-1.1-0.9-2-2.1-2c-1.1,0-2,0.9-2,2v6.5C334.5,56.2,335.4,57.2,336.5,57.2z"/>
	<path id="Vector_5_00000131367077238514387160000005776205651922092719_" class="st5" d="M363.4,57.2c1.1,0,2-0.9,2-2v-6.5
		c0-1.1-0.9-2-2-2s-2.1,0.9-2.1,2v6.5C361.4,56.2,362.3,57.2,363.4,57.2z"/>
</g>
</svg>
